M48
; DRILL file {KiCad 9.0.6} date 2026-03-28T18:24:04+0100
; FORMAT={-:-/ absolute / metric / decimal}
; #@! TF.CreationDate,2026-03-28T18:24:04+01:00
; #@! TF.GenerationSoftware,Kicad,Pcbnew,9.0.6
; #@! TF.FileFunction,Plated,1,2,PTH
FMAT,2
METRIC
; #@! TA.AperFunction,Plated,PTH,ViaDrill
T1C0.300
; #@! TA.AperFunction,Plated,PTH,ComponentDrill
T2C0.300
; #@! TA.AperFunction,Plated,PTH,ComponentDrill
T3C0.600
; #@! TA.AperFunction,Plated,PTH,ComponentDrill
T4C0.800
; #@! TA.AperFunction,Plated,PTH,ComponentDrill
T5C1.000
; #@! TA.AperFunction,Plated,PTH,ComponentDrill
T6C1.200
%
G90
G05
T1
X116.815Y-51.283
X116.891Y-63.043
X121.285Y-82.931
X122.301Y-117.856
X124.079Y-105.283
X125.349Y-89.916
X125.476Y-76.835
X126.619Y-101.092
X127.0Y-83.693
X127.203Y-120.167
X127.381Y-108.966
X129.54Y-59.842
X133.096Y-98.044
X136.144Y-94.361
X137.16Y-87.249
X137.541Y-105.283
X137.668Y-58.674
X139.7Y-77.089
X139.7Y-112.014
X143.637Y-113.792
X145.669Y-62.738
X145.669Y-97.155
X145.796Y-75.184
X145.847Y-58.776
X146.05Y-114.173
X147.32Y-88.773
X148.438Y-58.725
X148.463Y-83.693
X148.463Y-114.808
X148.717Y-71.755
X149.86Y-106.553
X151.003Y-114.935
X151.403Y-77.554
X151.892Y-97.79
X152.146Y-77.851
X152.273Y-60.579
X152.273Y-83.693
X152.7Y-81.602
X153.201Y-80.978
X153.289Y-114.3
X153.505Y-83.38
X153.543Y-93.091
X153.738Y-77.978
X154.305Y-83.38
X154.371Y-77.489
X155.651Y-62.687
X155.956Y-114.046
X157.099Y-80.391
X157.353Y-103.378
X157.775Y-96.307
X158.293Y-61.925
X158.623Y-114.3
X159.289Y-77.185
X160.528Y-77.47
X160.909Y-110.363
X161.087Y-58.928
X161.544Y-71.188
X161.544Y-104.394
X161.671Y-98.425
X162.814Y-67.564
X163.449Y-98.425
X164.211Y-72.898
X164.211Y-95.25
X164.338Y-61.773
X164.338Y-71.882
X165.078Y-92.859
X165.227Y-109.525
X165.481Y-80.772
X166.471Y-96.165
X166.909Y-93.06
X167.386Y-97.79
X167.64Y-94.742
X167.767Y-68.216
X167.767Y-75.565
X167.767Y-109.525
X167.945Y-89.256
X168.021Y-96.647
X168.148Y-95.758
X168.148Y-101.346
X168.529Y-62.611
X168.783Y-92.202
X168.783Y-98.477
X169.037Y-68.216
X169.164Y-83.439
X169.672Y-62.992
X169.672Y-109.576
X169.926Y-82.55
X170.688Y-63.127
X170.815Y-96.52
X171.361Y-98.082
X171.361Y-109.626
X171.831Y-77.597
X172.314Y-112.979
X173.101Y-60.579
X173.355Y-92.964
X173.482Y-64.262
X173.99Y-60.198
X174.244Y-58.801
X174.371Y-81.661
X174.625Y-73.406
X174.879Y-84.582
X174.879Y-102.616
X175.006Y-69.977
X175.412Y-78.486
X176.276Y-104.267
X177.165Y-62.865
X177.292Y-67.691
X177.673Y-113.538
X178.054Y-89.408
X178.105Y-76.149
X178.308Y-56.769
X178.308Y-70.485
X178.435Y-92.837
X178.562Y-60.579
X179.705Y-98.298
X179.959Y-105.664
X180.848Y-61.214
X181.229Y-85.598
X181.864Y-71.12
X181.94Y-121.056
X182.524Y-53.391
X183.134Y-80.518
X183.134Y-115.189
X183.896Y-68.961
T2
X134.705Y-94.534
T4
X140.208Y-70.104
X145.288Y-70.104
T5
X132.08Y-116.84
X133.609Y-56.896
X134.62Y-116.84
X136.149Y-56.896
X137.16Y-116.84
X140.248Y-81.788
X141.732Y-56.769
X141.986Y-116.84
X144.272Y-56.769
X144.526Y-116.84
X145.248Y-81.788
X146.812Y-56.769
X147.066Y-116.84
X149.352Y-56.769
X149.606Y-116.84
X152.146Y-116.84
X154.559Y-56.769
X154.686Y-116.84
X157.099Y-56.769
X157.226Y-116.84
X159.639Y-56.769
X159.766Y-116.84
X162.179Y-56.769
X164.719Y-56.769
X165.232Y-116.84
X167.259Y-56.769
X167.772Y-116.84
X169.799Y-56.769
X172.339Y-56.769
X173.101Y-116.84
X175.641Y-116.84
T6
X118.508Y-66.432
X118.508Y-72.02
X119.495Y-96.156
X119.495Y-114.156
X136.508Y-66.432
X136.508Y-72.02
T3
G00X178.441Y-101.471
M15
G01X179.341Y-101.471
M16
G05
G00X178.441Y-110.111
M15
G01X179.341Y-110.111
M16
G05
G00X182.801Y-101.471
M15
G01X183.401Y-101.471
M16
G05
G00X182.801Y-110.111
M15
G01X183.401Y-110.111
M16
G05
M30
