%TF.GenerationSoftware,KiCad,Pcbnew,9.0.6*%
%TF.CreationDate,2026-03-28T18:23:59+01:00*%
%TF.ProjectId,zadanieRekrutacyjneFalcon292778,7a616461-6e69-4655-9265-6b7275746163,rev?*%
%TF.SameCoordinates,Original*%
%TF.FileFunction,Copper,L2,Bot*%
%TF.FilePolarity,Positive*%
%FSLAX46Y46*%
G04 Gerber Fmt 4.6, Leading zero omitted, Abs format (unit mm)*
G04 Created by KiCad (PCBNEW 9.0.6) date 2026-03-28 18:23:59*
%MOMM*%
%LPD*%
G01*
G04 APERTURE LIST*
G04 Aperture macros list*
%AMRoundRect*
0 Rectangle with rounded corners*
0 $1 Rounding radius*
0 $2 $3 $4 $5 $6 $7 $8 $9 X,Y pos of 4 corners*
0 Add a 4 corners polygon primitive as box body*
4,1,4,$2,$3,$4,$5,$6,$7,$8,$9,$2,$3,0*
0 Add four circle primitives for the rounded corners*
1,1,$1+$1,$2,$3*
1,1,$1+$1,$4,$5*
1,1,$1+$1,$6,$7*
1,1,$1+$1,$8,$9*
0 Add four rect primitives between the rounded corners*
20,1,$1+$1,$2,$3,$4,$5,0*
20,1,$1+$1,$4,$5,$6,$7,0*
20,1,$1+$1,$6,$7,$8,$9,0*
20,1,$1+$1,$8,$9,$2,$3,0*%
G04 Aperture macros list end*
%TA.AperFunction,ComponentPad*%
%ADD10O,2.000000X1.100000*%
%TD*%
%TA.AperFunction,ComponentPad*%
%ADD11O,1.800000X1.200000*%
%TD*%
%TA.AperFunction,ComponentPad*%
%ADD12R,0.500000X0.900000*%
%TD*%
%TA.AperFunction,ComponentPad*%
%ADD13R,1.700000X1.700000*%
%TD*%
%TA.AperFunction,ComponentPad*%
%ADD14C,1.700000*%
%TD*%
%TA.AperFunction,ComponentPad*%
%ADD15RoundRect,0.250001X-0.949999X0.949999X-0.949999X-0.949999X0.949999X-0.949999X0.949999X0.949999X0*%
%TD*%
%TA.AperFunction,ComponentPad*%
%ADD16C,2.400000*%
%TD*%
%TA.AperFunction,ComponentPad*%
%ADD17RoundRect,0.250001X-0.949999X-0.949999X0.949999X-0.949999X0.949999X0.949999X-0.949999X0.949999X0*%
%TD*%
%TA.AperFunction,ComponentPad*%
%ADD18C,2.000000*%
%TD*%
%TA.AperFunction,ViaPad*%
%ADD19C,0.600000*%
%TD*%
%TA.AperFunction,Conductor*%
%ADD20C,0.152400*%
%TD*%
%TA.AperFunction,Conductor*%
%ADD21C,0.508000*%
%TD*%
G04 APERTURE END LIST*
D10*
%TO.P,USB1,13,SHELL*%
%TO.N,GND*%
X178891000Y-110111000D03*
D11*
X183101000Y-110111000D03*
D10*
%TO.P,USB1,14,SHELL*%
X178891000Y-101471000D03*
D11*
X183101000Y-101471000D03*
%TD*%
D12*
%TO.P,AE1,1,A*%
%TO.N,Net-(AE1-A)*%
X134705000Y-94534000D03*
%TD*%
D13*
%TO.P,J6,1,Pin_1*%
%TO.N,/BAJT2-7*%
X154559000Y-56769000D03*
D14*
%TO.P,J6,2,Pin_2*%
%TO.N,/BAJT2-6*%
X157099000Y-56769000D03*
%TO.P,J6,3,Pin_3*%
%TO.N,/BAJT2-5*%
X159639000Y-56769000D03*
%TO.P,J6,4,Pin_4*%
%TO.N,/BAJT2-4*%
X162179000Y-56769000D03*
%TO.P,J6,5,Pin_5*%
%TO.N,/BAJT2-3*%
X164719000Y-56769000D03*
%TO.P,J6,6,Pin_6*%
%TO.N,/BAJT2-2*%
X167259000Y-56769000D03*
%TO.P,J6,7,Pin_7*%
%TO.N,/BAJT2-1*%
X169799000Y-56769000D03*
%TO.P,J6,8,Pin_8*%
%TO.N,/BAJT2-0*%
X172339000Y-56769000D03*
%TD*%
D13*
%TO.P,J1,1,Pin_1*%
%TO.N,VBUS*%
X132080000Y-116840000D03*
D14*
%TO.P,J1,2,Pin_2*%
%TO.N,+3.3V*%
X134620000Y-116840000D03*
%TO.P,J1,3,Pin_3*%
%TO.N,GND*%
X137160000Y-116840000D03*
%TD*%
D15*
%TO.P,C4,1*%
%TO.N,+3.3V*%
X119495500Y-96156000D03*
D16*
%TO.P,C4,2*%
%TO.N,GND*%
X119495500Y-114156000D03*
%TD*%
D17*
%TO.P,C3,1*%
%TO.N,VBUS*%
X118508000Y-66432500D03*
D16*
%TO.P,C3,2*%
%TO.N,GND*%
X136508000Y-66432500D03*
%TD*%
D18*
%TO.P,FB1,1*%
%TO.N,VAnalog*%
X145288000Y-70104000D03*
%TO.P,FB1,2*%
%TO.N,+3.3V*%
X140208000Y-70104000D03*
%TD*%
D17*
%TO.P,C10,1*%
%TO.N,+3.3V*%
X118508000Y-72020500D03*
D16*
%TO.P,C10,2*%
%TO.N,GND*%
X136508000Y-72020500D03*
%TD*%
D13*
%TO.P,J2,1,Pin_1*%
%TO.N,/I2CData*%
X173101000Y-116840000D03*
D14*
%TO.P,J2,2,Pin_2*%
%TO.N,/I2CClock*%
X175641000Y-116840000D03*
%TD*%
%TO.P,Y1,1,1*%
%TO.N,Net-(C18-Pad1)*%
X140248000Y-81788000D03*
%TO.P,Y1,2,2*%
%TO.N,/CLCK-*%
X145248000Y-81788000D03*
%TD*%
D13*
%TO.P,J5,1,Pin_1*%
%TO.N,/BAJT1-7*%
X159766000Y-116840000D03*
D14*
%TO.P,J5,2,Pin_2*%
%TO.N,/BAJT1-6*%
X157226000Y-116840000D03*
%TO.P,J5,3,Pin_3*%
%TO.N,/BAJT1-5*%
X154686000Y-116840000D03*
%TO.P,J5,4,Pin_4*%
%TO.N,/BAJT1-4*%
X152146000Y-116840000D03*
%TO.P,J5,5,Pin_5*%
%TO.N,/BAJT1-3*%
X149606000Y-116840000D03*
%TO.P,J5,6,Pin_6*%
%TO.N,/BAJT1-2*%
X147066000Y-116840000D03*
%TO.P,J5,7,Pin_7*%
%TO.N,/BAJT1-1*%
X144526000Y-116840000D03*
%TO.P,J5,8,Pin_8*%
%TO.N,/BAJT1-0*%
X141986000Y-116840000D03*
%TD*%
D13*
%TO.P,J4,1,Pin_1*%
%TO.N,/JTAGCLK*%
X149352000Y-56769000D03*
D14*
%TO.P,J4,2,Pin_2*%
%TO.N,/JTAGO*%
X146812000Y-56769000D03*
%TO.P,J4,3,Pin_3*%
%TO.N,/JTAGI*%
X144272000Y-56769000D03*
%TO.P,J4,4,Pin_4*%
%TO.N,/JTAGMS*%
X141732000Y-56769000D03*
%TD*%
D13*
%TO.P,J7,1,Pin_1*%
%TO.N,/GPIO2*%
X167772000Y-116840000D03*
D14*
%TO.P,J7,2,Pin_2*%
%TO.N,/GPIO1*%
X165232000Y-116840000D03*
%TD*%
D13*
%TO.P,J3,1,Pin_1*%
%TO.N,/TXD*%
X136149000Y-56896000D03*
D14*
%TO.P,J3,2,Pin_2*%
%TO.N,/RXD*%
X133609000Y-56896000D03*
%TD*%
D19*
%TO.N,Net-(AE1-A)*%
X136144000Y-94361000D03*
%TO.N,VBUS*%
X126619000Y-101092000D03*
X125349000Y-89916000D03*
%TO.N,GND*%
X125476000Y-76835000D03*
X149860000Y-106553000D03*
X171831000Y-77597000D03*
X159288543Y-77185457D03*
X167767000Y-75565000D03*
X127381000Y-108966000D03*
X151003000Y-114935000D03*
X124079000Y-105283000D03*
X172313600Y-112979200D03*
X161544000Y-104394000D03*
X116890800Y-63042800D03*
X158292800Y-61925200D03*
X139700000Y-77089000D03*
X168148000Y-95758000D03*
X183134000Y-80518000D03*
X121285000Y-82931000D03*
X160909000Y-110363000D03*
X164338000Y-61772800D03*
X174244000Y-58801000D03*
X146050000Y-114173000D03*
X155651200Y-62687200D03*
X164211000Y-95250000D03*
X178054000Y-89408000D03*
X173355000Y-92964000D03*
X137541000Y-105283000D03*
X137160000Y-87249000D03*
X173482000Y-64262000D03*
X143637000Y-113792000D03*
X178308000Y-56769000D03*
X147320000Y-88773000D03*
X116814600Y-51282600D03*
X133096000Y-98044000D03*
X137668000Y-58674000D03*
X174625000Y-73406000D03*
X148437600Y-58724800D03*
X145796000Y-75184000D03*
X152273000Y-83693000D03*
X161086800Y-58928000D03*
X177673000Y-113538000D03*
X160528000Y-77470000D03*
X152273000Y-60579000D03*
X181229000Y-85598000D03*
X148717000Y-71755000D03*
X122301000Y-117856000D03*
X179959000Y-105664000D03*
X158623000Y-114300000D03*
X181940200Y-121056400D03*
X129540000Y-59842400D03*
X145669000Y-62738000D03*
X148463000Y-114808000D03*
X182524400Y-53390800D03*
X148463000Y-83693000D03*
X183134000Y-115189000D03*
X174879000Y-84582000D03*
X179705000Y-98298000D03*
X127000000Y-83693000D03*
X155956000Y-114046000D03*
X178435000Y-92837000D03*
X157099000Y-80391000D03*
X175412400Y-78486000D03*
X175006000Y-69977000D03*
X167944800Y-89255600D03*
X168148000Y-101346000D03*
X145669000Y-97155000D03*
X153289000Y-114300000D03*
X151892000Y-97790000D03*
X153543000Y-93091000D03*
X139700000Y-112014000D03*
X145846800Y-58775600D03*
X127203200Y-120167400D03*
X178104800Y-76149200D03*
X177165000Y-62865000D03*
X162814000Y-67564000D03*
%TO.N,/I2CClock*%
X171361341Y-109626400D03*
X171361341Y-98082341D03*
%TO.N,/I2CData*%
X169672000Y-109575600D03*
X168783000Y-98477000D03*
%TO.N,/JTAGI*%
X152146000Y-77851000D03*
X153201022Y-80978151D03*
%TO.N,/JTAGMS*%
X152700456Y-81602200D03*
X151403216Y-77553886D03*
%TO.N,/BAJT2-6*%
X154371180Y-77488775D03*
X154305000Y-83380200D03*
%TO.N,/BAJT2-7*%
X153738200Y-77978000D03*
X153504997Y-83380200D03*
%TO.N,/GPIO1*%
X165227000Y-109524800D03*
X161671000Y-98425000D03*
%TO.N,/GPIO2*%
X163449000Y-98425000D03*
X167767000Y-109524800D03*
%TO.N,/IMUData*%
X167640000Y-94742000D03*
X167386000Y-97790000D03*
%TO.N,/IMUClock*%
X166470565Y-96165435D03*
X166908544Y-93060456D03*
%TO.N,/SPI0*%
X177292000Y-67691000D03*
X167767000Y-68216400D03*
%TO.N,/SPI1*%
X169672000Y-62992000D03*
X161544000Y-71188200D03*
X180848000Y-61214000D03*
X173101000Y-60579000D03*
%TO.N,/SPICLK*%
X169037000Y-68216400D03*
X178308000Y-70485000D03*
%TO.N,/FLASH*%
X164338000Y-71882000D03*
X170688000Y-63127088D03*
%TO.N,/SPI2*%
X168529000Y-62611000D03*
X173990000Y-60198000D03*
X178562000Y-60579000D03*
X164211000Y-72898000D03*
%TO.N,/PSRAM*%
X181864000Y-71120000D03*
X183896000Y-68961000D03*
%TO.N,Net-(SW2-B)*%
X157353000Y-103378000D03*
X157775173Y-96307173D03*
%TO.N,/SWT1*%
X165481000Y-80772000D03*
X174371000Y-81661000D03*
%TO.N,/INT2*%
X168783000Y-92202000D03*
X165077673Y-92859327D03*
%TO.N,/INT1*%
X170815000Y-96520000D03*
X168021000Y-96647000D03*
%TO.N,Net-(D6-K)*%
X169164000Y-83439000D03*
X176276000Y-104267000D03*
%TO.N,Net-(D7-K)*%
X169926000Y-82550000D03*
X174879000Y-102616000D03*
%TD*%
D20*
%TO.N,Net-(AE1-A)*%
X135971000Y-94534000D02*
X136144000Y-94361000D01*
X134705000Y-94534000D02*
X135971000Y-94534000D01*
D21*
%TO.N,VBUS*%
X126619000Y-101092000D02*
X126619000Y-91186000D01*
X126619000Y-91186000D02*
X125349000Y-89916000D01*
D20*
%TO.N,/I2CClock*%
X171361341Y-109626400D02*
X171361341Y-98082341D01*
%TO.N,/I2CData*%
X169672000Y-109575600D02*
X169672000Y-99366000D01*
X169672000Y-99366000D02*
X168783000Y-98477000D01*
%TO.N,/JTAGI*%
X153201022Y-80978151D02*
X153153173Y-81026000D01*
X153153173Y-81026000D02*
X152273000Y-81026000D01*
X152273000Y-81026000D02*
X152146000Y-80899000D01*
X152146000Y-80899000D02*
X152146000Y-77851000D01*
%TO.N,/JTAGMS*%
X151706200Y-81602200D02*
X151369884Y-81265884D01*
X151369884Y-77587218D02*
X151403216Y-77553886D01*
X152700456Y-81602200D02*
X151706200Y-81602200D01*
X151369884Y-81265884D02*
X151369884Y-77587218D01*
%TO.N,/BAJT2-6*%
X154371180Y-77488775D02*
X154371180Y-82364596D01*
X154305000Y-82430776D02*
X154371180Y-82364596D01*
X154305000Y-83380200D02*
X154305000Y-82430776D01*
%TO.N,/BAJT2-7*%
X153504997Y-82641720D02*
X153797000Y-82349717D01*
X153738200Y-77978000D02*
X153797000Y-78036800D01*
X153797000Y-78036800D02*
X153797000Y-82349717D01*
X153504997Y-83380200D02*
X153504997Y-82641720D01*
%TO.N,/GPIO1*%
X161671000Y-99822000D02*
X161671000Y-98425000D01*
X165227000Y-103378000D02*
X161671000Y-99822000D01*
X165227000Y-109524800D02*
X165227000Y-103378000D01*
%TO.N,/GPIO2*%
X163449000Y-99568000D02*
X163449000Y-98425000D01*
X167767000Y-109524800D02*
X167767000Y-103886000D01*
X167767000Y-103886000D02*
X163449000Y-99568000D01*
%TO.N,/IMUData*%
X167386000Y-97790000D02*
X167386000Y-94996000D01*
X167386000Y-94996000D02*
X167640000Y-94742000D01*
%TO.N,/IMUClock*%
X166470565Y-93498435D02*
X166470565Y-96165435D01*
X166908544Y-93060456D02*
X166470565Y-93498435D01*
%TO.N,/SPI0*%
X168800400Y-67183000D02*
X171323000Y-67183000D01*
X176784000Y-67183000D02*
X177292000Y-67691000D01*
X167767000Y-68216400D02*
X168800400Y-67183000D01*
X171323000Y-67183000D02*
X176784000Y-67183000D01*
%TO.N,/SPI1*%
X173736000Y-61214000D02*
X173101000Y-60579000D01*
X161544000Y-71188200D02*
X161544000Y-71120000D01*
X180848000Y-61214000D02*
X173736000Y-61214000D01*
X161544000Y-71120000D02*
X169672000Y-62992000D01*
%TO.N,/SPICLK*%
X176022000Y-68199000D02*
X178308000Y-70485000D01*
X169037000Y-68216400D02*
X169054400Y-68199000D01*
X169054400Y-68199000D02*
X175387000Y-68199000D01*
X175387000Y-68199000D02*
X176022000Y-68199000D01*
%TO.N,/FLASH*%
X164338000Y-71882000D02*
X166624000Y-69596000D01*
X166624000Y-69596000D02*
X166624000Y-68707000D01*
X166624000Y-67191088D02*
X170688000Y-63127088D01*
X166624000Y-68707000D02*
X166624000Y-67191088D01*
%TO.N,/SPI2*%
X160528000Y-71374000D02*
X160528000Y-66548000D01*
X168402000Y-62738000D02*
X168529000Y-62611000D01*
X162052000Y-72898000D02*
X160528000Y-71374000D01*
X164211000Y-72898000D02*
X162052000Y-72898000D01*
X160528000Y-66548000D02*
X164338000Y-62738000D01*
X173990000Y-60198000D02*
X178181000Y-60198000D01*
X178181000Y-60198000D02*
X178562000Y-60579000D01*
X164338000Y-62738000D02*
X168402000Y-62738000D01*
%TO.N,/PSRAM*%
X181864000Y-71120000D02*
X183896000Y-69088000D01*
X183896000Y-69088000D02*
X183896000Y-68961000D01*
%TO.N,Net-(SW2-B)*%
X157775173Y-96307173D02*
X157775173Y-102955827D01*
X157775173Y-102955827D02*
X157353000Y-103378000D01*
%TO.N,/SWT1*%
X165481000Y-80772000D02*
X170815000Y-80772000D01*
X171704000Y-81661000D02*
X174371000Y-81661000D01*
X170815000Y-80772000D02*
X171704000Y-81661000D01*
%TO.N,/INT2*%
X165735000Y-92202000D02*
X168783000Y-92202000D01*
X165077673Y-92859327D02*
X165735000Y-92202000D01*
%TO.N,/INT1*%
X170688000Y-96647000D02*
X168021000Y-96647000D01*
X170815000Y-96520000D02*
X170688000Y-96647000D01*
%TO.N,Net-(D6-K)*%
X175768000Y-103759000D02*
X176276000Y-104267000D01*
X173990000Y-88265000D02*
X173990000Y-103251000D01*
X169164000Y-83439000D02*
X173990000Y-88265000D01*
X173990000Y-103251000D02*
X174498000Y-103759000D01*
X174498000Y-103759000D02*
X175768000Y-103759000D01*
%TO.N,Net-(D7-K)*%
X174879000Y-87503000D02*
X169926000Y-82550000D01*
X174879000Y-102616000D02*
X174879000Y-87503000D01*
%TD*%
%TA.AperFunction,Conductor*%
%TO.N,GND*%
G36*
X168158861Y-63324138D02*
G01*
X168223757Y-63351019D01*
X168245801Y-63360150D01*
X168300204Y-63403991D01*
X168322269Y-63470285D01*
X168304990Y-63537985D01*
X168286029Y-63562392D01*
X161486218Y-70362203D01*
X161471898Y-70370370D01*
X161461963Y-70381073D01*
X161434949Y-70391446D01*
X161429375Y-70394626D01*
X161426065Y-70395475D01*
X161310503Y-70418463D01*
X161268043Y-70436049D01*
X161259538Y-70438234D01*
X161233044Y-70437325D01*
X161206682Y-70440160D01*
X161198665Y-70436147D01*
X161189710Y-70435840D01*
X161167913Y-70420752D01*
X161144203Y-70408884D01*
X161139629Y-70401176D01*
X161132260Y-70396075D01*
X161122080Y-70371597D01*
X161108551Y-70348795D01*
X161106800Y-70334857D01*
X161105430Y-70331562D01*
X161105992Y-70328419D01*
X161104700Y-70318130D01*
X161104700Y-66838239D01*
X161124385Y-66771200D01*
X161141019Y-66750558D01*
X164540558Y-63351019D01*
X164601881Y-63317534D01*
X164628239Y-63314700D01*
X168111410Y-63314700D01*
X168158861Y-63324138D01*
G37*
%TD.AperFunction*%
%TA.AperFunction,Conductor*%
G36*
X185243539Y-50304185D02*
G01*
X185289294Y-50356989D01*
X185300500Y-50408500D01*
X185300500Y-123302100D01*
X185280815Y-123369139D01*
X185228011Y-123414894D01*
X185176500Y-123426100D01*
X115661100Y-123426100D01*
X115594061Y-123406415D01*
X115548306Y-123353611D01*
X115537100Y-123302100D01*
X115537100Y-115942135D01*
X130729500Y-115942135D01*
X130729500Y-117737870D01*
X130729501Y-117737876D01*
X130735908Y-117797483D01*
X130786202Y-117932328D01*
X130786206Y-117932335D01*
X130872452Y-118047544D01*
X130872455Y-118047547D01*
X130987664Y-118133793D01*
X130987671Y-118133797D01*
X131122517Y-118184091D01*
X131122516Y-118184091D01*
X131129444Y-118184835D01*
X131182127Y-118190500D01*
X132977872Y-118190499D01*
X133037483Y-118184091D01*
X133172331Y-118133796D01*
X133287546Y-118047546D01*
X133373796Y-117932331D01*
X133422810Y-117800916D01*
X133464681Y-117744984D01*
X133530145Y-117720566D01*
X133598418Y-117735417D01*
X133626673Y-117756569D01*
X133740213Y-117870109D01*
X133912179Y-117995048D01*
X133912181Y-117995049D01*
X133912184Y-117995051D01*
X134101588Y-118091557D01*
X134303757Y-118157246D01*
X134513713Y-118190500D01*
X134513714Y-118190500D01*
X134726286Y-118190500D01*
X134726287Y-118190500D01*
X134936243Y-118157246D01*
X135138412Y-118091557D01*
X135327816Y-117995051D01*
X135414138Y-117932335D01*
X135499786Y-117870109D01*
X135499788Y-117870106D01*
X135499792Y-117870104D01*
X135650104Y-117719792D01*
X135650106Y-117719788D01*
X135650109Y-117719786D01*
X135735890Y-117601717D01*
X135775051Y-117547816D01*
X135779793Y-117538508D01*
X135827763Y-117487711D01*
X135895583Y-117470911D01*
X135961719Y-117493445D01*
X136000763Y-117538500D01*
X136005373Y-117547547D01*
X136044728Y-117601716D01*
X136677037Y-116969408D01*
X136694075Y-117032993D01*
X136759901Y-117147007D01*
X136852993Y-117240099D01*
X136967007Y-117305925D01*
X137030590Y-117322962D01*
X136398282Y-117955269D01*
X136398282Y-117955270D01*
X136452449Y-117994624D01*
X136641782Y-118091095D01*
X136843870Y-118156757D01*
X137053754Y-118190000D01*
X137266246Y-118190000D01*
X137476127Y-118156757D01*
X137476130Y-118156757D01*
X137678217Y-118091095D01*
X137867554Y-117994622D01*
X137921716Y-117955270D01*
X137921717Y-117955270D01*
X137289408Y-117322962D01*
X137352993Y-117305925D01*
X137467007Y-117240099D01*
X137560099Y-117147007D01*
X137625925Y-117032993D01*
X137642962Y-116969408D01*
X138275270Y-117601717D01*
X138275270Y-117601716D01*
X138314622Y-117547554D01*
X138411095Y-117358217D01*
X138476757Y-117156130D01*
X138476757Y-117156127D01*
X138510000Y-116946246D01*
X138510000Y-116733753D01*
X138509994Y-116733713D01*
X140635500Y-116733713D01*
X140635500Y-116946286D01*
X140668753Y-117156239D01*
X140734444Y-117358414D01*
X140830951Y-117547820D01*
X140955890Y-117719786D01*
X141106213Y-117870109D01*
X141278179Y-117995048D01*
X141278181Y-117995049D01*
X141278184Y-117995051D01*
X141467588Y-118091557D01*
X141669757Y-118157246D01*
X141879713Y-118190500D01*
X141879714Y-118190500D01*
X142092286Y-118190500D01*
X142092287Y-118190500D01*
X142302243Y-118157246D01*
X142504412Y-118091557D01*
X142693816Y-117995051D01*
X142780138Y-117932335D01*
X142865786Y-117870109D01*
X142865788Y-117870106D01*
X142865792Y-117870104D01*
X143016104Y-117719792D01*
X143016106Y-117719788D01*
X143016109Y-117719786D01*
X143141048Y-117547820D01*
X143141047Y-117547820D01*
X143141051Y-117547816D01*
X143145514Y-117539054D01*
X143193488Y-117488259D01*
X143261308Y-117471463D01*
X143327444Y-117493999D01*
X143366486Y-117539056D01*
X143370951Y-117547820D01*
X143495890Y-117719786D01*
X143646213Y-117870109D01*
X143818179Y-117995048D01*
X143818181Y-117995049D01*
X143818184Y-117995051D01*
X144007588Y-118091557D01*
X144209757Y-118157246D01*
X144419713Y-118190500D01*
X144419714Y-118190500D01*
X144632286Y-118190500D01*
X144632287Y-118190500D01*
X144842243Y-118157246D01*
X145044412Y-118091557D01*
X145233816Y-117995051D01*
X145320138Y-117932335D01*
X145405786Y-117870109D01*
X145405788Y-117870106D01*
X145405792Y-117870104D01*
X145556104Y-117719792D01*
X145556106Y-117719788D01*
X145556109Y-117719786D01*
X145681048Y-117547820D01*
X145681047Y-117547820D01*
X145681051Y-117547816D01*
X145685514Y-117539054D01*
X145733488Y-117488259D01*
X145801308Y-117471463D01*
X145867444Y-117493999D01*
X145906486Y-117539056D01*
X145910951Y-117547820D01*
X146035890Y-117719786D01*
X146186213Y-117870109D01*
X146358179Y-117995048D01*
X146358181Y-117995049D01*
X146358184Y-117995051D01*
X146547588Y-118091557D01*
X146749757Y-118157246D01*
X146959713Y-118190500D01*
X146959714Y-118190500D01*
X147172286Y-118190500D01*
X147172287Y-118190500D01*
X147382243Y-118157246D01*
X147584412Y-118091557D01*
X147773816Y-117995051D01*
X147860138Y-117932335D01*
X147945786Y-117870109D01*
X147945788Y-117870106D01*
X147945792Y-117870104D01*
X148096104Y-117719792D01*
X148096106Y-117719788D01*
X148096109Y-117719786D01*
X148221048Y-117547820D01*
X148221047Y-117547820D01*
X148221051Y-117547816D01*
X148225514Y-117539054D01*
X148273488Y-117488259D01*
X148341308Y-117471463D01*
X148407444Y-117493999D01*
X148446486Y-117539056D01*
X148450951Y-117547820D01*
X148575890Y-117719786D01*
X148726213Y-117870109D01*
X148898179Y-117995048D01*
X148898181Y-117995049D01*
X148898184Y-117995051D01*
X149087588Y-118091557D01*
X149289757Y-118157246D01*
X149499713Y-118190500D01*
X149499714Y-118190500D01*
X149712286Y-118190500D01*
X149712287Y-118190500D01*
X149922243Y-118157246D01*
X150124412Y-118091557D01*
X150313816Y-117995051D01*
X150400138Y-117932335D01*
X150485786Y-117870109D01*
X150485788Y-117870106D01*
X150485792Y-117870104D01*
X150636104Y-117719792D01*
X150636106Y-117719788D01*
X150636109Y-117719786D01*
X150761048Y-117547820D01*
X150761047Y-117547820D01*
X150761051Y-117547816D01*
X150765514Y-117539054D01*
X150813488Y-117488259D01*
X150881308Y-117471463D01*
X150947444Y-117493999D01*
X150986486Y-117539056D01*
X150990951Y-117547820D01*
X151115890Y-117719786D01*
X151266213Y-117870109D01*
X151438179Y-117995048D01*
X151438181Y-117995049D01*
X151438184Y-117995051D01*
X151627588Y-118091557D01*
X151829757Y-118157246D01*
X152039713Y-118190500D01*
X152039714Y-118190500D01*
X152252286Y-118190500D01*
X152252287Y-118190500D01*
X152462243Y-118157246D01*
X152664412Y-118091557D01*
X152853816Y-117995051D01*
X152940138Y-117932335D01*
X153025786Y-117870109D01*
X153025788Y-117870106D01*
X153025792Y-117870104D01*
X153176104Y-117719792D01*
X153176106Y-117719788D01*
X153176109Y-117719786D01*
X153301048Y-117547820D01*
X153301047Y-117547820D01*
X153301051Y-117547816D01*
X153305514Y-117539054D01*
X153353488Y-117488259D01*
X153421308Y-117471463D01*
X153487444Y-117493999D01*
X153526486Y-117539056D01*
X153530951Y-117547820D01*
X153655890Y-117719786D01*
X153806213Y-117870109D01*
X153978179Y-117995048D01*
X153978181Y-117995049D01*
X153978184Y-117995051D01*
X154167588Y-118091557D01*
X154369757Y-118157246D01*
X154579713Y-118190500D01*
X154579714Y-118190500D01*
X154792286Y-118190500D01*
X154792287Y-118190500D01*
X155002243Y-118157246D01*
X155204412Y-118091557D01*
X155393816Y-117995051D01*
X155480138Y-117932335D01*
X155565786Y-117870109D01*
X155565788Y-117870106D01*
X155565792Y-117870104D01*
X155716104Y-117719792D01*
X155716106Y-117719788D01*
X155716109Y-117719786D01*
X155841048Y-117547820D01*
X155841047Y-117547820D01*
X155841051Y-117547816D01*
X155845514Y-117539054D01*
X155893488Y-117488259D01*
X155961308Y-117471463D01*
X156027444Y-117493999D01*
X156066486Y-117539056D01*
X156070951Y-117547820D01*
X156195890Y-117719786D01*
X156346213Y-117870109D01*
X156518179Y-117995048D01*
X156518181Y-117995049D01*
X156518184Y-117995051D01*
X156707588Y-118091557D01*
X156909757Y-118157246D01*
X157119713Y-118190500D01*
X157119714Y-118190500D01*
X157332286Y-118190500D01*
X157332287Y-118190500D01*
X157542243Y-118157246D01*
X157744412Y-118091557D01*
X157933816Y-117995051D01*
X158105792Y-117870104D01*
X158219329Y-117756566D01*
X158280648Y-117723084D01*
X158350340Y-117728068D01*
X158406274Y-117769939D01*
X158423189Y-117800917D01*
X158472202Y-117932328D01*
X158472206Y-117932335D01*
X158558452Y-118047544D01*
X158558455Y-118047547D01*
X158673664Y-118133793D01*
X158673671Y-118133797D01*
X158808517Y-118184091D01*
X158808516Y-118184091D01*
X158815444Y-118184835D01*
X158868127Y-118190500D01*
X160663872Y-118190499D01*
X160723483Y-118184091D01*
X160858331Y-118133796D01*
X160973546Y-118047546D01*
X161059796Y-117932331D01*
X161110091Y-117797483D01*
X161116500Y-117737873D01*
X161116499Y-116733713D01*
X163881500Y-116733713D01*
X163881500Y-116946286D01*
X163914753Y-117156239D01*
X163980444Y-117358414D01*
X164076951Y-117547820D01*
X164201890Y-117719786D01*
X164352213Y-117870109D01*
X164524179Y-117995048D01*
X164524181Y-117995049D01*
X164524184Y-117995051D01*
X164713588Y-118091557D01*
X164915757Y-118157246D01*
X165125713Y-118190500D01*
X165125714Y-118190500D01*
X165338286Y-118190500D01*
X165338287Y-118190500D01*
X165548243Y-118157246D01*
X165750412Y-118091557D01*
X165939816Y-117995051D01*
X166111792Y-117870104D01*
X166225329Y-117756566D01*
X166286648Y-117723084D01*
X166356340Y-117728068D01*
X166412274Y-117769939D01*
X166429189Y-117800917D01*
X166478202Y-117932328D01*
X166478206Y-117932335D01*
X166564452Y-118047544D01*
X166564455Y-118047547D01*
X166679664Y-118133793D01*
X166679671Y-118133797D01*
X166814517Y-118184091D01*
X166814516Y-118184091D01*
X166821444Y-118184835D01*
X166874127Y-118190500D01*
X168669872Y-118190499D01*
X168729483Y-118184091D01*
X168864331Y-118133796D01*
X168979546Y-118047546D01*
X169065796Y-117932331D01*
X169116091Y-117797483D01*
X169122500Y-117737873D01*
X169122499Y-115942135D01*
X171750500Y-115942135D01*
X171750500Y-117737870D01*
X171750501Y-117737876D01*
X171756908Y-117797483D01*
X171807202Y-117932328D01*
X171807206Y-117932335D01*
X171893452Y-118047544D01*
X171893455Y-118047547D01*
X172008664Y-118133793D01*
X172008671Y-118133797D01*
X172143517Y-118184091D01*
X172143516Y-118184091D01*
X172150444Y-118184835D01*
X172203127Y-118190500D01*
X173998872Y-118190499D01*
X174058483Y-118184091D01*
X174193331Y-118133796D01*
X174308546Y-118047546D01*
X174394796Y-117932331D01*
X174443810Y-117800916D01*
X174485681Y-117744984D01*
X174551145Y-117720566D01*
X174619418Y-117735417D01*
X174647673Y-117756569D01*
X174761213Y-117870109D01*
X174933179Y-117995048D01*
X174933181Y-117995049D01*
X174933184Y-117995051D01*
X175122588Y-118091557D01*
X175324757Y-118157246D01*
X175534713Y-118190500D01*
X175534714Y-118190500D01*
X175747286Y-118190500D01*
X175747287Y-118190500D01*
X175957243Y-118157246D01*
X176159412Y-118091557D01*
X176348816Y-117995051D01*
X176435138Y-117932335D01*
X176520786Y-117870109D01*
X176520788Y-117870106D01*
X176520792Y-117870104D01*
X176671104Y-117719792D01*
X176671106Y-117719788D01*
X176671109Y-117719786D01*
X176796048Y-117547820D01*
X176796047Y-117547820D01*
X176796051Y-117547816D01*
X176892557Y-117358412D01*
X176958246Y-117156243D01*
X176991500Y-116946287D01*
X176991500Y-116733713D01*
X176958246Y-116523757D01*
X176892557Y-116321588D01*
X176796051Y-116132184D01*
X176796049Y-116132181D01*
X176796048Y-116132179D01*
X176671109Y-115960213D01*
X176520786Y-115809890D01*
X176348820Y-115684951D01*
X176159414Y-115588444D01*
X176159413Y-115588443D01*
X176159412Y-115588443D01*
X175957243Y-115522754D01*
X175957241Y-115522753D01*
X175957240Y-115522753D01*
X175795957Y-115497208D01*
X175747287Y-115489500D01*
X175534713Y-115489500D01*
X175486042Y-115497208D01*
X175324760Y-115522753D01*
X175122585Y-115588444D01*
X174933179Y-115684951D01*
X174761215Y-115809889D01*
X174647673Y-115923431D01*
X174586350Y-115956915D01*
X174516658Y-115951931D01*
X174460725Y-115910059D01*
X174443810Y-115879082D01*
X174394797Y-115747671D01*
X174394793Y-115747664D01*
X174308547Y-115632455D01*
X174308544Y-115632452D01*
X174193335Y-115546206D01*
X174193328Y-115546202D01*
X174058482Y-115495908D01*
X174058483Y-115495908D01*
X173998883Y-115489501D01*
X173998881Y-115489500D01*
X173998873Y-115489500D01*
X173998864Y-115489500D01*
X172203129Y-115489500D01*
X172203123Y-115489501D01*
X172143516Y-115495908D01*
X172008671Y-115546202D01*
X172008664Y-115546206D01*
X171893455Y-115632452D01*
X171893452Y-115632455D01*
X171807206Y-115747664D01*
X171807202Y-115747671D01*
X171756908Y-115882517D01*
X171750501Y-115942116D01*
X171750501Y-115942123D01*
X171750500Y-115942135D01*
X169122499Y-115942135D01*
X169122499Y-115942128D01*
X169116091Y-115882517D01*
X169114810Y-115879083D01*
X169065797Y-115747671D01*
X169065793Y-115747664D01*
X168979547Y-115632455D01*
X168979544Y-115632452D01*
X168864335Y-115546206D01*
X168864328Y-115546202D01*
X168729482Y-115495908D01*
X168729483Y-115495908D01*
X168669883Y-115489501D01*
X168669881Y-115489500D01*
X168669873Y-115489500D01*
X168669864Y-115489500D01*
X166874129Y-115489500D01*
X166874123Y-115489501D01*
X166814516Y-115495908D01*
X166679671Y-115546202D01*
X166679664Y-115546206D01*
X166564455Y-115632452D01*
X166564452Y-115632455D01*
X166478206Y-115747664D01*
X166478203Y-115747669D01*
X166429189Y-115879083D01*
X166387317Y-115935016D01*
X166321853Y-115959433D01*
X166253580Y-115944581D01*
X166225326Y-115923430D01*
X166111786Y-115809890D01*
X165939820Y-115684951D01*
X165750414Y-115588444D01*
X165750413Y-115588443D01*
X165750412Y-115588443D01*
X165548243Y-115522754D01*
X165548241Y-115522753D01*
X165548240Y-115522753D01*
X165386957Y-115497208D01*
X165338287Y-115489500D01*
X165125713Y-115489500D01*
X165077042Y-115497208D01*
X164915760Y-115522753D01*
X164713585Y-115588444D01*
X164524179Y-115684951D01*
X164352213Y-115809890D01*
X164201890Y-115960213D01*
X164076951Y-116132179D01*
X163980444Y-116321585D01*
X163914753Y-116523760D01*
X163881500Y-116733713D01*
X161116499Y-116733713D01*
X161116499Y-115942128D01*
X161110091Y-115882517D01*
X161108810Y-115879083D01*
X161059797Y-115747671D01*
X161059793Y-115747664D01*
X160973547Y-115632455D01*
X160973544Y-115632452D01*
X160858335Y-115546206D01*
X160858328Y-115546202D01*
X160723482Y-115495908D01*
X160723483Y-115495908D01*
X160663883Y-115489501D01*
X160663881Y-115489500D01*
X160663873Y-115489500D01*
X160663864Y-115489500D01*
X158868129Y-115489500D01*
X158868123Y-115489501D01*
X158808516Y-115495908D01*
X158673671Y-115546202D01*
X158673664Y-115546206D01*
X158558455Y-115632452D01*
X158558452Y-115632455D01*
X158472206Y-115747664D01*
X158472203Y-115747669D01*
X158423189Y-115879083D01*
X158381317Y-115935016D01*
X158315853Y-115959433D01*
X158247580Y-115944581D01*
X158219326Y-115923430D01*
X158105786Y-115809890D01*
X157933820Y-115684951D01*
X157744414Y-115588444D01*
X157744413Y-115588443D01*
X157744412Y-115588443D01*
X157542243Y-115522754D01*
X157542241Y-115522753D01*
X157542240Y-115522753D01*
X157380957Y-115497208D01*
X157332287Y-115489500D01*
X157119713Y-115489500D01*
X157071042Y-115497208D01*
X156909760Y-115522753D01*
X156707585Y-115588444D01*
X156518179Y-115684951D01*
X156346213Y-115809890D01*
X156195890Y-115960213D01*
X156070949Y-116132182D01*
X156066484Y-116140946D01*
X156018509Y-116191742D01*
X155950688Y-116208536D01*
X155884553Y-116185998D01*
X155845516Y-116140946D01*
X155841050Y-116132182D01*
X155716109Y-115960213D01*
X155565786Y-115809890D01*
X155393820Y-115684951D01*
X155204414Y-115588444D01*
X155204413Y-115588443D01*
X155204412Y-115588443D01*
X155002243Y-115522754D01*
X155002241Y-115522753D01*
X155002240Y-115522753D01*
X154840957Y-115497208D01*
X154792287Y-115489500D01*
X154579713Y-115489500D01*
X154531042Y-115497208D01*
X154369760Y-115522753D01*
X154167585Y-115588444D01*
X153978179Y-115684951D01*
X153806213Y-115809890D01*
X153655890Y-115960213D01*
X153530949Y-116132182D01*
X153526484Y-116140946D01*
X153478509Y-116191742D01*
X153410688Y-116208536D01*
X153344553Y-116185998D01*
X153305516Y-116140946D01*
X153301050Y-116132182D01*
X153176109Y-115960213D01*
X153025786Y-115809890D01*
X152853820Y-115684951D01*
X152664414Y-115588444D01*
X152664413Y-115588443D01*
X152664412Y-115588443D01*
X152462243Y-115522754D01*
X152462241Y-115522753D01*
X152462240Y-115522753D01*
X152300957Y-115497208D01*
X152252287Y-115489500D01*
X152039713Y-115489500D01*
X151991042Y-115497208D01*
X151829760Y-115522753D01*
X151627585Y-115588444D01*
X151438179Y-115684951D01*
X151266213Y-115809890D01*
X151115890Y-115960213D01*
X150990949Y-116132182D01*
X150986484Y-116140946D01*
X150938509Y-116191742D01*
X150870688Y-116208536D01*
X150804553Y-116185998D01*
X150765516Y-116140946D01*
X150761050Y-116132182D01*
X150636109Y-115960213D01*
X150485786Y-115809890D01*
X150313820Y-115684951D01*
X150124414Y-115588444D01*
X150124413Y-115588443D01*
X150124412Y-115588443D01*
X149922243Y-115522754D01*
X149922241Y-115522753D01*
X149922240Y-115522753D01*
X149760957Y-115497208D01*
X149712287Y-115489500D01*
X149499713Y-115489500D01*
X149451042Y-115497208D01*
X149289760Y-115522753D01*
X149087585Y-115588444D01*
X148898179Y-115684951D01*
X148726213Y-115809890D01*
X148575890Y-115960213D01*
X148450949Y-116132182D01*
X148446484Y-116140946D01*
X148398509Y-116191742D01*
X148330688Y-116208536D01*
X148264553Y-116185998D01*
X148225516Y-116140946D01*
X148221050Y-116132182D01*
X148096109Y-115960213D01*
X147945786Y-115809890D01*
X147773820Y-115684951D01*
X147584414Y-115588444D01*
X147584413Y-115588443D01*
X147584412Y-115588443D01*
X147382243Y-115522754D01*
X147382241Y-115522753D01*
X147382240Y-115522753D01*
X147220957Y-115497208D01*
X147172287Y-115489500D01*
X146959713Y-115489500D01*
X146911042Y-115497208D01*
X146749760Y-115522753D01*
X146547585Y-115588444D01*
X146358179Y-115684951D01*
X146186213Y-115809890D01*
X146035890Y-115960213D01*
X145910949Y-116132182D01*
X145906484Y-116140946D01*
X145858509Y-116191742D01*
X145790688Y-116208536D01*
X145724553Y-116185998D01*
X145685516Y-116140946D01*
X145681050Y-116132182D01*
X145556109Y-115960213D01*
X145405786Y-115809890D01*
X145233820Y-115684951D01*
X145044414Y-115588444D01*
X145044413Y-115588443D01*
X145044412Y-115588443D01*
X144842243Y-115522754D01*
X144842241Y-115522753D01*
X144842240Y-115522753D01*
X144680957Y-115497208D01*
X144632287Y-115489500D01*
X144419713Y-115489500D01*
X144371042Y-115497208D01*
X144209760Y-115522753D01*
X144007585Y-115588444D01*
X143818179Y-115684951D01*
X143646213Y-115809890D01*
X143495890Y-115960213D01*
X143370949Y-116132182D01*
X143366484Y-116140946D01*
X143318509Y-116191742D01*
X143250688Y-116208536D01*
X143184553Y-116185998D01*
X143145516Y-116140946D01*
X143141050Y-116132182D01*
X143016109Y-115960213D01*
X142865786Y-115809890D01*
X142693820Y-115684951D01*
X142504414Y-115588444D01*
X142504413Y-115588443D01*
X142504412Y-115588443D01*
X142302243Y-115522754D01*
X142302241Y-115522753D01*
X142302240Y-115522753D01*
X142140957Y-115497208D01*
X142092287Y-115489500D01*
X141879713Y-115489500D01*
X141831042Y-115497208D01*
X141669760Y-115522753D01*
X141467585Y-115588444D01*
X141278179Y-115684951D01*
X141106213Y-115809890D01*
X140955890Y-115960213D01*
X140830951Y-116132179D01*
X140734444Y-116321585D01*
X140668753Y-116523760D01*
X140635500Y-116733713D01*
X138509994Y-116733713D01*
X138476757Y-116523872D01*
X138476757Y-116523869D01*
X138411095Y-116321782D01*
X138314624Y-116132449D01*
X138275270Y-116078282D01*
X138275269Y-116078282D01*
X137642962Y-116710590D01*
X137625925Y-116647007D01*
X137560099Y-116532993D01*
X137467007Y-116439901D01*
X137352993Y-116374075D01*
X137289409Y-116357037D01*
X137921716Y-115724728D01*
X137867550Y-115685375D01*
X137678217Y-115588904D01*
X137476129Y-115523242D01*
X137266246Y-115490000D01*
X137053754Y-115490000D01*
X136843872Y-115523242D01*
X136843869Y-115523242D01*
X136641782Y-115588904D01*
X136452439Y-115685380D01*
X136398282Y-115724727D01*
X136398282Y-115724728D01*
X137030591Y-116357037D01*
X136967007Y-116374075D01*
X136852993Y-116439901D01*
X136759901Y-116532993D01*
X136694075Y-116647007D01*
X136677037Y-116710591D01*
X136044728Y-116078282D01*
X136044727Y-116078282D01*
X136005380Y-116132440D01*
X136005376Y-116132446D01*
X136000760Y-116141505D01*
X135952781Y-116192297D01*
X135884959Y-116209087D01*
X135818826Y-116186543D01*
X135779794Y-116141493D01*
X135775051Y-116132184D01*
X135775049Y-116132181D01*
X135775048Y-116132179D01*
X135650109Y-115960213D01*
X135499786Y-115809890D01*
X135327820Y-115684951D01*
X135138414Y-115588444D01*
X135138413Y-115588443D01*
X135138412Y-115588443D01*
X134936243Y-115522754D01*
X134936241Y-115522753D01*
X134936240Y-115522753D01*
X134774957Y-115497208D01*
X134726287Y-115489500D01*
X134513713Y-115489500D01*
X134465042Y-115497208D01*
X134303760Y-115522753D01*
X134101585Y-115588444D01*
X133912179Y-115684951D01*
X133740215Y-115809889D01*
X133626673Y-115923431D01*
X133565350Y-115956915D01*
X133495658Y-115951931D01*
X133439725Y-115910059D01*
X133422810Y-115879082D01*
X133373797Y-115747671D01*
X133373793Y-115747664D01*
X133287547Y-115632455D01*
X133287544Y-115632452D01*
X133172335Y-115546206D01*
X133172328Y-115546202D01*
X133037482Y-115495908D01*
X133037483Y-115495908D01*
X132977883Y-115489501D01*
X132977881Y-115489500D01*
X132977873Y-115489500D01*
X132977864Y-115489500D01*
X131182129Y-115489500D01*
X131182123Y-115489501D01*
X131122516Y-115495908D01*
X130987671Y-115546202D01*
X130987664Y-115546206D01*
X130872455Y-115632452D01*
X130872452Y-115632455D01*
X130786206Y-115747664D01*
X130786202Y-115747671D01*
X130735908Y-115882517D01*
X130729501Y-115942116D01*
X130729501Y-115942123D01*
X130729500Y-115942135D01*
X115537100Y-115942135D01*
X115537100Y-114044575D01*
X117795500Y-114044575D01*
X117795500Y-114267424D01*
X117824585Y-114488354D01*
X117824588Y-114488367D01*
X117882263Y-114703618D01*
X117967545Y-114909502D01*
X117967554Y-114909520D01*
X118078964Y-115102491D01*
X118078973Y-115102504D01*
X118129540Y-115168403D01*
X118129543Y-115168403D01*
X118930887Y-114367059D01*
X118936389Y-114387591D01*
X119015381Y-114524408D01*
X119127092Y-114636119D01*
X119263909Y-114715111D01*
X119284440Y-114720612D01*
X118483095Y-115521955D01*
X118483095Y-115521956D01*
X118549007Y-115572533D01*
X118741985Y-115683949D01*
X118741997Y-115683954D01*
X118947881Y-115769236D01*
X119163132Y-115826911D01*
X119163145Y-115826914D01*
X119384075Y-115856000D01*
X119606925Y-115856000D01*
X119827854Y-115826914D01*
X119827867Y-115826911D01*
X119857279Y-115819031D01*
X120043118Y-115769236D01*
X120249002Y-115683954D01*
X120249014Y-115683949D01*
X120441998Y-115572530D01*
X120507903Y-115521957D01*
X120507904Y-115521956D01*
X119706559Y-114720612D01*
X119727091Y-114715111D01*
X119863908Y-114636119D01*
X119975619Y-114524408D01*
X120054611Y-114387591D01*
X120060112Y-114367059D01*
X120861456Y-115168404D01*
X120861457Y-115168403D01*
X120912030Y-115102498D01*
X121023449Y-114909514D01*
X121023454Y-114909502D01*
X121108736Y-114703618D01*
X121166411Y-114488367D01*
X121166414Y-114488354D01*
X121195500Y-114267424D01*
X121195500Y-114044575D01*
X121166414Y-113823645D01*
X121166411Y-113823632D01*
X121108736Y-113608381D01*
X121023454Y-113402497D01*
X121023449Y-113402485D01*
X120912033Y-113209507D01*
X120861456Y-113143595D01*
X120861455Y-113143595D01*
X120060112Y-113944939D01*
X120054611Y-113924409D01*
X119975619Y-113787592D01*
X119863908Y-113675881D01*
X119727091Y-113596889D01*
X119706558Y-113591387D01*
X120507903Y-112790043D01*
X120507903Y-112790040D01*
X120442004Y-112739473D01*
X120441991Y-112739464D01*
X120249020Y-112628054D01*
X120249002Y-112628045D01*
X120043118Y-112542763D01*
X119827867Y-112485088D01*
X119827854Y-112485085D01*
X119606925Y-112456000D01*
X119384075Y-112456000D01*
X119163145Y-112485085D01*
X119163132Y-112485088D01*
X118947881Y-112542763D01*
X118741997Y-112628045D01*
X118741979Y-112628054D01*
X118549011Y-112739462D01*
X118483095Y-112790042D01*
X119284441Y-113591387D01*
X119263909Y-113596889D01*
X119127092Y-113675881D01*
X119015381Y-113787592D01*
X118936389Y-113924409D01*
X118930887Y-113944940D01*
X118129542Y-113143595D01*
X118078962Y-113209511D01*
X117967554Y-113402479D01*
X117967545Y-113402497D01*
X117882263Y-113608381D01*
X117824588Y-113823632D01*
X117824585Y-113823645D01*
X117795500Y-114044575D01*
X115537100Y-114044575D01*
X115537100Y-103299153D01*
X156552500Y-103299153D01*
X156552500Y-103456846D01*
X156583261Y-103611489D01*
X156583264Y-103611501D01*
X156643602Y-103757172D01*
X156643609Y-103757185D01*
X156731210Y-103888288D01*
X156731213Y-103888292D01*
X156842707Y-103999786D01*
X156842711Y-103999789D01*
X156973814Y-104087390D01*
X156973827Y-104087397D01*
X157119498Y-104147735D01*
X157119503Y-104147737D01*
X157262791Y-104176239D01*
X157274153Y-104178499D01*
X157274156Y-104178500D01*
X157274158Y-104178500D01*
X157431844Y-104178500D01*
X157431845Y-104178499D01*
X157586497Y-104147737D01*
X157732179Y-104087394D01*
X157863289Y-103999789D01*
X157974789Y-103888289D01*
X158062394Y-103757179D01*
X158122737Y-103611497D01*
X158153500Y-103456842D01*
X158153500Y-103444439D01*
X158173185Y-103377400D01*
X158189819Y-103356758D01*
X158236648Y-103309929D01*
X158312572Y-103178425D01*
X158351873Y-103031751D01*
X158351873Y-102879903D01*
X158351873Y-98346153D01*
X160870500Y-98346153D01*
X160870500Y-98503846D01*
X160901261Y-98658489D01*
X160901264Y-98658501D01*
X160961602Y-98804172D01*
X160961609Y-98804185D01*
X160996351Y-98856179D01*
X161049211Y-98935289D01*
X161057979Y-98944057D01*
X161091465Y-99005377D01*
X161094300Y-99031740D01*
X161094300Y-99746076D01*
X161094300Y-99897924D01*
X161100778Y-99922102D01*
X161133602Y-100044600D01*
X161133602Y-100044601D01*
X161209522Y-100176098D01*
X161209527Y-100176104D01*
X164613981Y-103580558D01*
X164647466Y-103641881D01*
X164650300Y-103668239D01*
X164650300Y-108918059D01*
X164630615Y-108985098D01*
X164613981Y-109005740D01*
X164605213Y-109014507D01*
X164605210Y-109014511D01*
X164517609Y-109145614D01*
X164517602Y-109145627D01*
X164457264Y-109291298D01*
X164457261Y-109291310D01*
X164426500Y-109445953D01*
X164426500Y-109603646D01*
X164457261Y-109758289D01*
X164457264Y-109758301D01*
X164517602Y-109903972D01*
X164517609Y-109903985D01*
X164605210Y-110035088D01*
X164605213Y-110035092D01*
X164716707Y-110146586D01*
X164716711Y-110146589D01*
X164847814Y-110234190D01*
X164847827Y-110234197D01*
X164970454Y-110284990D01*
X164993503Y-110294537D01*
X165148153Y-110325299D01*
X165148156Y-110325300D01*
X165148158Y-110325300D01*
X165305844Y-110325300D01*
X165305845Y-110325299D01*
X165460497Y-110294537D01*
X165606179Y-110234194D01*
X165737289Y-110146589D01*
X165848789Y-110035089D01*
X165936394Y-109903979D01*
X165996737Y-109758297D01*
X166027500Y-109603642D01*
X166027500Y-109445958D01*
X166027500Y-109445955D01*
X166027499Y-109445953D01*
X166016948Y-109392910D01*
X165996737Y-109291303D01*
X165988728Y-109271967D01*
X165936397Y-109145627D01*
X165936390Y-109145614D01*
X165848789Y-109014511D01*
X165848786Y-109014507D01*
X165840019Y-109005740D01*
X165806534Y-108944417D01*
X165803700Y-108918059D01*
X165803700Y-103302078D01*
X165803700Y-103302076D01*
X165764399Y-103155402D01*
X165758110Y-103144510D01*
X165688477Y-103023901D01*
X165688472Y-103023895D01*
X162284019Y-99619442D01*
X162250534Y-99558119D01*
X162247700Y-99531761D01*
X162247700Y-99031740D01*
X162267385Y-98964701D01*
X162284017Y-98944060D01*
X162292789Y-98935289D01*
X162380394Y-98804179D01*
X162440737Y-98658497D01*
X162440739Y-98658489D01*
X162441340Y-98656510D01*
X162441938Y-98655596D01*
X162443068Y-98652870D01*
X162443585Y-98653084D01*
X162479637Y-98598072D01*
X162543450Y-98569615D01*
X162612517Y-98580176D01*
X162664910Y-98626401D01*
X162678660Y-98656510D01*
X162679262Y-98658497D01*
X162739602Y-98804172D01*
X162739609Y-98804185D01*
X162774351Y-98856179D01*
X162827211Y-98935289D01*
X162835979Y-98944057D01*
X162869465Y-99005377D01*
X162872300Y-99031740D01*
X162872300Y-99492076D01*
X162872300Y-99643924D01*
X162899671Y-99746076D01*
X162911602Y-99790600D01*
X162911602Y-99790601D01*
X162987522Y-99922098D01*
X162987527Y-99922104D01*
X167153981Y-104088558D01*
X167187466Y-104149881D01*
X167190300Y-104176239D01*
X167190300Y-108918059D01*
X167170615Y-108985098D01*
X167153981Y-109005740D01*
X167145213Y-109014507D01*
X167145210Y-109014511D01*
X167057609Y-109145614D01*
X167057602Y-109145627D01*
X166997264Y-109291298D01*
X166997261Y-109291310D01*
X166966500Y-109445953D01*
X166966500Y-109603646D01*
X166997261Y-109758289D01*
X166997264Y-109758301D01*
X167057602Y-109903972D01*
X167057609Y-109903985D01*
X167145210Y-110035088D01*
X167145213Y-110035092D01*
X167256707Y-110146586D01*
X167256711Y-110146589D01*
X167387814Y-110234190D01*
X167387827Y-110234197D01*
X167510454Y-110284990D01*
X167533503Y-110294537D01*
X167688153Y-110325299D01*
X167688156Y-110325300D01*
X167688158Y-110325300D01*
X167845844Y-110325300D01*
X167845845Y-110325299D01*
X168000497Y-110294537D01*
X168146179Y-110234194D01*
X168277289Y-110146589D01*
X168388789Y-110035089D01*
X168476394Y-109903979D01*
X168536737Y-109758297D01*
X168567500Y-109603642D01*
X168567500Y-109445958D01*
X168567500Y-109445955D01*
X168567499Y-109445953D01*
X168556948Y-109392910D01*
X168536737Y-109291303D01*
X168528728Y-109271967D01*
X168476397Y-109145627D01*
X168476390Y-109145614D01*
X168388789Y-109014511D01*
X168388786Y-109014507D01*
X168380019Y-109005740D01*
X168346534Y-108944417D01*
X168343700Y-108918059D01*
X168343700Y-103810078D01*
X168343700Y-103810076D01*
X168304399Y-103663402D01*
X168293896Y-103645211D01*
X168228477Y-103531901D01*
X168228472Y-103531895D01*
X164062019Y-99365442D01*
X164047315Y-99338514D01*
X164030723Y-99312696D01*
X164029831Y-99306495D01*
X164028534Y-99304119D01*
X164025700Y-99277761D01*
X164025700Y-99031740D01*
X164045385Y-98964701D01*
X164062017Y-98944060D01*
X164070789Y-98935289D01*
X164158394Y-98804179D01*
X164218737Y-98658497D01*
X164249500Y-98503842D01*
X164249500Y-98346158D01*
X164249500Y-98346155D01*
X164249499Y-98346153D01*
X164243467Y-98315830D01*
X164218737Y-98191503D01*
X164206178Y-98161183D01*
X164158397Y-98045827D01*
X164158390Y-98045814D01*
X164070789Y-97914711D01*
X164070786Y-97914707D01*
X163959292Y-97803213D01*
X163959288Y-97803210D01*
X163828185Y-97715609D01*
X163828172Y-97715602D01*
X163682501Y-97655264D01*
X163682489Y-97655261D01*
X163527845Y-97624500D01*
X163527842Y-97624500D01*
X163370158Y-97624500D01*
X163370155Y-97624500D01*
X163215510Y-97655261D01*
X163215498Y-97655264D01*
X163069827Y-97715602D01*
X163069814Y-97715609D01*
X162938711Y-97803210D01*
X162938707Y-97803213D01*
X162827213Y-97914707D01*
X162827210Y-97914711D01*
X162739609Y-98045814D01*
X162739602Y-98045827D01*
X162679262Y-98191503D01*
X162678659Y-98193493D01*
X162678059Y-98194407D01*
X162676932Y-98197130D01*
X162676415Y-98196916D01*
X162640359Y-98251930D01*
X162576546Y-98280384D01*
X162507479Y-98269821D01*
X162455088Y-98223595D01*
X162441341Y-98193493D01*
X162440737Y-98191503D01*
X162380397Y-98045827D01*
X162380390Y-98045814D01*
X162292789Y-97914711D01*
X162292786Y-97914707D01*
X162181292Y-97803213D01*
X162181288Y-97803210D01*
X162050185Y-97715609D01*
X162050172Y-97715602D01*
X161904501Y-97655264D01*
X161904489Y-97655261D01*
X161749845Y-97624500D01*
X161749842Y-97624500D01*
X161592158Y-97624500D01*
X161592155Y-97624500D01*
X161437510Y-97655261D01*
X161437498Y-97655264D01*
X161291827Y-97715602D01*
X161291814Y-97715609D01*
X161160711Y-97803210D01*
X161160707Y-97803213D01*
X161049213Y-97914707D01*
X161049210Y-97914711D01*
X160961609Y-98045814D01*
X160961602Y-98045827D01*
X160901264Y-98191498D01*
X160901261Y-98191510D01*
X160870500Y-98346153D01*
X158351873Y-98346153D01*
X158351873Y-96913913D01*
X158371558Y-96846874D01*
X158388190Y-96826233D01*
X158396962Y-96817462D01*
X158484567Y-96686352D01*
X158544910Y-96540670D01*
X158575673Y-96386015D01*
X158575673Y-96228331D01*
X158575673Y-96228328D01*
X158575672Y-96228326D01*
X158558266Y-96140821D01*
X158544910Y-96073676D01*
X158524836Y-96025213D01*
X158484570Y-95928000D01*
X158484563Y-95927987D01*
X158396962Y-95796884D01*
X158396959Y-95796880D01*
X158285465Y-95685386D01*
X158285461Y-95685383D01*
X158154358Y-95597782D01*
X158154345Y-95597775D01*
X158008674Y-95537437D01*
X158008662Y-95537434D01*
X157854018Y-95506673D01*
X157854015Y-95506673D01*
X157696331Y-95506673D01*
X157696328Y-95506673D01*
X157541683Y-95537434D01*
X157541671Y-95537437D01*
X157396000Y-95597775D01*
X157395987Y-95597782D01*
X157264884Y-95685383D01*
X157264880Y-95685386D01*
X157153386Y-95796880D01*
X157153383Y-95796884D01*
X157065782Y-95927987D01*
X157065775Y-95928000D01*
X157005437Y-96073671D01*
X157005434Y-96073683D01*
X156974673Y-96228326D01*
X156974673Y-96386019D01*
X157005434Y-96540662D01*
X157005437Y-96540674D01*
X157065775Y-96686345D01*
X157065782Y-96686358D01*
X157152989Y-96816872D01*
X157153384Y-96817462D01*
X157162152Y-96826230D01*
X157195638Y-96887550D01*
X157198473Y-96913913D01*
X157198473Y-102492698D01*
X157178788Y-102559737D01*
X157125984Y-102605492D01*
X157121926Y-102607259D01*
X156973823Y-102668604D01*
X156973814Y-102668609D01*
X156842711Y-102756210D01*
X156842707Y-102756213D01*
X156731213Y-102867707D01*
X156731210Y-102867711D01*
X156643609Y-102998814D01*
X156643602Y-102998827D01*
X156583264Y-103144498D01*
X156583261Y-103144510D01*
X156552500Y-103299153D01*
X115537100Y-103299153D01*
X115537100Y-95155984D01*
X117795000Y-95155984D01*
X117795000Y-97156015D01*
X117805500Y-97258795D01*
X117805501Y-97258796D01*
X117860686Y-97425335D01*
X117860687Y-97425337D01*
X117952786Y-97574651D01*
X117952789Y-97574655D01*
X118076844Y-97698710D01*
X118076848Y-97698713D01*
X118226162Y-97790812D01*
X118226164Y-97790813D01*
X118226166Y-97790814D01*
X118392703Y-97845999D01*
X118495492Y-97856500D01*
X118495497Y-97856500D01*
X120495503Y-97856500D01*
X120495508Y-97856500D01*
X120598297Y-97845999D01*
X120764834Y-97790814D01*
X120914155Y-97698711D01*
X121038211Y-97574655D01*
X121130314Y-97425334D01*
X121185499Y-97258797D01*
X121196000Y-97156008D01*
X121196000Y-95155992D01*
X121185499Y-95053203D01*
X121130314Y-94886666D01*
X121120831Y-94871292D01*
X121038213Y-94737348D01*
X121038210Y-94737344D01*
X120914155Y-94613289D01*
X120914151Y-94613286D01*
X120764837Y-94521187D01*
X120764835Y-94521186D01*
X120681565Y-94493593D01*
X120598297Y-94466001D01*
X120598295Y-94466000D01*
X120495515Y-94455500D01*
X120495508Y-94455500D01*
X118495492Y-94455500D01*
X118495484Y-94455500D01*
X118392704Y-94466000D01*
X118392703Y-94466001D01*
X118226164Y-94521186D01*
X118226162Y-94521187D01*
X118076848Y-94613286D01*
X118076844Y-94613289D01*
X117952789Y-94737344D01*
X117952786Y-94737348D01*
X117860687Y-94886662D01*
X117860686Y-94886664D01*
X117805501Y-95053203D01*
X117805500Y-95053204D01*
X117795000Y-95155984D01*
X115537100Y-95155984D01*
X115537100Y-89837153D01*
X124548500Y-89837153D01*
X124548500Y-89994846D01*
X124579261Y-90149489D01*
X124579264Y-90149501D01*
X124639602Y-90295172D01*
X124639609Y-90295185D01*
X124727210Y-90426288D01*
X124727213Y-90426292D01*
X124838710Y-90537789D01*
X124931725Y-90599939D01*
X124969821Y-90625394D01*
X124983759Y-90631167D01*
X124983819Y-90631192D01*
X125024047Y-90658072D01*
X125828181Y-91462205D01*
X125861666Y-91523528D01*
X125864500Y-91549886D01*
X125864500Y-100797053D01*
X125855062Y-100844501D01*
X125849263Y-100858503D01*
X125849262Y-100858506D01*
X125849260Y-100858511D01*
X125818500Y-101013153D01*
X125818500Y-101170846D01*
X125849261Y-101325489D01*
X125849264Y-101325501D01*
X125909602Y-101471172D01*
X125909609Y-101471185D01*
X125997210Y-101602288D01*
X125997213Y-101602292D01*
X126108707Y-101713786D01*
X126108711Y-101713789D01*
X126239814Y-101801390D01*
X126239827Y-101801397D01*
X126385498Y-101861735D01*
X126385503Y-101861737D01*
X126540153Y-101892499D01*
X126540156Y-101892500D01*
X126540158Y-101892500D01*
X126697844Y-101892500D01*
X126697845Y-101892499D01*
X126852497Y-101861737D01*
X126998179Y-101801394D01*
X127129289Y-101713789D01*
X127240789Y-101602289D01*
X127328394Y-101471179D01*
X127388737Y-101325497D01*
X127419500Y-101170842D01*
X127419500Y-101013158D01*
X127419500Y-101013155D01*
X127419499Y-101013153D01*
X127388739Y-100858511D01*
X127388738Y-100858508D01*
X127388737Y-100858503D01*
X127382937Y-100844501D01*
X127373500Y-100797053D01*
X127373500Y-95631000D01*
X129108200Y-95631000D01*
X134391400Y-95681800D01*
X134391400Y-95681799D01*
X134391400Y-95608499D01*
X134411085Y-95541460D01*
X134463889Y-95495705D01*
X134515396Y-95484499D01*
X135002872Y-95484499D01*
X135062483Y-95478091D01*
X135197331Y-95427796D01*
X135312546Y-95341546D01*
X135398796Y-95226331D01*
X135411838Y-95191365D01*
X135453710Y-95135432D01*
X135519175Y-95111016D01*
X135528019Y-95110700D01*
X135837465Y-95110700D01*
X135884916Y-95120138D01*
X135910503Y-95130737D01*
X135910506Y-95130737D01*
X135910511Y-95130739D01*
X136065153Y-95161499D01*
X136065156Y-95161500D01*
X136065158Y-95161500D01*
X136222844Y-95161500D01*
X136222845Y-95161499D01*
X136377497Y-95130737D01*
X136523179Y-95070394D01*
X136654289Y-94982789D01*
X136765789Y-94871289D01*
X136853394Y-94740179D01*
X136913737Y-94594497D01*
X136944500Y-94439842D01*
X136944500Y-94282158D01*
X136944500Y-94282155D01*
X136944499Y-94282153D01*
X136934465Y-94231711D01*
X136913737Y-94127503D01*
X136874428Y-94032602D01*
X136853397Y-93981827D01*
X136853390Y-93981814D01*
X136765789Y-93850711D01*
X136765786Y-93850707D01*
X136654292Y-93739213D01*
X136654288Y-93739210D01*
X136523185Y-93651609D01*
X136523172Y-93651602D01*
X136377501Y-93591264D01*
X136377489Y-93591261D01*
X136222845Y-93560500D01*
X136222842Y-93560500D01*
X136065158Y-93560500D01*
X136065155Y-93560500D01*
X135910510Y-93591261D01*
X135910498Y-93591264D01*
X135764827Y-93651602D01*
X135764814Y-93651609D01*
X135633711Y-93739210D01*
X135556691Y-93816230D01*
X135495367Y-93849714D01*
X135425676Y-93844729D01*
X135369744Y-93802860D01*
X135343225Y-93767436D01*
X135312546Y-93726454D01*
X135312544Y-93726453D01*
X135312544Y-93726452D01*
X135197335Y-93640206D01*
X135197328Y-93640202D01*
X135062486Y-93589910D01*
X135062485Y-93589909D01*
X135062483Y-93589909D01*
X135002873Y-93583500D01*
X135002864Y-93583500D01*
X134515400Y-93583500D01*
X134448361Y-93563815D01*
X134402606Y-93511011D01*
X134391400Y-93459500D01*
X134391400Y-92780480D01*
X164277173Y-92780480D01*
X164277173Y-92938173D01*
X164307934Y-93092816D01*
X164307937Y-93092828D01*
X164368275Y-93238499D01*
X164368282Y-93238512D01*
X164455883Y-93369615D01*
X164455886Y-93369619D01*
X164567380Y-93481113D01*
X164567384Y-93481116D01*
X164698487Y-93568717D01*
X164698500Y-93568724D01*
X164844171Y-93629062D01*
X164844176Y-93629064D01*
X164957502Y-93651606D01*
X164998826Y-93659826D01*
X164998829Y-93659827D01*
X164998831Y-93659827D01*
X165156517Y-93659827D01*
X165156518Y-93659826D01*
X165311170Y-93629064D01*
X165423839Y-93582394D01*
X165456845Y-93568724D01*
X165456845Y-93568723D01*
X165456852Y-93568721D01*
X165587962Y-93481116D01*
X165629450Y-93439628D01*
X165682184Y-93386895D01*
X165743507Y-93353410D01*
X165813199Y-93358394D01*
X165869132Y-93400266D01*
X165893549Y-93465730D01*
X165893865Y-93474576D01*
X165893865Y-95558694D01*
X165874180Y-95625733D01*
X165857546Y-95646375D01*
X165848778Y-95655142D01*
X165848775Y-95655146D01*
X165761174Y-95786249D01*
X165761167Y-95786262D01*
X165700829Y-95931933D01*
X165700826Y-95931945D01*
X165670065Y-96086588D01*
X165670065Y-96244281D01*
X165700826Y-96398924D01*
X165700829Y-96398936D01*
X165761167Y-96544607D01*
X165761174Y-96544620D01*
X165848775Y-96675723D01*
X165848778Y-96675727D01*
X165960272Y-96787221D01*
X165960276Y-96787224D01*
X166091379Y-96874825D01*
X166091392Y-96874832D01*
X166237063Y-96935170D01*
X166237068Y-96935172D01*
X166376299Y-96962867D01*
X166391718Y-96965934D01*
X166391721Y-96965935D01*
X166391723Y-96965935D01*
X166549409Y-96965935D01*
X166651672Y-96945593D01*
X166661108Y-96943716D01*
X166682092Y-96945593D01*
X166702947Y-96942595D01*
X166716194Y-96948645D01*
X166730700Y-96949943D01*
X166747337Y-96962867D01*
X166766503Y-96971620D01*
X166774377Y-96983872D01*
X166785877Y-96992806D01*
X166792885Y-97012672D01*
X166804277Y-97030398D01*
X166807811Y-97054980D01*
X166809122Y-97058695D01*
X166809300Y-97065333D01*
X166809300Y-97183259D01*
X166789615Y-97250298D01*
X166772981Y-97270940D01*
X166764213Y-97279707D01*
X166764210Y-97279711D01*
X166676609Y-97410814D01*
X166676602Y-97410827D01*
X166616264Y-97556498D01*
X166616261Y-97556510D01*
X166585500Y-97711153D01*
X166585500Y-97868846D01*
X166616261Y-98023489D01*
X166616264Y-98023501D01*
X166676602Y-98169172D01*
X166676609Y-98169185D01*
X166764210Y-98300288D01*
X166764213Y-98300292D01*
X166875707Y-98411786D01*
X166875711Y-98411789D01*
X167006814Y-98499390D01*
X167006827Y-98499397D01*
X167152498Y-98559735D01*
X167152503Y-98559737D01*
X167307153Y-98590499D01*
X167307156Y-98590500D01*
X167307158Y-98590500D01*
X167464844Y-98590500D01*
X167464845Y-98590499D01*
X167619497Y-98559737D01*
X167754436Y-98503844D01*
X167765172Y-98499397D01*
X167765172Y-98499396D01*
X167765179Y-98499394D01*
X167792787Y-98480947D01*
X167859463Y-98460067D01*
X167926844Y-98478550D01*
X167973536Y-98530527D01*
X167983297Y-98559855D01*
X168013261Y-98710491D01*
X168013264Y-98710501D01*
X168073602Y-98856172D01*
X168073609Y-98856185D01*
X168161210Y-98987288D01*
X168161213Y-98987292D01*
X168272707Y-99098786D01*
X168272711Y-99098789D01*
X168403814Y-99186390D01*
X168403827Y-99186397D01*
X168549498Y-99246735D01*
X168549503Y-99246737D01*
X168704153Y-99277499D01*
X168704156Y-99277500D01*
X168704158Y-99277500D01*
X168716561Y-99277500D01*
X168783600Y-99297185D01*
X168804242Y-99313819D01*
X169058981Y-99568558D01*
X169092466Y-99629881D01*
X169095300Y-99656239D01*
X169095300Y-108968859D01*
X169075615Y-109035898D01*
X169058981Y-109056540D01*
X169050213Y-109065307D01*
X169050210Y-109065311D01*
X168962609Y-109196414D01*
X168962602Y-109196427D01*
X168902264Y-109342098D01*
X168902261Y-109342110D01*
X168871500Y-109496753D01*
X168871500Y-109654446D01*
X168902261Y-109809089D01*
X168902264Y-109809101D01*
X168962602Y-109954772D01*
X168962609Y-109954785D01*
X169050210Y-110085888D01*
X169050213Y-110085892D01*
X169161707Y-110197386D01*
X169161711Y-110197389D01*
X169292814Y-110284990D01*
X169292827Y-110284997D01*
X169390129Y-110325300D01*
X169438503Y-110345337D01*
X169555373Y-110368584D01*
X169593153Y-110376099D01*
X169593156Y-110376100D01*
X169593158Y-110376100D01*
X169750844Y-110376100D01*
X169750845Y-110376099D01*
X169905497Y-110345337D01*
X170051179Y-110284994D01*
X170182289Y-110197389D01*
X170293789Y-110085889D01*
X170381394Y-109954779D01*
X170391589Y-109930167D01*
X170435427Y-109875765D01*
X170501720Y-109853699D01*
X170569420Y-109870977D01*
X170617032Y-109922113D01*
X170620710Y-109930167D01*
X170651945Y-110005575D01*
X170651950Y-110005585D01*
X170739551Y-110136688D01*
X170739554Y-110136692D01*
X170851048Y-110248186D01*
X170851052Y-110248189D01*
X170982155Y-110335790D01*
X170982168Y-110335797D01*
X171079470Y-110376100D01*
X171127844Y-110396137D01*
X171282494Y-110426899D01*
X171282497Y-110426900D01*
X171282499Y-110426900D01*
X171440185Y-110426900D01*
X171440186Y-110426899D01*
X171594838Y-110396137D01*
X171740520Y-110335794D01*
X171871630Y-110248189D01*
X171871633Y-110248186D01*
X171879832Y-110239988D01*
X171983127Y-110136692D01*
X171983130Y-110136689D01*
X172070735Y-110005579D01*
X172130621Y-109861000D01*
X177420157Y-109861000D01*
X178274013Y-109861000D01*
X178256796Y-109870940D01*
X178200941Y-109926795D01*
X178161445Y-109995204D01*
X178141001Y-110071504D01*
X178141001Y-110150496D01*
X178161445Y-110226796D01*
X178200941Y-110295205D01*
X178256796Y-110351060D01*
X178274013Y-110361000D01*
X177420157Y-110361000D01*
X177431350Y-110417274D01*
X177431351Y-110417276D01*
X177510500Y-110608358D01*
X177510505Y-110608368D01*
X177625410Y-110780335D01*
X177625413Y-110780339D01*
X177771660Y-110926586D01*
X177771664Y-110926589D01*
X177943631Y-111041494D01*
X177943641Y-111041499D01*
X178134725Y-111120649D01*
X178134733Y-111120651D01*
X178337579Y-111160999D01*
X178337583Y-111161000D01*
X178641000Y-111161000D01*
X178641000Y-110411000D01*
X179141000Y-110411000D01*
X179141000Y-111161000D01*
X179444417Y-111161000D01*
X179444420Y-111160999D01*
X179647266Y-111120651D01*
X179647274Y-111120649D01*
X179838358Y-111041499D01*
X179838368Y-111041494D01*
X180010335Y-110926589D01*
X180010339Y-110926586D01*
X180156586Y-110780339D01*
X180156589Y-110780335D01*
X180271494Y-110608368D01*
X180271499Y-110608358D01*
X180350648Y-110417276D01*
X180350649Y-110417274D01*
X180361843Y-110361000D01*
X179507987Y-110361000D01*
X179525204Y-110351060D01*
X179581059Y-110295205D01*
X179620555Y-110226796D01*
X179640999Y-110150496D01*
X179640999Y-110071504D01*
X179620555Y-109995204D01*
X179581059Y-109926795D01*
X179525204Y-109870940D01*
X179507987Y-109861000D01*
X180361843Y-109861000D01*
X180361843Y-109860999D01*
X181726884Y-109860999D01*
X181726885Y-109861000D01*
X182634013Y-109861000D01*
X182616796Y-109870940D01*
X182560941Y-109926795D01*
X182521445Y-109995204D01*
X182501001Y-110071504D01*
X182501001Y-110150496D01*
X182521445Y-110226796D01*
X182560941Y-110295205D01*
X182616796Y-110351060D01*
X182634013Y-110361000D01*
X181726885Y-110361000D01*
X181728085Y-110368584D01*
X181781591Y-110533255D01*
X181860195Y-110687524D01*
X181961967Y-110827602D01*
X182084397Y-110950032D01*
X182224475Y-111051804D01*
X182378742Y-111130408D01*
X182543415Y-111183914D01*
X182714429Y-111211000D01*
X182851000Y-111211000D01*
X182851000Y-110411000D01*
X183351000Y-110411000D01*
X183351000Y-111211000D01*
X183487571Y-111211000D01*
X183658584Y-111183914D01*
X183823257Y-111130408D01*
X183977524Y-111051804D01*
X184117602Y-110950032D01*
X184240032Y-110827602D01*
X184341804Y-110687524D01*
X184420408Y-110533255D01*
X184473914Y-110368584D01*
X184475115Y-110361000D01*
X183567987Y-110361000D01*
X183585204Y-110351060D01*
X183641059Y-110295205D01*
X183680555Y-110226796D01*
X183700999Y-110150496D01*
X183700999Y-110071504D01*
X183680555Y-109995204D01*
X183641059Y-109926795D01*
X183585204Y-109870940D01*
X183567987Y-109861000D01*
X184475115Y-109861000D01*
X184475115Y-109860999D01*
X184473914Y-109853415D01*
X184420408Y-109688744D01*
X184341804Y-109534475D01*
X184240032Y-109394397D01*
X184117602Y-109271967D01*
X183977524Y-109170195D01*
X183823257Y-109091591D01*
X183658584Y-109038085D01*
X183487571Y-109011000D01*
X183351000Y-109011000D01*
X183351000Y-109811000D01*
X182851000Y-109811000D01*
X182851000Y-109011000D01*
X182714429Y-109011000D01*
X182543415Y-109038085D01*
X182378742Y-109091591D01*
X182224475Y-109170195D01*
X182084397Y-109271967D01*
X181961967Y-109394397D01*
X181860195Y-109534475D01*
X181781591Y-109688744D01*
X181728085Y-109853415D01*
X181726884Y-109860999D01*
X180361843Y-109860999D01*
X180350649Y-109804725D01*
X180350648Y-109804723D01*
X180271499Y-109613641D01*
X180271494Y-109613631D01*
X180156589Y-109441664D01*
X180156586Y-109441660D01*
X180010339Y-109295413D01*
X180010335Y-109295410D01*
X179838368Y-109180505D01*
X179838358Y-109180500D01*
X179647274Y-109101350D01*
X179647266Y-109101348D01*
X179444420Y-109061000D01*
X179141000Y-109061000D01*
X179141000Y-109811000D01*
X178641000Y-109811000D01*
X178641000Y-109061000D01*
X178337579Y-109061000D01*
X178134733Y-109101348D01*
X178134725Y-109101350D01*
X177943641Y-109180500D01*
X177943631Y-109180505D01*
X177771664Y-109295410D01*
X177771660Y-109295413D01*
X177625413Y-109441660D01*
X177625410Y-109441664D01*
X177510505Y-109613631D01*
X177510500Y-109613641D01*
X177431351Y-109804723D01*
X177431350Y-109804725D01*
X177420157Y-109861000D01*
X172130621Y-109861000D01*
X172131078Y-109859897D01*
X172161841Y-109705242D01*
X172161841Y-109547558D01*
X172161841Y-109547555D01*
X172161840Y-109547553D01*
X172131079Y-109392910D01*
X172131078Y-109392903D01*
X172112603Y-109348300D01*
X172070738Y-109247227D01*
X172070731Y-109247214D01*
X171983130Y-109116111D01*
X171983127Y-109116107D01*
X171974360Y-109107340D01*
X171940875Y-109046017D01*
X171938041Y-109019659D01*
X171938041Y-98689081D01*
X171957726Y-98622042D01*
X171974358Y-98601401D01*
X171983130Y-98592630D01*
X172070735Y-98461520D01*
X172131078Y-98315838D01*
X172161841Y-98161183D01*
X172161841Y-98003499D01*
X172161841Y-98003496D01*
X172161840Y-98003494D01*
X172154523Y-97966711D01*
X172131078Y-97848844D01*
X172112177Y-97803213D01*
X172070738Y-97703168D01*
X172070731Y-97703155D01*
X171983130Y-97572052D01*
X171983127Y-97572048D01*
X171871633Y-97460554D01*
X171871629Y-97460551D01*
X171740526Y-97372950D01*
X171740513Y-97372943D01*
X171594842Y-97312605D01*
X171594832Y-97312602D01*
X171455065Y-97284800D01*
X171393154Y-97252415D01*
X171358580Y-97191699D01*
X171362321Y-97121929D01*
X171391577Y-97075501D01*
X171436786Y-97030292D01*
X171436789Y-97030289D01*
X171524394Y-96899179D01*
X171584737Y-96753497D01*
X171615500Y-96598842D01*
X171615500Y-96441158D01*
X171615500Y-96441155D01*
X171615499Y-96441153D01*
X171584738Y-96286510D01*
X171584737Y-96286503D01*
X171560642Y-96228331D01*
X171524397Y-96140827D01*
X171524390Y-96140814D01*
X171436789Y-96009711D01*
X171436786Y-96009707D01*
X171325292Y-95898213D01*
X171325288Y-95898210D01*
X171194185Y-95810609D01*
X171194172Y-95810602D01*
X171048501Y-95750264D01*
X171048489Y-95750261D01*
X170893845Y-95719500D01*
X170893842Y-95719500D01*
X170736158Y-95719500D01*
X170736155Y-95719500D01*
X170581510Y-95750261D01*
X170581498Y-95750264D01*
X170435827Y-95810602D01*
X170435814Y-95810609D01*
X170304711Y-95898210D01*
X170304707Y-95898213D01*
X170193213Y-96009707D01*
X170193210Y-96009711D01*
X170189549Y-96015191D01*
X170135937Y-96059996D01*
X170086447Y-96070300D01*
X168627741Y-96070300D01*
X168560702Y-96050615D01*
X168540060Y-96033981D01*
X168531292Y-96025213D01*
X168531288Y-96025210D01*
X168400185Y-95937609D01*
X168400172Y-95937602D01*
X168254501Y-95877264D01*
X168254489Y-95877261D01*
X168099845Y-95846500D01*
X168099842Y-95846500D01*
X168086700Y-95846500D01*
X168078014Y-95843949D01*
X168069053Y-95845238D01*
X168045012Y-95834259D01*
X168019661Y-95826815D01*
X168013733Y-95819974D01*
X168005497Y-95816213D01*
X167991207Y-95793978D01*
X167973906Y-95774011D01*
X167971618Y-95763496D01*
X167967723Y-95757435D01*
X167962700Y-95722500D01*
X167962700Y-95555412D01*
X167982385Y-95488373D01*
X168017809Y-95452310D01*
X168080168Y-95410642D01*
X168150289Y-95363789D01*
X168261789Y-95252289D01*
X168349394Y-95121179D01*
X168409737Y-94975497D01*
X168440500Y-94820842D01*
X168440500Y-94663158D01*
X168440500Y-94663155D01*
X168440499Y-94663153D01*
X168412260Y-94521187D01*
X168409737Y-94508503D01*
X168381297Y-94439842D01*
X168349397Y-94362827D01*
X168349390Y-94362814D01*
X168261789Y-94231711D01*
X168261786Y-94231707D01*
X168150292Y-94120213D01*
X168150288Y-94120210D01*
X168019185Y-94032609D01*
X168019172Y-94032602D01*
X167873501Y-93972264D01*
X167873489Y-93972261D01*
X167718845Y-93941500D01*
X167718842Y-93941500D01*
X167561158Y-93941500D01*
X167561153Y-93941500D01*
X167417448Y-93970085D01*
X167347857Y-93963858D01*
X167292679Y-93920995D01*
X167269435Y-93855105D01*
X167285503Y-93787108D01*
X167324366Y-93745366D01*
X167418833Y-93682245D01*
X167530330Y-93570748D01*
X167530333Y-93570745D01*
X167617938Y-93439635D01*
X167678281Y-93293953D01*
X167709044Y-93139298D01*
X167709044Y-92981614D01*
X167709044Y-92981611D01*
X167698159Y-92926892D01*
X167704386Y-92857301D01*
X167747248Y-92802123D01*
X167813138Y-92778878D01*
X167819776Y-92778700D01*
X168176259Y-92778700D01*
X168243298Y-92798385D01*
X168263940Y-92815019D01*
X168272707Y-92823786D01*
X168272711Y-92823789D01*
X168403814Y-92911390D01*
X168403827Y-92911397D01*
X168549498Y-92971735D01*
X168549503Y-92971737D01*
X168704153Y-93002499D01*
X168704156Y-93002500D01*
X168704158Y-93002500D01*
X168861844Y-93002500D01*
X168861845Y-93002499D01*
X169016497Y-92971737D01*
X169162179Y-92911394D01*
X169293289Y-92823789D01*
X169404789Y-92712289D01*
X169492394Y-92581179D01*
X169552737Y-92435497D01*
X169583500Y-92280842D01*
X169583500Y-92123158D01*
X169583500Y-92123155D01*
X169583499Y-92123153D01*
X169552738Y-91968510D01*
X169552737Y-91968503D01*
X169552735Y-91968498D01*
X169492397Y-91822827D01*
X169492390Y-91822814D01*
X169404789Y-91691711D01*
X169404786Y-91691707D01*
X169293292Y-91580213D01*
X169293288Y-91580210D01*
X169162185Y-91492609D01*
X169162172Y-91492602D01*
X169016501Y-91432264D01*
X169016489Y-91432261D01*
X168861845Y-91401500D01*
X168861842Y-91401500D01*
X168704158Y-91401500D01*
X168704155Y-91401500D01*
X168549510Y-91432261D01*
X168549498Y-91432264D01*
X168403827Y-91492602D01*
X168403814Y-91492609D01*
X168272711Y-91580210D01*
X168272707Y-91580213D01*
X168263940Y-91588981D01*
X168202617Y-91622466D01*
X168176259Y-91625300D01*
X165810924Y-91625300D01*
X165659076Y-91625300D01*
X165512402Y-91664601D01*
X165512401Y-91664601D01*
X165512399Y-91664602D01*
X165512398Y-91664602D01*
X165380901Y-91740522D01*
X165380895Y-91740527D01*
X165098915Y-92022508D01*
X165037592Y-92055993D01*
X165011234Y-92058827D01*
X164998828Y-92058827D01*
X164844183Y-92089588D01*
X164844171Y-92089591D01*
X164698500Y-92149929D01*
X164698487Y-92149936D01*
X164567384Y-92237537D01*
X164567380Y-92237540D01*
X164455886Y-92349034D01*
X164455883Y-92349038D01*
X164368282Y-92480141D01*
X164368275Y-92480154D01*
X164307937Y-92625825D01*
X164307934Y-92625837D01*
X164277173Y-92780480D01*
X134391400Y-92780480D01*
X134391400Y-81681713D01*
X138897500Y-81681713D01*
X138897500Y-81894286D01*
X138924328Y-82063675D01*
X138930754Y-82104243D01*
X138988767Y-82282789D01*
X138996444Y-82306414D01*
X139092951Y-82495820D01*
X139217890Y-82667786D01*
X139368213Y-82818109D01*
X139540179Y-82943048D01*
X139540181Y-82943049D01*
X139540184Y-82943051D01*
X139729588Y-83039557D01*
X139931757Y-83105246D01*
X140141713Y-83138500D01*
X140141714Y-83138500D01*
X140354286Y-83138500D01*
X140354287Y-83138500D01*
X140564243Y-83105246D01*
X140766412Y-83039557D01*
X140955816Y-82943051D01*
X140977789Y-82927086D01*
X141127786Y-82818109D01*
X141127788Y-82818106D01*
X141127792Y-82818104D01*
X141278104Y-82667792D01*
X141278106Y-82667788D01*
X141278109Y-82667786D01*
X141403048Y-82495820D01*
X141403047Y-82495820D01*
X141403051Y-82495816D01*
X141499557Y-82306412D01*
X141565246Y-82104243D01*
X141598500Y-81894287D01*
X141598500Y-81681713D01*
X143897500Y-81681713D01*
X143897500Y-81894286D01*
X143924328Y-82063675D01*
X143930754Y-82104243D01*
X143988767Y-82282789D01*
X143996444Y-82306414D01*
X144092951Y-82495820D01*
X144217890Y-82667786D01*
X144368213Y-82818109D01*
X144540179Y-82943048D01*
X144540181Y-82943049D01*
X144540184Y-82943051D01*
X144729588Y-83039557D01*
X144931757Y-83105246D01*
X145141713Y-83138500D01*
X145141714Y-83138500D01*
X145354286Y-83138500D01*
X145354287Y-83138500D01*
X145564243Y-83105246D01*
X145766412Y-83039557D01*
X145955816Y-82943051D01*
X145977789Y-82927086D01*
X146127786Y-82818109D01*
X146127788Y-82818106D01*
X146127792Y-82818104D01*
X146278104Y-82667792D01*
X146278106Y-82667788D01*
X146278109Y-82667786D01*
X146403048Y-82495820D01*
X146403047Y-82495820D01*
X146403051Y-82495816D01*
X146499557Y-82306412D01*
X146565246Y-82104243D01*
X146598500Y-81894287D01*
X146598500Y-81681713D01*
X146565246Y-81471757D01*
X146499557Y-81269588D01*
X146403051Y-81080184D01*
X146403049Y-81080181D01*
X146403048Y-81080179D01*
X146278109Y-80908213D01*
X146127786Y-80757890D01*
X145955820Y-80632951D01*
X145766414Y-80536444D01*
X145766413Y-80536443D01*
X145766412Y-80536443D01*
X145564243Y-80470754D01*
X145564241Y-80470753D01*
X145564240Y-80470753D01*
X145402957Y-80445208D01*
X145354287Y-80437500D01*
X145141713Y-80437500D01*
X145093042Y-80445208D01*
X144931760Y-80470753D01*
X144729585Y-80536444D01*
X144540179Y-80632951D01*
X144368213Y-80757890D01*
X144217890Y-80908213D01*
X144092951Y-81080179D01*
X143996444Y-81269585D01*
X143930753Y-81471760D01*
X143897500Y-81681713D01*
X141598500Y-81681713D01*
X141565246Y-81471757D01*
X141499557Y-81269588D01*
X141403051Y-81080184D01*
X141403049Y-81080181D01*
X141403048Y-81080179D01*
X141278109Y-80908213D01*
X141127786Y-80757890D01*
X140955820Y-80632951D01*
X140766414Y-80536444D01*
X140766413Y-80536443D01*
X140766412Y-80536443D01*
X140564243Y-80470754D01*
X140564241Y-80470753D01*
X140564240Y-80470753D01*
X140402957Y-80445208D01*
X140354287Y-80437500D01*
X140141713Y-80437500D01*
X140093042Y-80445208D01*
X139931760Y-80470753D01*
X139729585Y-80536444D01*
X139540179Y-80632951D01*
X139368213Y-80757890D01*
X139217890Y-80908213D01*
X139092951Y-81080179D01*
X138996444Y-81269585D01*
X138930753Y-81471760D01*
X138897500Y-81681713D01*
X134391400Y-81681713D01*
X134391400Y-80187799D01*
X129108200Y-80137000D01*
X129108200Y-95631000D01*
X127373500Y-95631000D01*
X127373500Y-91111687D01*
X127373499Y-91111683D01*
X127344506Y-90965927D01*
X127344505Y-90965920D01*
X127287629Y-90828610D01*
X127205059Y-90705034D01*
X127205054Y-90705028D01*
X127095647Y-90595621D01*
X127095624Y-90595600D01*
X126091072Y-89591047D01*
X126064192Y-89550819D01*
X126058396Y-89536827D01*
X126058394Y-89536821D01*
X126058389Y-89536814D01*
X125970789Y-89405710D01*
X125859292Y-89294213D01*
X125859288Y-89294210D01*
X125728185Y-89206609D01*
X125728172Y-89206602D01*
X125582501Y-89146264D01*
X125582489Y-89146261D01*
X125427845Y-89115500D01*
X125427842Y-89115500D01*
X125270158Y-89115500D01*
X125270155Y-89115500D01*
X125115510Y-89146261D01*
X125115498Y-89146264D01*
X124969827Y-89206602D01*
X124969814Y-89206609D01*
X124838711Y-89294210D01*
X124838707Y-89294213D01*
X124727213Y-89405707D01*
X124727210Y-89405711D01*
X124639609Y-89536814D01*
X124639602Y-89536827D01*
X124579264Y-89682498D01*
X124579261Y-89682510D01*
X124548500Y-89837153D01*
X115537100Y-89837153D01*
X115537100Y-77475039D01*
X150602716Y-77475039D01*
X150602716Y-77632732D01*
X150633477Y-77787375D01*
X150633480Y-77787387D01*
X150693818Y-77933058D01*
X150693825Y-77933071D01*
X150772286Y-78050495D01*
X150793164Y-78117172D01*
X150793184Y-78119386D01*
X150793184Y-81189960D01*
X150793184Y-81341808D01*
X150828004Y-81471760D01*
X150832486Y-81488484D01*
X150832486Y-81488485D01*
X150908406Y-81619982D01*
X150908408Y-81619984D01*
X150908409Y-81619986D01*
X151244725Y-81956302D01*
X151352098Y-82063675D01*
X151483602Y-82139599D01*
X151630276Y-82178900D01*
X152093715Y-82178900D01*
X152160754Y-82198585D01*
X152181396Y-82215219D01*
X152190163Y-82223986D01*
X152190167Y-82223989D01*
X152321270Y-82311590D01*
X152321283Y-82311597D01*
X152463224Y-82370390D01*
X152466959Y-82371937D01*
X152613646Y-82401115D01*
X152621609Y-82402699D01*
X152621612Y-82402700D01*
X152621614Y-82402700D01*
X152779298Y-82402700D01*
X152787265Y-82401115D01*
X152856856Y-82407339D01*
X152912036Y-82450199D01*
X152935284Y-82516087D01*
X152931237Y-82554823D01*
X152928297Y-82565794D01*
X152928297Y-82773459D01*
X152908612Y-82840498D01*
X152891978Y-82861140D01*
X152883210Y-82869907D01*
X152883207Y-82869911D01*
X152795606Y-83001014D01*
X152795599Y-83001027D01*
X152735261Y-83146698D01*
X152735258Y-83146710D01*
X152704497Y-83301353D01*
X152704497Y-83459046D01*
X152735258Y-83613689D01*
X152735261Y-83613701D01*
X152795599Y-83759372D01*
X152795606Y-83759385D01*
X152883207Y-83890488D01*
X152883210Y-83890492D01*
X152994704Y-84001986D01*
X152994708Y-84001989D01*
X153125811Y-84089590D01*
X153125824Y-84089597D01*
X153267765Y-84148390D01*
X153271500Y-84149937D01*
X153426150Y-84180699D01*
X153426153Y-84180700D01*
X153426155Y-84180700D01*
X153583841Y-84180700D01*
X153583842Y-84180699D01*
X153738494Y-84149937D01*
X153857547Y-84100623D01*
X153927014Y-84093155D01*
X153952447Y-84100622D01*
X154071503Y-84149937D01*
X154226153Y-84180699D01*
X154226156Y-84180700D01*
X154226158Y-84180700D01*
X154383844Y-84180700D01*
X154383845Y-84180699D01*
X154538497Y-84149937D01*
X154684179Y-84089594D01*
X154815289Y-84001989D01*
X154926789Y-83890489D01*
X155014394Y-83759379D01*
X155074737Y-83613697D01*
X155105500Y-83459042D01*
X155105500Y-83360153D01*
X168363500Y-83360153D01*
X168363500Y-83517846D01*
X168394261Y-83672489D01*
X168394264Y-83672501D01*
X168454602Y-83818172D01*
X168454609Y-83818185D01*
X168542210Y-83949288D01*
X168542213Y-83949292D01*
X168653707Y-84060786D01*
X168653711Y-84060789D01*
X168784814Y-84148390D01*
X168784827Y-84148397D01*
X168862815Y-84180700D01*
X168930503Y-84208737D01*
X169085153Y-84239499D01*
X169085156Y-84239500D01*
X169085158Y-84239500D01*
X169097561Y-84239500D01*
X169164600Y-84259185D01*
X169185242Y-84275819D01*
X173376981Y-88467558D01*
X173410466Y-88528881D01*
X173413300Y-88555239D01*
X173413300Y-103175076D01*
X173413300Y-103326924D01*
X173450699Y-103466500D01*
X173452602Y-103473600D01*
X173452602Y-103473601D01*
X173528522Y-103605098D01*
X173528524Y-103605100D01*
X173528525Y-103605102D01*
X174143898Y-104220475D01*
X174143899Y-104220476D01*
X174143901Y-104220477D01*
X174275398Y-104296397D01*
X174275399Y-104296397D01*
X174275402Y-104296399D01*
X174422075Y-104335700D01*
X174422076Y-104335700D01*
X175371718Y-104335700D01*
X175438757Y-104355385D01*
X175484512Y-104408189D01*
X175493335Y-104435508D01*
X175506261Y-104500491D01*
X175506264Y-104500501D01*
X175566602Y-104646172D01*
X175566609Y-104646185D01*
X175654210Y-104777288D01*
X175654213Y-104777292D01*
X175765707Y-104888786D01*
X175765711Y-104888789D01*
X175896814Y-104976390D01*
X175896827Y-104976397D01*
X176042498Y-105036735D01*
X176042503Y-105036737D01*
X176197153Y-105067499D01*
X176197156Y-105067500D01*
X176197158Y-105067500D01*
X176354844Y-105067500D01*
X176354845Y-105067499D01*
X176509497Y-105036737D01*
X176655179Y-104976394D01*
X176786289Y-104888789D01*
X176897789Y-104777289D01*
X176985394Y-104646179D01*
X177045737Y-104500497D01*
X177076500Y-104345842D01*
X177076500Y-104188158D01*
X177076500Y-104188155D01*
X177076499Y-104188153D01*
X177068459Y-104147735D01*
X177045737Y-104033503D01*
X177031771Y-103999786D01*
X176985397Y-103887827D01*
X176985390Y-103887814D01*
X176897789Y-103756711D01*
X176897786Y-103756707D01*
X176786292Y-103645213D01*
X176786288Y-103645210D01*
X176655185Y-103557609D01*
X176655172Y-103557602D01*
X176509501Y-103497264D01*
X176509489Y-103497261D01*
X176354845Y-103466500D01*
X176354842Y-103466500D01*
X176342439Y-103466500D01*
X176275400Y-103446815D01*
X176254758Y-103430181D01*
X176122104Y-103297527D01*
X176122098Y-103297522D01*
X175990600Y-103221602D01*
X175990599Y-103221601D01*
X175990598Y-103221601D01*
X175843924Y-103182300D01*
X175843923Y-103182300D01*
X175695258Y-103182300D01*
X175628219Y-103162615D01*
X175582464Y-103109811D01*
X175572520Y-103040653D01*
X175585898Y-102999851D01*
X175588393Y-102995182D01*
X175620973Y-102916525D01*
X175648737Y-102849497D01*
X175679500Y-102694842D01*
X175679500Y-102537158D01*
X175679500Y-102537155D01*
X175679499Y-102537153D01*
X175668260Y-102480651D01*
X175648737Y-102382503D01*
X175618719Y-102310032D01*
X175588397Y-102236827D01*
X175588390Y-102236814D01*
X175500789Y-102105711D01*
X175500786Y-102105707D01*
X175492019Y-102096940D01*
X175458534Y-102035617D01*
X175455700Y-102009259D01*
X175455700Y-101221000D01*
X177420157Y-101221000D01*
X178274001Y-101221000D01*
X178256784Y-101230940D01*
X178200929Y-101286795D01*
X178161433Y-101355204D01*
X178140989Y-101431504D01*
X178140989Y-101510496D01*
X178161433Y-101586796D01*
X178200929Y-101655205D01*
X178256784Y-101711060D01*
X178274001Y-101721000D01*
X177420157Y-101721000D01*
X177431350Y-101777274D01*
X177431351Y-101777276D01*
X177510500Y-101968358D01*
X177510505Y-101968368D01*
X177625410Y-102140335D01*
X177625413Y-102140339D01*
X177771660Y-102286586D01*
X177771664Y-102286589D01*
X177943631Y-102401494D01*
X177943641Y-102401499D01*
X178134725Y-102480649D01*
X178134733Y-102480651D01*
X178337579Y-102520999D01*
X178337583Y-102521000D01*
X178641000Y-102521000D01*
X178641000Y-101771000D01*
X179141000Y-101771000D01*
X179141000Y-102521000D01*
X179444417Y-102521000D01*
X179444420Y-102520999D01*
X179647266Y-102480651D01*
X179647274Y-102480649D01*
X179838358Y-102401499D01*
X179838368Y-102401494D01*
X180010335Y-102286589D01*
X180010339Y-102286586D01*
X180156586Y-102140339D01*
X180156589Y-102140335D01*
X180271494Y-101968368D01*
X180271499Y-101968358D01*
X180350648Y-101777276D01*
X180350649Y-101777274D01*
X180361843Y-101721000D01*
X179507999Y-101721000D01*
X179525216Y-101711060D01*
X179581071Y-101655205D01*
X179620567Y-101586796D01*
X179641011Y-101510496D01*
X179641011Y-101431504D01*
X179620567Y-101355204D01*
X179581071Y-101286795D01*
X179525216Y-101230940D01*
X179507999Y-101221000D01*
X180361843Y-101221000D01*
X180361843Y-101220999D01*
X181726884Y-101220999D01*
X181726885Y-101221000D01*
X182634013Y-101221000D01*
X182616796Y-101230940D01*
X182560941Y-101286795D01*
X182521445Y-101355204D01*
X182501001Y-101431504D01*
X182501001Y-101510496D01*
X182521445Y-101586796D01*
X182560941Y-101655205D01*
X182616796Y-101711060D01*
X182634013Y-101721000D01*
X181726885Y-101721000D01*
X181728085Y-101728584D01*
X181781591Y-101893255D01*
X181860195Y-102047524D01*
X181961967Y-102187602D01*
X182084397Y-102310032D01*
X182224475Y-102411804D01*
X182378742Y-102490408D01*
X182543415Y-102543914D01*
X182714429Y-102571000D01*
X182851000Y-102571000D01*
X182851000Y-101771000D01*
X183351000Y-101771000D01*
X183351000Y-102571000D01*
X183487571Y-102571000D01*
X183658584Y-102543914D01*
X183823257Y-102490408D01*
X183977524Y-102411804D01*
X184117602Y-102310032D01*
X184240032Y-102187602D01*
X184341804Y-102047524D01*
X184420408Y-101893255D01*
X184473914Y-101728584D01*
X184475115Y-101721000D01*
X183567987Y-101721000D01*
X183585204Y-101711060D01*
X183641059Y-101655205D01*
X183680555Y-101586796D01*
X183700999Y-101510496D01*
X183700999Y-101431504D01*
X183680555Y-101355204D01*
X183641059Y-101286795D01*
X183585204Y-101230940D01*
X183567987Y-101221000D01*
X184475115Y-101221000D01*
X184475115Y-101220999D01*
X184473914Y-101213415D01*
X184420408Y-101048744D01*
X184341804Y-100894475D01*
X184240032Y-100754397D01*
X184117602Y-100631967D01*
X183977524Y-100530195D01*
X183823257Y-100451591D01*
X183658584Y-100398085D01*
X183487571Y-100371000D01*
X183351000Y-100371000D01*
X183351000Y-101171000D01*
X182851000Y-101171000D01*
X182851000Y-100371000D01*
X182714429Y-100371000D01*
X182543415Y-100398085D01*
X182378742Y-100451591D01*
X182224475Y-100530195D01*
X182084397Y-100631967D01*
X181961967Y-100754397D01*
X181860195Y-100894475D01*
X181781591Y-101048744D01*
X181728085Y-101213415D01*
X181726884Y-101220999D01*
X180361843Y-101220999D01*
X180350649Y-101164725D01*
X180350648Y-101164723D01*
X180271499Y-100973641D01*
X180271494Y-100973631D01*
X180156589Y-100801664D01*
X180156586Y-100801660D01*
X180010339Y-100655413D01*
X180010335Y-100655410D01*
X179838368Y-100540505D01*
X179838358Y-100540500D01*
X179647274Y-100461350D01*
X179647266Y-100461348D01*
X179444420Y-100421000D01*
X179141000Y-100421000D01*
X179141000Y-101171000D01*
X178641000Y-101171000D01*
X178641000Y-100421000D01*
X178337579Y-100421000D01*
X178134733Y-100461348D01*
X178134725Y-100461350D01*
X177943641Y-100540500D01*
X177943631Y-100540505D01*
X177771664Y-100655410D01*
X177771660Y-100655413D01*
X177625413Y-100801660D01*
X177625410Y-100801664D01*
X177510505Y-100973631D01*
X177510500Y-100973641D01*
X177431351Y-101164723D01*
X177431350Y-101164725D01*
X177420157Y-101221000D01*
X175455700Y-101221000D01*
X175455700Y-87427078D01*
X175455700Y-87427076D01*
X175416399Y-87280402D01*
X175340475Y-87148898D01*
X175233102Y-87041525D01*
X170762819Y-82571242D01*
X170729334Y-82509919D01*
X170726500Y-82483561D01*
X170726500Y-82471155D01*
X170726499Y-82471153D01*
X170716149Y-82419122D01*
X170695737Y-82316503D01*
X170657417Y-82223989D01*
X170635397Y-82170827D01*
X170635390Y-82170814D01*
X170547789Y-82039711D01*
X170547786Y-82039707D01*
X170436292Y-81928213D01*
X170436288Y-81928210D01*
X170305185Y-81840609D01*
X170305172Y-81840602D01*
X170159501Y-81780264D01*
X170159489Y-81780261D01*
X170004845Y-81749500D01*
X170004842Y-81749500D01*
X169847158Y-81749500D01*
X169847155Y-81749500D01*
X169692510Y-81780261D01*
X169692498Y-81780264D01*
X169546827Y-81840602D01*
X169546814Y-81840609D01*
X169415711Y-81928210D01*
X169415707Y-81928213D01*
X169304213Y-82039707D01*
X169304210Y-82039711D01*
X169216609Y-82170814D01*
X169216602Y-82170827D01*
X169156264Y-82316498D01*
X169156261Y-82316510D01*
X169125500Y-82471153D01*
X169125500Y-82528711D01*
X169105815Y-82595750D01*
X169053011Y-82641505D01*
X169025692Y-82650328D01*
X168930508Y-82669261D01*
X168930498Y-82669264D01*
X168784827Y-82729602D01*
X168784814Y-82729609D01*
X168653711Y-82817210D01*
X168653707Y-82817213D01*
X168542213Y-82928707D01*
X168542210Y-82928711D01*
X168454609Y-83059814D01*
X168454602Y-83059827D01*
X168394264Y-83205498D01*
X168394261Y-83205510D01*
X168363500Y-83360153D01*
X155105500Y-83360153D01*
X155105500Y-83301358D01*
X155105500Y-83301355D01*
X155105499Y-83301353D01*
X155074737Y-83146703D01*
X155030356Y-83039557D01*
X155014397Y-83001027D01*
X155014390Y-83001014D01*
X154926789Y-82869911D01*
X154926786Y-82869907D01*
X154918019Y-82861140D01*
X154903315Y-82834212D01*
X154886723Y-82808394D01*
X154885831Y-82802193D01*
X154884534Y-82799817D01*
X154881700Y-82773459D01*
X154881700Y-82666975D01*
X154898314Y-82604973D01*
X154908578Y-82587195D01*
X154908579Y-82587194D01*
X154947880Y-82440520D01*
X154947880Y-82288672D01*
X154947880Y-80693153D01*
X164680500Y-80693153D01*
X164680500Y-80850846D01*
X164711261Y-81005489D01*
X164711264Y-81005501D01*
X164771602Y-81151172D01*
X164771609Y-81151185D01*
X164859210Y-81282288D01*
X164859213Y-81282292D01*
X164970707Y-81393786D01*
X164970711Y-81393789D01*
X165101814Y-81481390D01*
X165101827Y-81481397D01*
X165247498Y-81541735D01*
X165247503Y-81541737D01*
X165402153Y-81572499D01*
X165402156Y-81572500D01*
X165402158Y-81572500D01*
X165559844Y-81572500D01*
X165559845Y-81572499D01*
X165714497Y-81541737D01*
X165860179Y-81481394D01*
X165991289Y-81393789D01*
X165991292Y-81393786D01*
X166000060Y-81385019D01*
X166061383Y-81351534D01*
X166087741Y-81348700D01*
X170524761Y-81348700D01*
X170591800Y-81368385D01*
X170612442Y-81385019D01*
X171349898Y-82122475D01*
X171349899Y-82122476D01*
X171349901Y-82122477D01*
X171415650Y-82160437D01*
X171481402Y-82198399D01*
X171628076Y-82237700D01*
X171779924Y-82237700D01*
X173764259Y-82237700D01*
X173831298Y-82257385D01*
X173851940Y-82274019D01*
X173860707Y-82282786D01*
X173860711Y-82282789D01*
X173991814Y-82370390D01*
X173991827Y-82370397D01*
X174137498Y-82430735D01*
X174137503Y-82430737D01*
X174292153Y-82461499D01*
X174292156Y-82461500D01*
X174292158Y-82461500D01*
X174449844Y-82461500D01*
X174449845Y-82461499D01*
X174604497Y-82430737D01*
X174717166Y-82384067D01*
X174750172Y-82370397D01*
X174750172Y-82370396D01*
X174750179Y-82370394D01*
X174881289Y-82282789D01*
X174992789Y-82171289D01*
X175080394Y-82040179D01*
X175140737Y-81894497D01*
X175171500Y-81739842D01*
X175171500Y-81582158D01*
X175171500Y-81582155D01*
X175171499Y-81582153D01*
X175152867Y-81488484D01*
X175140737Y-81427503D01*
X175108096Y-81348700D01*
X175080397Y-81281827D01*
X175080390Y-81281814D01*
X174992789Y-81150711D01*
X174992786Y-81150707D01*
X174881292Y-81039213D01*
X174881288Y-81039210D01*
X174750185Y-80951609D01*
X174750172Y-80951602D01*
X174604501Y-80891264D01*
X174604489Y-80891261D01*
X174449845Y-80860500D01*
X174449842Y-80860500D01*
X174292158Y-80860500D01*
X174292155Y-80860500D01*
X174137510Y-80891261D01*
X174137498Y-80891264D01*
X173991827Y-80951602D01*
X173991814Y-80951609D01*
X173860711Y-81039210D01*
X173860707Y-81039213D01*
X173851940Y-81047981D01*
X173790617Y-81081466D01*
X173764259Y-81084300D01*
X171994239Y-81084300D01*
X171927200Y-81064615D01*
X171906558Y-81047981D01*
X171169104Y-80310527D01*
X171169098Y-80310522D01*
X171037600Y-80234602D01*
X171037599Y-80234601D01*
X171037598Y-80234601D01*
X170890924Y-80195300D01*
X170890923Y-80195300D01*
X166087741Y-80195300D01*
X166020702Y-80175615D01*
X166000060Y-80158981D01*
X165991292Y-80150213D01*
X165991288Y-80150210D01*
X165860185Y-80062609D01*
X165860172Y-80062602D01*
X165714501Y-80002264D01*
X165714489Y-80002261D01*
X165559845Y-79971500D01*
X165559842Y-79971500D01*
X165402158Y-79971500D01*
X165402155Y-79971500D01*
X165247510Y-80002261D01*
X165247498Y-80002264D01*
X165101827Y-80062602D01*
X165101814Y-80062609D01*
X164970711Y-80150210D01*
X164970707Y-80150213D01*
X164859213Y-80261707D01*
X164859210Y-80261711D01*
X164771609Y-80392814D01*
X164771602Y-80392827D01*
X164711264Y-80538498D01*
X164711261Y-80538510D01*
X164680500Y-80693153D01*
X154947880Y-80693153D01*
X154947880Y-78095515D01*
X154967565Y-78028476D01*
X154984197Y-78007835D01*
X154992969Y-77999064D01*
X155080574Y-77867954D01*
X155140917Y-77722272D01*
X155171680Y-77567617D01*
X155171680Y-77409933D01*
X155171680Y-77409930D01*
X155171679Y-77409928D01*
X155153867Y-77320384D01*
X155140917Y-77255278D01*
X155130120Y-77229211D01*
X155080577Y-77109602D01*
X155080570Y-77109589D01*
X154992969Y-76978486D01*
X154992966Y-76978482D01*
X154881472Y-76866988D01*
X154881468Y-76866985D01*
X154750365Y-76779384D01*
X154750352Y-76779377D01*
X154604681Y-76719039D01*
X154604669Y-76719036D01*
X154450025Y-76688275D01*
X154450022Y-76688275D01*
X154292338Y-76688275D01*
X154292335Y-76688275D01*
X154137690Y-76719036D01*
X154137678Y-76719039D01*
X153992007Y-76779377D01*
X153991994Y-76779384D01*
X153860891Y-76866985D01*
X153860887Y-76866988D01*
X153749393Y-76978482D01*
X153749387Y-76978490D01*
X153661787Y-77109593D01*
X153661786Y-77109595D01*
X153656715Y-77121838D01*
X153612873Y-77176241D01*
X153566347Y-77196000D01*
X153504708Y-77208261D01*
X153504700Y-77208263D01*
X153359027Y-77268602D01*
X153359014Y-77268609D01*
X153227911Y-77356210D01*
X153227907Y-77356213D01*
X153116413Y-77467707D01*
X153116410Y-77467711D01*
X153083115Y-77517541D01*
X153029503Y-77562346D01*
X152960178Y-77571053D01*
X152897150Y-77540898D01*
X152865452Y-77496102D01*
X152855397Y-77471827D01*
X152855390Y-77471814D01*
X152767789Y-77340711D01*
X152767786Y-77340707D01*
X152656292Y-77229213D01*
X152656288Y-77229210D01*
X152525185Y-77141609D01*
X152525172Y-77141602D01*
X152379501Y-77081264D01*
X152379489Y-77081261D01*
X152224845Y-77050500D01*
X152224842Y-77050500D01*
X152083270Y-77050500D01*
X152016231Y-77030815D01*
X151995593Y-77014185D01*
X151913505Y-76932097D01*
X151913504Y-76932096D01*
X151913503Y-76932095D01*
X151782401Y-76844495D01*
X151782388Y-76844488D01*
X151636717Y-76784150D01*
X151636705Y-76784147D01*
X151482061Y-76753386D01*
X151482058Y-76753386D01*
X151324374Y-76753386D01*
X151324371Y-76753386D01*
X151169726Y-76784147D01*
X151169714Y-76784150D01*
X151024043Y-76844488D01*
X151024030Y-76844495D01*
X150892927Y-76932096D01*
X150892923Y-76932099D01*
X150781429Y-77043593D01*
X150781426Y-77043597D01*
X150693825Y-77174700D01*
X150693818Y-77174713D01*
X150633480Y-77320384D01*
X150633477Y-77320396D01*
X150602716Y-77475039D01*
X115537100Y-77475039D01*
X115537100Y-71020484D01*
X116807500Y-71020484D01*
X116807500Y-73020515D01*
X116818000Y-73123295D01*
X116818001Y-73123297D01*
X116820720Y-73131501D01*
X116873186Y-73289835D01*
X116873187Y-73289837D01*
X116965286Y-73439151D01*
X116965289Y-73439155D01*
X117089344Y-73563210D01*
X117089348Y-73563213D01*
X117238662Y-73655312D01*
X117238664Y-73655313D01*
X117238666Y-73655314D01*
X117405203Y-73710499D01*
X117507992Y-73721000D01*
X117507997Y-73721000D01*
X119508003Y-73721000D01*
X119508008Y-73721000D01*
X119610797Y-73710499D01*
X119777334Y-73655314D01*
X119926655Y-73563211D01*
X120050711Y-73439155D01*
X120142814Y-73289834D01*
X120197999Y-73123297D01*
X120208500Y-73020508D01*
X120208500Y-71909075D01*
X134808000Y-71909075D01*
X134808000Y-72131924D01*
X134837085Y-72352854D01*
X134837088Y-72352867D01*
X134894763Y-72568118D01*
X134980045Y-72774002D01*
X134980054Y-72774020D01*
X135091464Y-72966991D01*
X135091473Y-72967004D01*
X135142040Y-73032903D01*
X135142043Y-73032903D01*
X135943387Y-72231559D01*
X135948889Y-72252091D01*
X136027881Y-72388908D01*
X136139592Y-72500619D01*
X136276409Y-72579611D01*
X136296940Y-72585112D01*
X135495595Y-73386455D01*
X135495595Y-73386456D01*
X135561507Y-73437033D01*
X135754485Y-73548449D01*
X135754497Y-73548454D01*
X135960381Y-73633736D01*
X136175632Y-73691411D01*
X136175645Y-73691414D01*
X136396575Y-73720500D01*
X136619425Y-73720500D01*
X136840354Y-73691414D01*
X136840367Y-73691411D01*
X137055618Y-73633736D01*
X137261502Y-73548454D01*
X137261514Y-73548449D01*
X137454498Y-73437030D01*
X137520403Y-73386457D01*
X137520404Y-73386456D01*
X136719059Y-72585112D01*
X136739591Y-72579611D01*
X136876408Y-72500619D01*
X136988119Y-72388908D01*
X137067111Y-72252091D01*
X137072612Y-72231559D01*
X137873956Y-73032904D01*
X137873957Y-73032903D01*
X137924530Y-72966998D01*
X138035949Y-72774014D01*
X138035954Y-72774002D01*
X138121236Y-72568118D01*
X138178911Y-72352867D01*
X138178914Y-72352854D01*
X138208000Y-72131924D01*
X138208000Y-71909075D01*
X138178914Y-71688145D01*
X138178911Y-71688132D01*
X138121236Y-71472881D01*
X138035954Y-71266997D01*
X138035949Y-71266985D01*
X137924533Y-71074007D01*
X137873956Y-71008095D01*
X137873955Y-71008095D01*
X137072612Y-71809439D01*
X137067111Y-71788909D01*
X136988119Y-71652092D01*
X136876408Y-71540381D01*
X136739591Y-71461389D01*
X136719058Y-71455887D01*
X137520403Y-70654543D01*
X137520403Y-70654540D01*
X137454504Y-70603973D01*
X137454491Y-70603964D01*
X137261520Y-70492554D01*
X137261502Y-70492545D01*
X137055618Y-70407263D01*
X136840367Y-70349588D01*
X136840354Y-70349585D01*
X136619425Y-70320500D01*
X136396575Y-70320500D01*
X136175645Y-70349585D01*
X136175632Y-70349588D01*
X135960381Y-70407263D01*
X135754497Y-70492545D01*
X135754479Y-70492554D01*
X135561511Y-70603962D01*
X135495595Y-70654542D01*
X136296941Y-71455887D01*
X136276409Y-71461389D01*
X136139592Y-71540381D01*
X136027881Y-71652092D01*
X135948889Y-71788909D01*
X135943387Y-71809440D01*
X135142042Y-71008095D01*
X135091462Y-71074011D01*
X134980054Y-71266979D01*
X134980045Y-71266997D01*
X134894763Y-71472881D01*
X134837088Y-71688132D01*
X134837085Y-71688145D01*
X134808000Y-71909075D01*
X120208500Y-71909075D01*
X120208500Y-71020492D01*
X120197999Y-70917703D01*
X120142814Y-70751166D01*
X120122663Y-70718497D01*
X120050713Y-70601848D01*
X120050710Y-70601844D01*
X119926655Y-70477789D01*
X119926651Y-70477786D01*
X119777337Y-70385687D01*
X119777335Y-70385686D01*
X119694065Y-70358093D01*
X119610797Y-70330501D01*
X119610795Y-70330500D01*
X119508015Y-70320000D01*
X119508008Y-70320000D01*
X117507992Y-70320000D01*
X117507984Y-70320000D01*
X117405204Y-70330500D01*
X117405203Y-70330501D01*
X117238664Y-70385686D01*
X117238662Y-70385687D01*
X117089348Y-70477786D01*
X117089344Y-70477789D01*
X116965289Y-70601844D01*
X116965286Y-70601848D01*
X116873187Y-70751162D01*
X116873186Y-70751164D01*
X116818001Y-70917703D01*
X116818000Y-70917704D01*
X116807500Y-71020484D01*
X115537100Y-71020484D01*
X115537100Y-69985902D01*
X138707500Y-69985902D01*
X138707500Y-70222097D01*
X138744446Y-70455368D01*
X138817433Y-70679996D01*
X138911276Y-70864172D01*
X138924657Y-70890433D01*
X139063483Y-71081510D01*
X139230490Y-71248517D01*
X139421567Y-71387343D01*
X139520991Y-71438002D01*
X139632003Y-71494566D01*
X139632005Y-71494566D01*
X139632008Y-71494568D01*
X139657427Y-71502827D01*
X139856631Y-71567553D01*
X140089903Y-71604500D01*
X140089908Y-71604500D01*
X140326097Y-71604500D01*
X140559368Y-71567553D01*
X140559925Y-71567372D01*
X140783992Y-71494568D01*
X140994433Y-71387343D01*
X141185510Y-71248517D01*
X141352517Y-71081510D01*
X141491343Y-70890433D01*
X141598568Y-70679992D01*
X141671553Y-70455368D01*
X141682096Y-70388801D01*
X141708500Y-70222097D01*
X141708500Y-69985902D01*
X143787500Y-69985902D01*
X143787500Y-70222097D01*
X143824446Y-70455368D01*
X143897433Y-70679996D01*
X143991276Y-70864172D01*
X144004657Y-70890433D01*
X144143483Y-71081510D01*
X144310490Y-71248517D01*
X144501567Y-71387343D01*
X144600991Y-71438002D01*
X144712003Y-71494566D01*
X144712005Y-71494566D01*
X144712008Y-71494568D01*
X144737427Y-71502827D01*
X144936631Y-71567553D01*
X145169903Y-71604500D01*
X145169908Y-71604500D01*
X145406097Y-71604500D01*
X145639368Y-71567553D01*
X145639925Y-71567372D01*
X145863992Y-71494568D01*
X146074433Y-71387343D01*
X146265510Y-71248517D01*
X146432517Y-71081510D01*
X146571343Y-70890433D01*
X146678568Y-70679992D01*
X146751553Y-70455368D01*
X146762096Y-70388801D01*
X146788500Y-70222097D01*
X146788500Y-69985902D01*
X146751553Y-69752631D01*
X146696367Y-69582789D01*
X146678568Y-69528008D01*
X146678566Y-69528005D01*
X146678566Y-69528003D01*
X146610003Y-69393442D01*
X146571343Y-69317567D01*
X146432517Y-69126490D01*
X146265510Y-68959483D01*
X146074433Y-68820657D01*
X145998914Y-68782178D01*
X145863996Y-68713433D01*
X145639368Y-68640446D01*
X145406097Y-68603500D01*
X145406092Y-68603500D01*
X145169908Y-68603500D01*
X145169903Y-68603500D01*
X144936631Y-68640446D01*
X144712003Y-68713433D01*
X144501566Y-68820657D01*
X144416918Y-68882158D01*
X144310490Y-68959483D01*
X144310488Y-68959485D01*
X144310487Y-68959485D01*
X144143485Y-69126487D01*
X144143485Y-69126488D01*
X144143483Y-69126490D01*
X144094079Y-69194489D01*
X144004657Y-69317566D01*
X143897433Y-69528003D01*
X143824446Y-69752631D01*
X143787500Y-69985902D01*
X141708500Y-69985902D01*
X141671553Y-69752631D01*
X141616367Y-69582789D01*
X141598568Y-69528008D01*
X141598566Y-69528005D01*
X141598566Y-69528003D01*
X141530003Y-69393442D01*
X141491343Y-69317567D01*
X141352517Y-69126490D01*
X141185510Y-68959483D01*
X140994433Y-68820657D01*
X140918914Y-68782178D01*
X140783996Y-68713433D01*
X140559368Y-68640446D01*
X140326097Y-68603500D01*
X140326092Y-68603500D01*
X140089908Y-68603500D01*
X140089903Y-68603500D01*
X139856631Y-68640446D01*
X139632003Y-68713433D01*
X139421566Y-68820657D01*
X139336918Y-68882158D01*
X139230490Y-68959483D01*
X139230488Y-68959485D01*
X139230487Y-68959485D01*
X139063485Y-69126487D01*
X139063485Y-69126488D01*
X139063483Y-69126490D01*
X139014079Y-69194489D01*
X138924657Y-69317566D01*
X138817433Y-69528003D01*
X138744446Y-69752631D01*
X138707500Y-69985902D01*
X115537100Y-69985902D01*
X115537100Y-65432484D01*
X116807500Y-65432484D01*
X116807500Y-67432515D01*
X116818000Y-67535295D01*
X116818001Y-67535296D01*
X116873186Y-67701835D01*
X116873187Y-67701837D01*
X116965286Y-67851151D01*
X116965289Y-67851155D01*
X117089344Y-67975210D01*
X117089348Y-67975213D01*
X117238662Y-68067312D01*
X117238664Y-68067313D01*
X117238666Y-68067314D01*
X117405203Y-68122499D01*
X117507992Y-68133000D01*
X117507997Y-68133000D01*
X119508003Y-68133000D01*
X119508008Y-68133000D01*
X119610797Y-68122499D01*
X119777334Y-68067314D01*
X119926655Y-67975211D01*
X120050711Y-67851155D01*
X120142814Y-67701834D01*
X120197999Y-67535297D01*
X120208500Y-67432508D01*
X120208500Y-66321075D01*
X134808000Y-66321075D01*
X134808000Y-66543924D01*
X134837085Y-66764854D01*
X134837088Y-66764867D01*
X134894763Y-66980118D01*
X134980045Y-67186002D01*
X134980054Y-67186020D01*
X135091464Y-67378991D01*
X135091473Y-67379004D01*
X135142040Y-67444903D01*
X135142043Y-67444903D01*
X135943387Y-66643559D01*
X135948889Y-66664091D01*
X136027881Y-66800908D01*
X136139592Y-66912619D01*
X136276409Y-66991611D01*
X136296940Y-66997112D01*
X135495595Y-67798455D01*
X135495595Y-67798456D01*
X135561507Y-67849033D01*
X135754485Y-67960449D01*
X135754497Y-67960454D01*
X135960381Y-68045736D01*
X136175632Y-68103411D01*
X136175645Y-68103414D01*
X136396575Y-68132500D01*
X136619425Y-68132500D01*
X136840354Y-68103414D01*
X136840367Y-68103411D01*
X137055618Y-68045736D01*
X137261502Y-67960454D01*
X137261514Y-67960449D01*
X137454498Y-67849030D01*
X137520403Y-67798457D01*
X137520404Y-67798456D01*
X136719059Y-66997112D01*
X136739591Y-66991611D01*
X136876408Y-66912619D01*
X136988119Y-66800908D01*
X137067111Y-66664091D01*
X137072612Y-66643559D01*
X137873956Y-67444904D01*
X137873957Y-67444903D01*
X137924530Y-67378998D01*
X138035949Y-67186014D01*
X138035954Y-67186002D01*
X138121236Y-66980118D01*
X138178911Y-66764867D01*
X138178914Y-66764854D01*
X138208000Y-66543924D01*
X138208000Y-66472076D01*
X159951300Y-66472076D01*
X159951300Y-71298076D01*
X159951300Y-71449924D01*
X159982818Y-71567553D01*
X159990602Y-71596600D01*
X159990602Y-71596601D01*
X160066522Y-71728098D01*
X160066524Y-71728100D01*
X160066525Y-71728102D01*
X161697898Y-73359475D01*
X161697899Y-73359476D01*
X161697901Y-73359477D01*
X161829398Y-73435397D01*
X161829399Y-73435397D01*
X161829402Y-73435399D01*
X161976075Y-73474700D01*
X161976076Y-73474700D01*
X163604259Y-73474700D01*
X163671298Y-73494385D01*
X163691940Y-73511019D01*
X163700707Y-73519786D01*
X163700711Y-73519789D01*
X163831814Y-73607390D01*
X163831827Y-73607397D01*
X163947511Y-73655314D01*
X163977503Y-73667737D01*
X164096535Y-73691414D01*
X164132153Y-73698499D01*
X164132156Y-73698500D01*
X164132158Y-73698500D01*
X164289844Y-73698500D01*
X164289845Y-73698499D01*
X164444497Y-73667737D01*
X164590179Y-73607394D01*
X164721289Y-73519789D01*
X164832789Y-73408289D01*
X164920394Y-73277179D01*
X164980737Y-73131497D01*
X165011500Y-72976842D01*
X165011500Y-72819158D01*
X165011500Y-72819155D01*
X165011499Y-72819153D01*
X164980738Y-72664510D01*
X164980737Y-72664503D01*
X164980735Y-72664498D01*
X164926579Y-72533751D01*
X164919110Y-72464282D01*
X164950386Y-72401803D01*
X164953437Y-72398640D01*
X164959789Y-72392289D01*
X165012492Y-72313413D01*
X165047390Y-72261185D01*
X165047390Y-72261184D01*
X165047394Y-72261179D01*
X165107737Y-72115497D01*
X165138500Y-71960842D01*
X165138500Y-71948439D01*
X165158185Y-71881400D01*
X165174819Y-71860758D01*
X166117874Y-70917703D01*
X167085475Y-69950102D01*
X167161399Y-69818598D01*
X167200700Y-69671924D01*
X167200700Y-69520076D01*
X167200700Y-69032657D01*
X167220385Y-68965618D01*
X167273189Y-68919863D01*
X167342347Y-68909919D01*
X167383158Y-68923301D01*
X167387815Y-68925790D01*
X167387821Y-68925794D01*
X167533503Y-68986137D01*
X167688153Y-69016899D01*
X167688156Y-69016900D01*
X167688158Y-69016900D01*
X167845844Y-69016900D01*
X167845845Y-69016899D01*
X168000497Y-68986137D01*
X168146179Y-68925794D01*
X168277289Y-68838189D01*
X168294821Y-68820657D01*
X168314319Y-68801160D01*
X168375642Y-68767675D01*
X168445334Y-68772659D01*
X168489681Y-68801160D01*
X168526707Y-68838186D01*
X168526711Y-68838189D01*
X168657814Y-68925790D01*
X168657827Y-68925797D01*
X168753965Y-68965618D01*
X168803503Y-68986137D01*
X168958153Y-69016899D01*
X168958156Y-69016900D01*
X168958158Y-69016900D01*
X169115844Y-69016900D01*
X169115845Y-69016899D01*
X169270497Y-68986137D01*
X169416179Y-68925794D01*
X169547289Y-68838189D01*
X169547292Y-68838186D01*
X169573460Y-68812019D01*
X169634783Y-68778534D01*
X169661141Y-68775700D01*
X175311076Y-68775700D01*
X175731761Y-68775700D01*
X175798800Y-68795385D01*
X175819442Y-68812019D01*
X177471181Y-70463758D01*
X177504666Y-70525081D01*
X177507500Y-70551439D01*
X177507500Y-70563846D01*
X177538261Y-70718489D01*
X177538264Y-70718501D01*
X177598602Y-70864172D01*
X177598609Y-70864185D01*
X177686210Y-70995288D01*
X177686213Y-70995292D01*
X177797707Y-71106786D01*
X177797711Y-71106789D01*
X177928814Y-71194390D01*
X177928827Y-71194397D01*
X178059479Y-71248514D01*
X178074503Y-71254737D01*
X178229153Y-71285499D01*
X178229156Y-71285500D01*
X178229158Y-71285500D01*
X178386844Y-71285500D01*
X178386845Y-71285499D01*
X178541497Y-71254737D01*
X178676436Y-71198844D01*
X178687172Y-71194397D01*
X178687172Y-71194396D01*
X178687179Y-71194394D01*
X178818289Y-71106789D01*
X178883925Y-71041153D01*
X181063500Y-71041153D01*
X181063500Y-71198846D01*
X181094261Y-71353489D01*
X181094264Y-71353501D01*
X181154602Y-71499172D01*
X181154609Y-71499185D01*
X181242210Y-71630288D01*
X181242213Y-71630292D01*
X181353707Y-71741786D01*
X181353711Y-71741789D01*
X181484814Y-71829390D01*
X181484827Y-71829397D01*
X181630498Y-71889735D01*
X181630503Y-71889737D01*
X181785153Y-71920499D01*
X181785156Y-71920500D01*
X181785158Y-71920500D01*
X181942844Y-71920500D01*
X181942845Y-71920499D01*
X182097497Y-71889737D01*
X182243179Y-71829394D01*
X182374289Y-71741789D01*
X182485789Y-71630289D01*
X182573394Y-71499179D01*
X182633737Y-71353497D01*
X182664500Y-71198842D01*
X182664500Y-71186438D01*
X182684185Y-71119399D01*
X182700814Y-71098762D01*
X184027181Y-69772394D01*
X184088502Y-69738911D01*
X184090592Y-69738475D01*
X184129497Y-69730737D01*
X184275179Y-69670394D01*
X184406289Y-69582789D01*
X184517789Y-69471289D01*
X184605394Y-69340179D01*
X184665737Y-69194497D01*
X184696500Y-69039842D01*
X184696500Y-68882158D01*
X184696500Y-68882155D01*
X184696499Y-68882153D01*
X184687753Y-68838186D01*
X184665737Y-68727503D01*
X184652475Y-68695485D01*
X184605397Y-68581827D01*
X184605390Y-68581814D01*
X184517789Y-68450711D01*
X184517786Y-68450707D01*
X184406292Y-68339213D01*
X184406288Y-68339210D01*
X184275185Y-68251609D01*
X184275172Y-68251602D01*
X184129501Y-68191264D01*
X184129489Y-68191261D01*
X183974845Y-68160500D01*
X183974842Y-68160500D01*
X183817158Y-68160500D01*
X183817155Y-68160500D01*
X183662510Y-68191261D01*
X183662498Y-68191264D01*
X183516827Y-68251602D01*
X183516814Y-68251609D01*
X183385711Y-68339210D01*
X183385707Y-68339213D01*
X183274213Y-68450707D01*
X183274210Y-68450711D01*
X183186609Y-68581814D01*
X183186602Y-68581827D01*
X183126264Y-68727498D01*
X183126261Y-68727510D01*
X183095500Y-68882153D01*
X183095500Y-69021560D01*
X183075815Y-69088599D01*
X183059181Y-69109241D01*
X181885242Y-70283181D01*
X181823919Y-70316666D01*
X181797561Y-70319500D01*
X181785155Y-70319500D01*
X181630510Y-70350261D01*
X181630498Y-70350264D01*
X181484827Y-70410602D01*
X181484814Y-70410609D01*
X181353711Y-70498210D01*
X181353707Y-70498213D01*
X181242213Y-70609707D01*
X181242210Y-70609711D01*
X181154609Y-70740814D01*
X181154602Y-70740827D01*
X181094264Y-70886498D01*
X181094261Y-70886510D01*
X181063500Y-71041153D01*
X178883925Y-71041153D01*
X178929789Y-70995289D01*
X178939839Y-70980247D01*
X178949243Y-70966175D01*
X179017390Y-70864185D01*
X179017390Y-70864184D01*
X179017394Y-70864179D01*
X179077737Y-70718497D01*
X179108500Y-70563842D01*
X179108500Y-70406158D01*
X179108500Y-70406155D01*
X179108499Y-70406153D01*
X179093451Y-70330501D01*
X179077737Y-70251503D01*
X179065555Y-70222092D01*
X179017397Y-70105827D01*
X179017390Y-70105814D01*
X178929789Y-69974711D01*
X178929786Y-69974707D01*
X178818292Y-69863213D01*
X178818288Y-69863210D01*
X178687185Y-69775609D01*
X178687172Y-69775602D01*
X178541501Y-69715264D01*
X178541489Y-69715261D01*
X178386845Y-69684500D01*
X178386842Y-69684500D01*
X178374439Y-69684500D01*
X178307400Y-69664815D01*
X178286758Y-69648181D01*
X177334062Y-68695485D01*
X177300577Y-68634162D01*
X177305561Y-68564470D01*
X177347433Y-68508537D01*
X177397552Y-68486187D01*
X177525497Y-68460737D01*
X177671179Y-68400394D01*
X177802289Y-68312789D01*
X177913789Y-68201289D01*
X178001394Y-68070179D01*
X178061737Y-67924497D01*
X178092500Y-67769842D01*
X178092500Y-67612158D01*
X178092500Y-67612155D01*
X178092499Y-67612153D01*
X178071584Y-67507006D01*
X178061737Y-67457503D01*
X178050936Y-67431427D01*
X178001397Y-67311827D01*
X178001390Y-67311814D01*
X177913789Y-67180711D01*
X177913786Y-67180707D01*
X177802292Y-67069213D01*
X177802288Y-67069210D01*
X177671185Y-66981609D01*
X177671172Y-66981602D01*
X177525501Y-66921264D01*
X177525489Y-66921261D01*
X177370845Y-66890500D01*
X177370842Y-66890500D01*
X177358439Y-66890500D01*
X177291400Y-66870815D01*
X177270758Y-66854181D01*
X177138104Y-66721527D01*
X177138098Y-66721522D01*
X177006600Y-66645602D01*
X177006599Y-66645601D01*
X177006598Y-66645601D01*
X176859924Y-66606300D01*
X171398924Y-66606300D01*
X168876324Y-66606300D01*
X168724476Y-66606300D01*
X168577802Y-66645601D01*
X168577801Y-66645601D01*
X168577799Y-66645602D01*
X168577798Y-66645602D01*
X168446301Y-66721522D01*
X168446295Y-66721527D01*
X167788242Y-67379581D01*
X167726919Y-67413066D01*
X167725739Y-67413317D01*
X167713283Y-67415900D01*
X167688158Y-67415900D01*
X167533503Y-67446663D01*
X167501993Y-67459714D01*
X167490529Y-67462092D01*
X167466900Y-67460170D01*
X167443330Y-67462704D01*
X167432718Y-67457391D01*
X167420889Y-67456430D01*
X167402049Y-67442038D01*
X167380852Y-67431427D01*
X167374796Y-67421219D01*
X167365366Y-67414016D01*
X167357298Y-67391726D01*
X167345202Y-67371337D01*
X167345625Y-67359476D01*
X167341587Y-67348317D01*
X167346851Y-67325202D01*
X167347698Y-67301512D01*
X167354902Y-67289849D01*
X167357102Y-67280192D01*
X167366657Y-67270820D01*
X167377668Y-67252996D01*
X170666758Y-63963907D01*
X170728081Y-63930422D01*
X170754439Y-63927588D01*
X170766844Y-63927588D01*
X170766845Y-63927587D01*
X170921497Y-63896825D01*
X171067179Y-63836482D01*
X171198289Y-63748877D01*
X171309789Y-63637377D01*
X171397394Y-63506267D01*
X171457737Y-63360585D01*
X171488500Y-63205930D01*
X171488500Y-63048246D01*
X171488500Y-63048243D01*
X171488499Y-63048241D01*
X171457738Y-62893598D01*
X171457737Y-62893591D01*
X171457735Y-62893586D01*
X171397397Y-62747915D01*
X171397390Y-62747902D01*
X171309789Y-62616799D01*
X171309786Y-62616795D01*
X171198292Y-62505301D01*
X171198288Y-62505298D01*
X171067185Y-62417697D01*
X171067172Y-62417690D01*
X170921501Y-62357352D01*
X170921489Y-62357349D01*
X170766845Y-62326588D01*
X170766842Y-62326588D01*
X170609158Y-62326588D01*
X170609155Y-62326588D01*
X170454510Y-62357349D01*
X170454498Y-62357352D01*
X170329471Y-62409140D01*
X170260002Y-62416609D01*
X170197523Y-62385334D01*
X170194363Y-62382285D01*
X170182289Y-62370211D01*
X170182288Y-62370210D01*
X170182287Y-62370209D01*
X170051185Y-62282609D01*
X170051172Y-62282602D01*
X169905501Y-62222264D01*
X169905489Y-62222261D01*
X169750845Y-62191500D01*
X169750842Y-62191500D01*
X169593158Y-62191500D01*
X169593155Y-62191500D01*
X169438510Y-62222261D01*
X169438498Y-62222264D01*
X169370787Y-62250311D01*
X169301317Y-62257780D01*
X169238838Y-62226504D01*
X169220233Y-62204641D01*
X169150789Y-62100710D01*
X169039292Y-61989213D01*
X169039288Y-61989210D01*
X168908185Y-61901609D01*
X168908172Y-61901602D01*
X168762501Y-61841264D01*
X168762489Y-61841261D01*
X168607845Y-61810500D01*
X168607842Y-61810500D01*
X168450158Y-61810500D01*
X168450155Y-61810500D01*
X168295510Y-61841261D01*
X168295498Y-61841264D01*
X168149827Y-61901602D01*
X168149814Y-61901609D01*
X168018711Y-61989210D01*
X168018707Y-61989213D01*
X167907213Y-62100707D01*
X167907210Y-62100711D01*
X167903549Y-62106191D01*
X167849937Y-62150996D01*
X167800447Y-62161300D01*
X164413924Y-62161300D01*
X164262076Y-62161300D01*
X164115402Y-62200601D01*
X164115401Y-62200601D01*
X164115399Y-62200602D01*
X164115398Y-62200602D01*
X163983901Y-62276522D01*
X163983895Y-62276527D01*
X160066527Y-66193895D01*
X160066522Y-66193901D01*
X159990602Y-66325398D01*
X159990602Y-66325399D01*
X159990601Y-66325401D01*
X159990601Y-66325402D01*
X159951300Y-66472076D01*
X138208000Y-66472076D01*
X138208000Y-66321075D01*
X138178914Y-66100145D01*
X138178911Y-66100132D01*
X138121236Y-65884881D01*
X138035954Y-65678997D01*
X138035949Y-65678985D01*
X137924533Y-65486007D01*
X137873956Y-65420095D01*
X137873955Y-65420095D01*
X137072612Y-66221439D01*
X137067111Y-66200909D01*
X136988119Y-66064092D01*
X136876408Y-65952381D01*
X136739591Y-65873389D01*
X136719058Y-65867887D01*
X137520403Y-65066543D01*
X137520403Y-65066540D01*
X137454504Y-65015973D01*
X137454491Y-65015964D01*
X137261520Y-64904554D01*
X137261502Y-64904545D01*
X137055618Y-64819263D01*
X136840367Y-64761588D01*
X136840354Y-64761585D01*
X136619425Y-64732500D01*
X136396575Y-64732500D01*
X136175645Y-64761585D01*
X136175632Y-64761588D01*
X135960381Y-64819263D01*
X135754497Y-64904545D01*
X135754479Y-64904554D01*
X135561511Y-65015962D01*
X135495595Y-65066542D01*
X136296941Y-65867887D01*
X136276409Y-65873389D01*
X136139592Y-65952381D01*
X136027881Y-66064092D01*
X135948889Y-66200909D01*
X135943387Y-66221440D01*
X135142042Y-65420095D01*
X135091462Y-65486011D01*
X134980054Y-65678979D01*
X134980045Y-65678997D01*
X134894763Y-65884881D01*
X134837088Y-66100132D01*
X134837085Y-66100145D01*
X134808000Y-66321075D01*
X120208500Y-66321075D01*
X120208500Y-65432492D01*
X120197999Y-65329703D01*
X120142814Y-65163166D01*
X120050711Y-65013845D01*
X119926655Y-64889789D01*
X119926651Y-64889786D01*
X119777337Y-64797687D01*
X119777335Y-64797686D01*
X119694065Y-64770093D01*
X119610797Y-64742501D01*
X119610795Y-64742500D01*
X119508015Y-64732000D01*
X119508008Y-64732000D01*
X117507992Y-64732000D01*
X117507984Y-64732000D01*
X117405204Y-64742500D01*
X117405203Y-64742501D01*
X117238664Y-64797686D01*
X117238662Y-64797687D01*
X117089348Y-64889786D01*
X117089344Y-64889789D01*
X116965289Y-65013844D01*
X116965286Y-65013848D01*
X116873187Y-65163162D01*
X116873186Y-65163164D01*
X116818001Y-65329703D01*
X116818000Y-65329704D01*
X116807500Y-65432484D01*
X115537100Y-65432484D01*
X115537100Y-60500153D01*
X172300500Y-60500153D01*
X172300500Y-60657846D01*
X172331261Y-60812489D01*
X172331264Y-60812501D01*
X172391602Y-60958172D01*
X172391609Y-60958185D01*
X172479210Y-61089288D01*
X172479213Y-61089292D01*
X172590707Y-61200786D01*
X172590711Y-61200789D01*
X172721814Y-61288390D01*
X172721827Y-61288397D01*
X172867498Y-61348735D01*
X172867503Y-61348737D01*
X173022153Y-61379499D01*
X173022156Y-61379500D01*
X173022158Y-61379500D01*
X173034561Y-61379500D01*
X173101600Y-61399185D01*
X173122242Y-61415819D01*
X173274525Y-61568102D01*
X173381898Y-61675475D01*
X173513402Y-61751399D01*
X173660076Y-61790700D01*
X180241259Y-61790700D01*
X180308298Y-61810385D01*
X180328940Y-61827019D01*
X180337707Y-61835786D01*
X180337711Y-61835789D01*
X180468814Y-61923390D01*
X180468827Y-61923397D01*
X180614498Y-61983735D01*
X180614503Y-61983737D01*
X180769153Y-62014499D01*
X180769156Y-62014500D01*
X180769158Y-62014500D01*
X180926844Y-62014500D01*
X180926845Y-62014499D01*
X181081497Y-61983737D01*
X181227179Y-61923394D01*
X181358289Y-61835789D01*
X181469789Y-61724289D01*
X181557394Y-61593179D01*
X181617737Y-61447497D01*
X181648500Y-61292842D01*
X181648500Y-61135158D01*
X181648500Y-61135155D01*
X181648499Y-61135153D01*
X181617738Y-60980510D01*
X181617737Y-60980503D01*
X181608487Y-60958172D01*
X181557397Y-60834827D01*
X181557390Y-60834814D01*
X181469789Y-60703711D01*
X181469786Y-60703707D01*
X181358292Y-60592213D01*
X181358288Y-60592210D01*
X181227185Y-60504609D01*
X181227172Y-60504602D01*
X181081501Y-60444264D01*
X181081489Y-60444261D01*
X180926845Y-60413500D01*
X180926842Y-60413500D01*
X180769158Y-60413500D01*
X180769155Y-60413500D01*
X180614510Y-60444261D01*
X180614498Y-60444264D01*
X180468827Y-60504602D01*
X180468814Y-60504609D01*
X180337711Y-60592210D01*
X180337707Y-60592213D01*
X180328940Y-60600981D01*
X180267617Y-60634466D01*
X180241259Y-60637300D01*
X179486500Y-60637300D01*
X179419461Y-60617615D01*
X179373706Y-60564811D01*
X179362500Y-60513300D01*
X179362500Y-60500155D01*
X179362499Y-60500153D01*
X179351381Y-60444261D01*
X179331737Y-60345503D01*
X179331735Y-60345498D01*
X179271397Y-60199827D01*
X179271390Y-60199814D01*
X179183789Y-60068711D01*
X179183786Y-60068707D01*
X179072292Y-59957213D01*
X179072288Y-59957210D01*
X178941185Y-59869609D01*
X178941172Y-59869602D01*
X178795501Y-59809264D01*
X178795489Y-59809261D01*
X178640845Y-59778500D01*
X178640842Y-59778500D01*
X178628439Y-59778500D01*
X178561400Y-59758815D01*
X178540758Y-59742181D01*
X178535104Y-59736527D01*
X178535098Y-59736522D01*
X178403600Y-59660602D01*
X178403599Y-59660601D01*
X178403598Y-59660601D01*
X178256924Y-59621300D01*
X178256923Y-59621300D01*
X174596741Y-59621300D01*
X174529702Y-59601615D01*
X174509060Y-59584981D01*
X174500292Y-59576213D01*
X174500288Y-59576210D01*
X174369185Y-59488609D01*
X174369172Y-59488602D01*
X174223501Y-59428264D01*
X174223489Y-59428261D01*
X174068845Y-59397500D01*
X174068842Y-59397500D01*
X173911158Y-59397500D01*
X173911155Y-59397500D01*
X173756510Y-59428261D01*
X173756498Y-59428264D01*
X173610827Y-59488602D01*
X173610814Y-59488609D01*
X173479711Y-59576210D01*
X173479707Y-59576213D01*
X173368213Y-59687707D01*
X173368208Y-59687713D01*
X173338595Y-59732032D01*
X173284982Y-59776837D01*
X173215657Y-59785543D01*
X173211304Y-59784758D01*
X173179842Y-59778500D01*
X173022158Y-59778500D01*
X173022155Y-59778500D01*
X172867510Y-59809261D01*
X172867498Y-59809264D01*
X172721827Y-59869602D01*
X172721814Y-59869609D01*
X172590711Y-59957210D01*
X172590707Y-59957213D01*
X172479213Y-60068707D01*
X172479210Y-60068711D01*
X172391609Y-60199814D01*
X172391602Y-60199827D01*
X172331264Y-60345498D01*
X172331261Y-60345510D01*
X172300500Y-60500153D01*
X115537100Y-60500153D01*
X115537100Y-56789713D01*
X132258500Y-56789713D01*
X132258500Y-57002286D01*
X132291753Y-57212239D01*
X132357444Y-57414414D01*
X132453951Y-57603820D01*
X132578890Y-57775786D01*
X132729213Y-57926109D01*
X132901179Y-58051048D01*
X132901181Y-58051049D01*
X132901184Y-58051051D01*
X133090588Y-58147557D01*
X133292757Y-58213246D01*
X133502713Y-58246500D01*
X133502714Y-58246500D01*
X133715286Y-58246500D01*
X133715287Y-58246500D01*
X133925243Y-58213246D01*
X134127412Y-58147557D01*
X134316816Y-58051051D01*
X134488792Y-57926104D01*
X134602329Y-57812566D01*
X134663648Y-57779084D01*
X134733340Y-57784068D01*
X134789274Y-57825939D01*
X134806189Y-57856917D01*
X134855202Y-57988328D01*
X134855206Y-57988335D01*
X134941452Y-58103544D01*
X134941455Y-58103547D01*
X135056664Y-58189793D01*
X135056671Y-58189797D01*
X135191517Y-58240091D01*
X135191516Y-58240091D01*
X135198444Y-58240835D01*
X135251127Y-58246500D01*
X137046872Y-58246499D01*
X137106483Y-58240091D01*
X137241331Y-58189796D01*
X137356546Y-58103546D01*
X137442796Y-57988331D01*
X137493091Y-57853483D01*
X137499500Y-57793873D01*
X137499499Y-56662713D01*
X140381500Y-56662713D01*
X140381500Y-56875286D01*
X140414753Y-57085239D01*
X140480444Y-57287414D01*
X140576951Y-57476820D01*
X140701890Y-57648786D01*
X140852213Y-57799109D01*
X141024179Y-57924048D01*
X141024181Y-57924049D01*
X141024184Y-57924051D01*
X141213588Y-58020557D01*
X141415757Y-58086246D01*
X141625713Y-58119500D01*
X141625714Y-58119500D01*
X141838286Y-58119500D01*
X141838287Y-58119500D01*
X142048243Y-58086246D01*
X142250412Y-58020557D01*
X142439816Y-57924051D01*
X142526138Y-57861335D01*
X142611786Y-57799109D01*
X142611788Y-57799106D01*
X142611792Y-57799104D01*
X142762104Y-57648792D01*
X142762106Y-57648788D01*
X142762109Y-57648786D01*
X142887048Y-57476820D01*
X142887047Y-57476820D01*
X142887051Y-57476816D01*
X142891514Y-57468054D01*
X142939488Y-57417259D01*
X143007308Y-57400463D01*
X143073444Y-57422999D01*
X143112486Y-57468056D01*
X143116951Y-57476820D01*
X143241890Y-57648786D01*
X143392213Y-57799109D01*
X143564179Y-57924048D01*
X143564181Y-57924049D01*
X143564184Y-57924051D01*
X143753588Y-58020557D01*
X143955757Y-58086246D01*
X144165713Y-58119500D01*
X144165714Y-58119500D01*
X144378286Y-58119500D01*
X144378287Y-58119500D01*
X144588243Y-58086246D01*
X144790412Y-58020557D01*
X144979816Y-57924051D01*
X145066138Y-57861335D01*
X145151786Y-57799109D01*
X145151788Y-57799106D01*
X145151792Y-57799104D01*
X145302104Y-57648792D01*
X145302106Y-57648788D01*
X145302109Y-57648786D01*
X145427048Y-57476820D01*
X145427047Y-57476820D01*
X145427051Y-57476816D01*
X145431514Y-57468054D01*
X145479488Y-57417259D01*
X145547308Y-57400463D01*
X145613444Y-57422999D01*
X145652486Y-57468056D01*
X145656951Y-57476820D01*
X145781890Y-57648786D01*
X145932213Y-57799109D01*
X146104179Y-57924048D01*
X146104181Y-57924049D01*
X146104184Y-57924051D01*
X146293588Y-58020557D01*
X146495757Y-58086246D01*
X146705713Y-58119500D01*
X146705714Y-58119500D01*
X146918286Y-58119500D01*
X146918287Y-58119500D01*
X147128243Y-58086246D01*
X147330412Y-58020557D01*
X147519816Y-57924051D01*
X147691792Y-57799104D01*
X147805329Y-57685566D01*
X147866648Y-57652084D01*
X147936340Y-57657068D01*
X147992274Y-57698939D01*
X148009189Y-57729917D01*
X148058202Y-57861328D01*
X148058206Y-57861335D01*
X148144452Y-57976544D01*
X148144455Y-57976547D01*
X148259664Y-58062793D01*
X148259671Y-58062797D01*
X148394517Y-58113091D01*
X148394516Y-58113091D01*
X148401444Y-58113835D01*
X148454127Y-58119500D01*
X150249872Y-58119499D01*
X150309483Y-58113091D01*
X150444331Y-58062796D01*
X150559546Y-57976546D01*
X150645796Y-57861331D01*
X150696091Y-57726483D01*
X150702500Y-57666873D01*
X150702499Y-55871135D01*
X153208500Y-55871135D01*
X153208500Y-57666870D01*
X153208501Y-57666876D01*
X153214908Y-57726483D01*
X153265202Y-57861328D01*
X153265206Y-57861335D01*
X153351452Y-57976544D01*
X153351455Y-57976547D01*
X153466664Y-58062793D01*
X153466671Y-58062797D01*
X153601517Y-58113091D01*
X153601516Y-58113091D01*
X153608444Y-58113835D01*
X153661127Y-58119500D01*
X155456872Y-58119499D01*
X155516483Y-58113091D01*
X155651331Y-58062796D01*
X155766546Y-57976546D01*
X155852796Y-57861331D01*
X155901810Y-57729916D01*
X155943681Y-57673984D01*
X156009145Y-57649566D01*
X156077418Y-57664417D01*
X156105673Y-57685569D01*
X156219213Y-57799109D01*
X156391179Y-57924048D01*
X156391181Y-57924049D01*
X156391184Y-57924051D01*
X156580588Y-58020557D01*
X156782757Y-58086246D01*
X156992713Y-58119500D01*
X156992714Y-58119500D01*
X157205286Y-58119500D01*
X157205287Y-58119500D01*
X157415243Y-58086246D01*
X157617412Y-58020557D01*
X157806816Y-57924051D01*
X157893138Y-57861335D01*
X157978786Y-57799109D01*
X157978788Y-57799106D01*
X157978792Y-57799104D01*
X158129104Y-57648792D01*
X158129106Y-57648788D01*
X158129109Y-57648786D01*
X158254048Y-57476820D01*
X158254047Y-57476820D01*
X158254051Y-57476816D01*
X158258514Y-57468054D01*
X158306488Y-57417259D01*
X158374308Y-57400463D01*
X158440444Y-57422999D01*
X158479486Y-57468056D01*
X158483951Y-57476820D01*
X158608890Y-57648786D01*
X158759213Y-57799109D01*
X158931179Y-57924048D01*
X158931181Y-57924049D01*
X158931184Y-57924051D01*
X159120588Y-58020557D01*
X159322757Y-58086246D01*
X159532713Y-58119500D01*
X159532714Y-58119500D01*
X159745286Y-58119500D01*
X159745287Y-58119500D01*
X159955243Y-58086246D01*
X160157412Y-58020557D01*
X160346816Y-57924051D01*
X160433138Y-57861335D01*
X160518786Y-57799109D01*
X160518788Y-57799106D01*
X160518792Y-57799104D01*
X160669104Y-57648792D01*
X160669106Y-57648788D01*
X160669109Y-57648786D01*
X160794048Y-57476820D01*
X160794047Y-57476820D01*
X160794051Y-57476816D01*
X160798514Y-57468054D01*
X160846488Y-57417259D01*
X160914308Y-57400463D01*
X160980444Y-57422999D01*
X161019486Y-57468056D01*
X161023951Y-57476820D01*
X161148890Y-57648786D01*
X161299213Y-57799109D01*
X161471179Y-57924048D01*
X161471181Y-57924049D01*
X161471184Y-57924051D01*
X161660588Y-58020557D01*
X161862757Y-58086246D01*
X162072713Y-58119500D01*
X162072714Y-58119500D01*
X162285286Y-58119500D01*
X162285287Y-58119500D01*
X162495243Y-58086246D01*
X162697412Y-58020557D01*
X162886816Y-57924051D01*
X162973138Y-57861335D01*
X163058786Y-57799109D01*
X163058788Y-57799106D01*
X163058792Y-57799104D01*
X163209104Y-57648792D01*
X163209106Y-57648788D01*
X163209109Y-57648786D01*
X163334048Y-57476820D01*
X163334047Y-57476820D01*
X163334051Y-57476816D01*
X163338514Y-57468054D01*
X163386488Y-57417259D01*
X163454308Y-57400463D01*
X163520444Y-57422999D01*
X163559486Y-57468056D01*
X163563951Y-57476820D01*
X163688890Y-57648786D01*
X163839213Y-57799109D01*
X164011179Y-57924048D01*
X164011181Y-57924049D01*
X164011184Y-57924051D01*
X164200588Y-58020557D01*
X164402757Y-58086246D01*
X164612713Y-58119500D01*
X164612714Y-58119500D01*
X164825286Y-58119500D01*
X164825287Y-58119500D01*
X165035243Y-58086246D01*
X165237412Y-58020557D01*
X165426816Y-57924051D01*
X165513138Y-57861335D01*
X165598786Y-57799109D01*
X165598788Y-57799106D01*
X165598792Y-57799104D01*
X165749104Y-57648792D01*
X165749106Y-57648788D01*
X165749109Y-57648786D01*
X165874048Y-57476820D01*
X165874047Y-57476820D01*
X165874051Y-57476816D01*
X165878514Y-57468054D01*
X165926488Y-57417259D01*
X165994308Y-57400463D01*
X166060444Y-57422999D01*
X166099486Y-57468056D01*
X166103951Y-57476820D01*
X166228890Y-57648786D01*
X166379213Y-57799109D01*
X166551179Y-57924048D01*
X166551181Y-57924049D01*
X166551184Y-57924051D01*
X166740588Y-58020557D01*
X166942757Y-58086246D01*
X167152713Y-58119500D01*
X167152714Y-58119500D01*
X167365286Y-58119500D01*
X167365287Y-58119500D01*
X167575243Y-58086246D01*
X167777412Y-58020557D01*
X167966816Y-57924051D01*
X168053138Y-57861335D01*
X168138786Y-57799109D01*
X168138788Y-57799106D01*
X168138792Y-57799104D01*
X168289104Y-57648792D01*
X168289106Y-57648788D01*
X168289109Y-57648786D01*
X168414048Y-57476820D01*
X168414047Y-57476820D01*
X168414051Y-57476816D01*
X168418514Y-57468054D01*
X168466488Y-57417259D01*
X168534308Y-57400463D01*
X168600444Y-57422999D01*
X168639486Y-57468056D01*
X168643951Y-57476820D01*
X168768890Y-57648786D01*
X168919213Y-57799109D01*
X169091179Y-57924048D01*
X169091181Y-57924049D01*
X169091184Y-57924051D01*
X169280588Y-58020557D01*
X169482757Y-58086246D01*
X169692713Y-58119500D01*
X169692714Y-58119500D01*
X169905286Y-58119500D01*
X169905287Y-58119500D01*
X170115243Y-58086246D01*
X170317412Y-58020557D01*
X170506816Y-57924051D01*
X170593138Y-57861335D01*
X170678786Y-57799109D01*
X170678788Y-57799106D01*
X170678792Y-57799104D01*
X170829104Y-57648792D01*
X170829106Y-57648788D01*
X170829109Y-57648786D01*
X170954048Y-57476820D01*
X170954047Y-57476820D01*
X170954051Y-57476816D01*
X170958514Y-57468054D01*
X171006488Y-57417259D01*
X171074308Y-57400463D01*
X171140444Y-57422999D01*
X171179486Y-57468056D01*
X171183951Y-57476820D01*
X171308890Y-57648786D01*
X171459213Y-57799109D01*
X171631179Y-57924048D01*
X171631181Y-57924049D01*
X171631184Y-57924051D01*
X171820588Y-58020557D01*
X172022757Y-58086246D01*
X172232713Y-58119500D01*
X172232714Y-58119500D01*
X172445286Y-58119500D01*
X172445287Y-58119500D01*
X172655243Y-58086246D01*
X172857412Y-58020557D01*
X173046816Y-57924051D01*
X173133138Y-57861335D01*
X173218786Y-57799109D01*
X173218788Y-57799106D01*
X173218792Y-57799104D01*
X173369104Y-57648792D01*
X173369106Y-57648788D01*
X173369109Y-57648786D01*
X173494048Y-57476820D01*
X173494047Y-57476820D01*
X173494051Y-57476816D01*
X173590557Y-57287412D01*
X173656246Y-57085243D01*
X173689500Y-56875287D01*
X173689500Y-56662713D01*
X173656246Y-56452757D01*
X173590557Y-56250588D01*
X173494051Y-56061184D01*
X173494049Y-56061181D01*
X173494048Y-56061179D01*
X173369109Y-55889213D01*
X173218786Y-55738890D01*
X173046820Y-55613951D01*
X172857414Y-55517444D01*
X172857413Y-55517443D01*
X172857412Y-55517443D01*
X172655243Y-55451754D01*
X172655241Y-55451753D01*
X172655240Y-55451753D01*
X172493957Y-55426208D01*
X172445287Y-55418500D01*
X172232713Y-55418500D01*
X172184042Y-55426208D01*
X172022760Y-55451753D01*
X171820585Y-55517444D01*
X171631179Y-55613951D01*
X171459213Y-55738890D01*
X171308890Y-55889213D01*
X171183949Y-56061182D01*
X171179484Y-56069946D01*
X171131509Y-56120742D01*
X171063688Y-56137536D01*
X170997553Y-56114998D01*
X170958516Y-56069946D01*
X170954050Y-56061182D01*
X170829109Y-55889213D01*
X170678786Y-55738890D01*
X170506820Y-55613951D01*
X170317414Y-55517444D01*
X170317413Y-55517443D01*
X170317412Y-55517443D01*
X170115243Y-55451754D01*
X170115241Y-55451753D01*
X170115240Y-55451753D01*
X169953957Y-55426208D01*
X169905287Y-55418500D01*
X169692713Y-55418500D01*
X169644042Y-55426208D01*
X169482760Y-55451753D01*
X169280585Y-55517444D01*
X169091179Y-55613951D01*
X168919213Y-55738890D01*
X168768890Y-55889213D01*
X168643949Y-56061182D01*
X168639484Y-56069946D01*
X168591509Y-56120742D01*
X168523688Y-56137536D01*
X168457553Y-56114998D01*
X168418516Y-56069946D01*
X168414050Y-56061182D01*
X168289109Y-55889213D01*
X168138786Y-55738890D01*
X167966820Y-55613951D01*
X167777414Y-55517444D01*
X167777413Y-55517443D01*
X167777412Y-55517443D01*
X167575243Y-55451754D01*
X167575241Y-55451753D01*
X167575240Y-55451753D01*
X167413957Y-55426208D01*
X167365287Y-55418500D01*
X167152713Y-55418500D01*
X167104042Y-55426208D01*
X166942760Y-55451753D01*
X166740585Y-55517444D01*
X166551179Y-55613951D01*
X166379213Y-55738890D01*
X166228890Y-55889213D01*
X166103949Y-56061182D01*
X166099484Y-56069946D01*
X166051509Y-56120742D01*
X165983688Y-56137536D01*
X165917553Y-56114998D01*
X165878516Y-56069946D01*
X165874050Y-56061182D01*
X165749109Y-55889213D01*
X165598786Y-55738890D01*
X165426820Y-55613951D01*
X165237414Y-55517444D01*
X165237413Y-55517443D01*
X165237412Y-55517443D01*
X165035243Y-55451754D01*
X165035241Y-55451753D01*
X165035240Y-55451753D01*
X164873957Y-55426208D01*
X164825287Y-55418500D01*
X164612713Y-55418500D01*
X164564042Y-55426208D01*
X164402760Y-55451753D01*
X164200585Y-55517444D01*
X164011179Y-55613951D01*
X163839213Y-55738890D01*
X163688890Y-55889213D01*
X163563949Y-56061182D01*
X163559484Y-56069946D01*
X163511509Y-56120742D01*
X163443688Y-56137536D01*
X163377553Y-56114998D01*
X163338516Y-56069946D01*
X163334050Y-56061182D01*
X163209109Y-55889213D01*
X163058786Y-55738890D01*
X162886820Y-55613951D01*
X162697414Y-55517444D01*
X162697413Y-55517443D01*
X162697412Y-55517443D01*
X162495243Y-55451754D01*
X162495241Y-55451753D01*
X162495240Y-55451753D01*
X162333957Y-55426208D01*
X162285287Y-55418500D01*
X162072713Y-55418500D01*
X162024042Y-55426208D01*
X161862760Y-55451753D01*
X161660585Y-55517444D01*
X161471179Y-55613951D01*
X161299213Y-55738890D01*
X161148890Y-55889213D01*
X161023949Y-56061182D01*
X161019484Y-56069946D01*
X160971509Y-56120742D01*
X160903688Y-56137536D01*
X160837553Y-56114998D01*
X160798516Y-56069946D01*
X160794050Y-56061182D01*
X160669109Y-55889213D01*
X160518786Y-55738890D01*
X160346820Y-55613951D01*
X160157414Y-55517444D01*
X160157413Y-55517443D01*
X160157412Y-55517443D01*
X159955243Y-55451754D01*
X159955241Y-55451753D01*
X159955240Y-55451753D01*
X159793957Y-55426208D01*
X159745287Y-55418500D01*
X159532713Y-55418500D01*
X159484042Y-55426208D01*
X159322760Y-55451753D01*
X159120585Y-55517444D01*
X158931179Y-55613951D01*
X158759213Y-55738890D01*
X158608890Y-55889213D01*
X158483949Y-56061182D01*
X158479484Y-56069946D01*
X158431509Y-56120742D01*
X158363688Y-56137536D01*
X158297553Y-56114998D01*
X158258516Y-56069946D01*
X158254050Y-56061182D01*
X158129109Y-55889213D01*
X157978786Y-55738890D01*
X157806820Y-55613951D01*
X157617414Y-55517444D01*
X157617413Y-55517443D01*
X157617412Y-55517443D01*
X157415243Y-55451754D01*
X157415241Y-55451753D01*
X157415240Y-55451753D01*
X157253957Y-55426208D01*
X157205287Y-55418500D01*
X156992713Y-55418500D01*
X156944042Y-55426208D01*
X156782760Y-55451753D01*
X156580585Y-55517444D01*
X156391179Y-55613951D01*
X156219215Y-55738889D01*
X156105673Y-55852431D01*
X156044350Y-55885915D01*
X155974658Y-55880931D01*
X155918725Y-55839059D01*
X155901810Y-55808082D01*
X155852797Y-55676671D01*
X155852793Y-55676664D01*
X155766547Y-55561455D01*
X155766544Y-55561452D01*
X155651335Y-55475206D01*
X155651328Y-55475202D01*
X155516482Y-55424908D01*
X155516483Y-55424908D01*
X155456883Y-55418501D01*
X155456881Y-55418500D01*
X155456873Y-55418500D01*
X155456864Y-55418500D01*
X153661129Y-55418500D01*
X153661123Y-55418501D01*
X153601516Y-55424908D01*
X153466671Y-55475202D01*
X153466664Y-55475206D01*
X153351455Y-55561452D01*
X153351452Y-55561455D01*
X153265206Y-55676664D01*
X153265202Y-55676671D01*
X153214908Y-55811517D01*
X153208501Y-55871116D01*
X153208500Y-55871135D01*
X150702499Y-55871135D01*
X150702499Y-55871128D01*
X150696091Y-55811517D01*
X150694810Y-55808083D01*
X150645797Y-55676671D01*
X150645793Y-55676664D01*
X150559547Y-55561455D01*
X150559544Y-55561452D01*
X150444335Y-55475206D01*
X150444328Y-55475202D01*
X150309482Y-55424908D01*
X150309483Y-55424908D01*
X150249883Y-55418501D01*
X150249881Y-55418500D01*
X150249873Y-55418500D01*
X150249864Y-55418500D01*
X148454129Y-55418500D01*
X148454123Y-55418501D01*
X148394516Y-55424908D01*
X148259671Y-55475202D01*
X148259664Y-55475206D01*
X148144455Y-55561452D01*
X148144452Y-55561455D01*
X148058206Y-55676664D01*
X148058203Y-55676669D01*
X148009189Y-55808083D01*
X147967317Y-55864016D01*
X147901853Y-55888433D01*
X147833580Y-55873581D01*
X147805326Y-55852430D01*
X147691786Y-55738890D01*
X147519820Y-55613951D01*
X147330414Y-55517444D01*
X147330413Y-55517443D01*
X147330412Y-55517443D01*
X147128243Y-55451754D01*
X147128241Y-55451753D01*
X147128240Y-55451753D01*
X146966957Y-55426208D01*
X146918287Y-55418500D01*
X146705713Y-55418500D01*
X146657042Y-55426208D01*
X146495760Y-55451753D01*
X146293585Y-55517444D01*
X146104179Y-55613951D01*
X145932213Y-55738890D01*
X145781890Y-55889213D01*
X145656949Y-56061182D01*
X145652484Y-56069946D01*
X145604509Y-56120742D01*
X145536688Y-56137536D01*
X145470553Y-56114998D01*
X145431516Y-56069946D01*
X145427050Y-56061182D01*
X145302109Y-55889213D01*
X145151786Y-55738890D01*
X144979820Y-55613951D01*
X144790414Y-55517444D01*
X144790413Y-55517443D01*
X144790412Y-55517443D01*
X144588243Y-55451754D01*
X144588241Y-55451753D01*
X144588240Y-55451753D01*
X144426957Y-55426208D01*
X144378287Y-55418500D01*
X144165713Y-55418500D01*
X144117042Y-55426208D01*
X143955760Y-55451753D01*
X143753585Y-55517444D01*
X143564179Y-55613951D01*
X143392213Y-55738890D01*
X143241890Y-55889213D01*
X143116949Y-56061182D01*
X143112484Y-56069946D01*
X143064509Y-56120742D01*
X142996688Y-56137536D01*
X142930553Y-56114998D01*
X142891516Y-56069946D01*
X142887050Y-56061182D01*
X142762109Y-55889213D01*
X142611786Y-55738890D01*
X142439820Y-55613951D01*
X142250414Y-55517444D01*
X142250413Y-55517443D01*
X142250412Y-55517443D01*
X142048243Y-55451754D01*
X142048241Y-55451753D01*
X142048240Y-55451753D01*
X141886957Y-55426208D01*
X141838287Y-55418500D01*
X141625713Y-55418500D01*
X141577042Y-55426208D01*
X141415760Y-55451753D01*
X141213585Y-55517444D01*
X141024179Y-55613951D01*
X140852213Y-55738890D01*
X140701890Y-55889213D01*
X140576951Y-56061179D01*
X140480444Y-56250585D01*
X140414753Y-56452760D01*
X140381500Y-56662713D01*
X137499499Y-56662713D01*
X137499499Y-55998128D01*
X137493091Y-55938517D01*
X137491810Y-55935083D01*
X137442797Y-55803671D01*
X137442793Y-55803664D01*
X137356547Y-55688455D01*
X137356544Y-55688452D01*
X137241335Y-55602206D01*
X137241328Y-55602202D01*
X137106482Y-55551908D01*
X137106483Y-55551908D01*
X137046883Y-55545501D01*
X137046881Y-55545500D01*
X137046873Y-55545500D01*
X137046864Y-55545500D01*
X135251129Y-55545500D01*
X135251123Y-55545501D01*
X135191516Y-55551908D01*
X135056671Y-55602202D01*
X135056664Y-55602206D01*
X134941455Y-55688452D01*
X134941452Y-55688455D01*
X134855206Y-55803664D01*
X134855203Y-55803669D01*
X134806189Y-55935083D01*
X134764317Y-55991016D01*
X134698853Y-56015433D01*
X134630580Y-56000581D01*
X134602326Y-55979430D01*
X134488786Y-55865890D01*
X134316820Y-55740951D01*
X134127414Y-55644444D01*
X134127413Y-55644443D01*
X134127412Y-55644443D01*
X133925243Y-55578754D01*
X133925241Y-55578753D01*
X133925240Y-55578753D01*
X133763957Y-55553208D01*
X133715287Y-55545500D01*
X133502713Y-55545500D01*
X133454042Y-55553208D01*
X133292760Y-55578753D01*
X133090585Y-55644444D01*
X132901179Y-55740951D01*
X132729213Y-55865890D01*
X132578890Y-56016213D01*
X132453951Y-56188179D01*
X132357444Y-56377585D01*
X132291753Y-56579760D01*
X132258500Y-56789713D01*
X115537100Y-56789713D01*
X115537100Y-50408500D01*
X115556785Y-50341461D01*
X115609589Y-50295706D01*
X115661100Y-50284500D01*
X185176500Y-50284500D01*
X185243539Y-50304185D01*
G37*
%TD.AperFunction*%
%TD*%
M02*
