%TF.GenerationSoftware,KiCad,Pcbnew,9.0.6*%
%TF.CreationDate,2026-03-28T18:24:00+01:00*%
%TF.ProjectId,zadanieRekrutacyjneFalcon292778,7a616461-6e69-4655-9265-6b7275746163,rev?*%
%TF.SameCoordinates,Original*%
%TF.FileFunction,Soldermask,Bot*%
%TF.FilePolarity,Negative*%
%FSLAX46Y46*%
G04 Gerber Fmt 4.6, Leading zero omitted, Abs format (unit mm)*
G04 Created by KiCad (PCBNEW 9.0.6) date 2026-03-28 18:24:00*
%MOMM*%
%LPD*%
G01*
G04 APERTURE LIST*
G04 Aperture macros list*
%AMRoundRect*
0 Rectangle with rounded corners*
0 $1 Rounding radius*
0 $2 $3 $4 $5 $6 $7 $8 $9 X,Y pos of 4 corners*
0 Add a 4 corners polygon primitive as box body*
4,1,4,$2,$3,$4,$5,$6,$7,$8,$9,$2,$3,0*
0 Add four circle primitives for the rounded corners*
1,1,$1+$1,$2,$3*
1,1,$1+$1,$4,$5*
1,1,$1+$1,$6,$7*
1,1,$1+$1,$8,$9*
0 Add four rect primitives between the rounded corners*
20,1,$1+$1,$2,$3,$4,$5,0*
20,1,$1+$1,$4,$5,$6,$7,0*
20,1,$1+$1,$6,$7,$8,$9,0*
20,1,$1+$1,$8,$9,$2,$3,0*%
G04 Aperture macros list end*
%ADD10O,2.000000X1.100000*%
%ADD11O,1.800000X1.200000*%
%ADD12R,1.700000X1.700000*%
%ADD13C,1.700000*%
%ADD14RoundRect,0.250001X-0.949999X0.949999X-0.949999X-0.949999X0.949999X-0.949999X0.949999X0.949999X0*%
%ADD15C,2.400000*%
%ADD16RoundRect,0.250001X-0.949999X-0.949999X0.949999X-0.949999X0.949999X0.949999X-0.949999X0.949999X0*%
%ADD17C,2.000000*%
G04 APERTURE END LIST*
D10*
%TO.C,USB1*%
X178891000Y-110111000D03*
D11*
X183101000Y-110111000D03*
D10*
X178891000Y-101471000D03*
D11*
X183101000Y-101471000D03*
%TD*%
D12*
%TO.C,J6*%
X154559000Y-56769000D03*
D13*
X157099000Y-56769000D03*
X159639000Y-56769000D03*
X162179000Y-56769000D03*
X164719000Y-56769000D03*
X167259000Y-56769000D03*
X169799000Y-56769000D03*
X172339000Y-56769000D03*
%TD*%
D12*
%TO.C,J1*%
X132080000Y-116840000D03*
D13*
X134620000Y-116840000D03*
X137160000Y-116840000D03*
%TD*%
D14*
%TO.C,C4*%
X119495500Y-96156000D03*
D15*
X119495500Y-114156000D03*
%TD*%
D16*
%TO.C,C3*%
X118508000Y-66432500D03*
D15*
X136508000Y-66432500D03*
%TD*%
D17*
%TO.C,FB1*%
X145288000Y-70104000D03*
X140208000Y-70104000D03*
%TD*%
D16*
%TO.C,C10*%
X118508000Y-72020500D03*
D15*
X136508000Y-72020500D03*
%TD*%
D12*
%TO.C,J2*%
X173101000Y-116840000D03*
D13*
X175641000Y-116840000D03*
%TD*%
%TO.C,Y1*%
X140248000Y-81788000D03*
X145248000Y-81788000D03*
%TD*%
D12*
%TO.C,J5*%
X159766000Y-116840000D03*
D13*
X157226000Y-116840000D03*
X154686000Y-116840000D03*
X152146000Y-116840000D03*
X149606000Y-116840000D03*
X147066000Y-116840000D03*
X144526000Y-116840000D03*
X141986000Y-116840000D03*
%TD*%
D12*
%TO.C,J4*%
X149352000Y-56769000D03*
D13*
X146812000Y-56769000D03*
X144272000Y-56769000D03*
X141732000Y-56769000D03*
%TD*%
D12*
%TO.C,J7*%
X167772000Y-116840000D03*
D13*
X165232000Y-116840000D03*
%TD*%
D12*
%TO.C,J3*%
X136149000Y-56896000D03*
D13*
X133609000Y-56896000D03*
%TD*%
M02*
