%TF.GenerationSoftware,KiCad,Pcbnew,9.0.6*%
%TF.CreationDate,2026-03-28T18:24:00+01:00*%
%TF.ProjectId,zadanieRekrutacyjneFalcon292778,7a616461-6e69-4655-9265-6b7275746163,rev?*%
%TF.SameCoordinates,Original*%
%TF.FileFunction,Soldermask,Top*%
%TF.FilePolarity,Negative*%
%FSLAX46Y46*%
G04 Gerber Fmt 4.6, Leading zero omitted, Abs format (unit mm)*
G04 Created by KiCad (PCBNEW 9.0.6) date 2026-03-28 18:24:00*
%MOMM*%
%LPD*%
G01*
G04 APERTURE LIST*
G04 Aperture macros list*
%AMRoundRect*
0 Rectangle with rounded corners*
0 $1 Rounding radius*
0 $2 $3 $4 $5 $6 $7 $8 $9 X,Y pos of 4 corners*
0 Add a 4 corners polygon primitive as box body*
4,1,4,$2,$3,$4,$5,$6,$7,$8,$9,$2,$3,0*
0 Add four circle primitives for the rounded corners*
1,1,$1+$1,$2,$3*
1,1,$1+$1,$4,$5*
1,1,$1+$1,$6,$7*
1,1,$1+$1,$8,$9*
0 Add four rect primitives between the rounded corners*
20,1,$1+$1,$2,$3,$4,$5,0*
20,1,$1+$1,$4,$5,$6,$7,0*
20,1,$1+$1,$6,$7,$8,$9,0*
20,1,$1+$1,$8,$9,$2,$3,0*%
G04 Aperture macros list end*
%ADD10RoundRect,0.075000X0.175000X-0.075000X0.175000X0.075000X-0.175000X0.075000X-0.175000X-0.075000X0*%
%ADD11R,1.100000X0.550000*%
%ADD12R,1.100000X0.300000*%
%ADD13O,2.000000X1.100000*%
%ADD14O,1.800000X1.200000*%
%ADD15RoundRect,0.050000X0.050000X-0.350000X0.050000X0.350000X-0.050000X0.350000X-0.050000X-0.350000X0*%
%ADD16RoundRect,0.050000X0.350000X-0.050000X0.350000X0.050000X-0.350000X0.050000X-0.350000X-0.050000X0*%
%ADD17R,4.000000X4.000000*%
%ADD18RoundRect,0.250000X0.550000X-0.250000X0.550000X0.250000X-0.550000X0.250000X-0.550000X-0.250000X0*%
%ADD19RoundRect,0.125000X-0.125000X0.200000X-0.125000X-0.200000X0.125000X-0.200000X0.125000X0.200000X0*%
%ADD20R,4.300000X3.400000*%
%ADD21RoundRect,0.225000X-0.250000X0.225000X-0.250000X-0.225000X0.250000X-0.225000X0.250000X0.225000X0*%
%ADD22RoundRect,0.200000X-0.275000X0.200000X-0.275000X-0.200000X0.275000X-0.200000X0.275000X0.200000X0*%
%ADD23RoundRect,0.200000X0.275000X-0.200000X0.275000X0.200000X-0.275000X0.200000X-0.275000X-0.200000X0*%
%ADD24RoundRect,0.200000X-0.200000X-0.275000X0.200000X-0.275000X0.200000X0.275000X-0.200000X0.275000X0*%
%ADD25RoundRect,0.225000X0.225000X0.250000X-0.225000X0.250000X-0.225000X-0.250000X0.225000X-0.250000X0*%
%ADD26RoundRect,0.218750X-0.218750X-0.256250X0.218750X-0.256250X0.218750X0.256250X-0.218750X0.256250X0*%
%ADD27RoundRect,0.218750X0.218750X0.256250X-0.218750X0.256250X-0.218750X-0.256250X0.218750X-0.256250X0*%
%ADD28RoundRect,0.150000X-0.150000X-0.200000X0.150000X-0.200000X0.150000X0.200000X-0.150000X0.200000X0*%
%ADD29RoundRect,0.150000X-0.150000X0.825000X-0.150000X-0.825000X0.150000X-0.825000X0.150000X0.825000X0*%
%ADD30R,1.700000X1.700000*%
%ADD31C,1.700000*%
%ADD32RoundRect,0.250001X-0.949999X0.949999X-0.949999X-0.949999X0.949999X-0.949999X0.949999X0.949999X0*%
%ADD33C,2.400000*%
%ADD34RoundRect,0.200000X0.200000X0.275000X-0.200000X0.275000X-0.200000X-0.275000X0.200000X-0.275000X0*%
%ADD35RoundRect,0.250001X-0.949999X-0.949999X0.949999X-0.949999X0.949999X0.949999X-0.949999X0.949999X0*%
%ADD36RoundRect,0.225000X-0.225000X-0.250000X0.225000X-0.250000X0.225000X0.250000X-0.225000X0.250000X0*%
%ADD37RoundRect,0.135000X-0.315000X-0.365000X0.315000X-0.365000X0.315000X0.365000X-0.315000X0.365000X0*%
%ADD38RoundRect,0.082500X-0.767500X-0.192500X0.767500X-0.192500X0.767500X0.192500X-0.767500X0.192500X0*%
%ADD39R,0.270000X0.600000*%
%ADD40R,0.600000X0.270000*%
%ADD41C,2.000000*%
%ADD42RoundRect,0.225000X0.250000X-0.225000X0.250000X0.225000X-0.250000X0.225000X-0.250000X-0.225000X0*%
%ADD43RoundRect,0.375000X0.375000X-0.625000X0.375000X0.625000X-0.375000X0.625000X-0.375000X-0.625000X0*%
%ADD44RoundRect,0.500000X1.400000X-0.500000X1.400000X0.500000X-1.400000X0.500000X-1.400000X-0.500000X0*%
G04 APERTURE END LIST*
D10*
%TO.C,D2*%
X141960600Y-94482400D03*
X141960600Y-93782400D03*
%TD*%
D11*
%TO.C,USB1*%
X178341000Y-108991000D03*
X178341000Y-108191000D03*
D12*
X178341000Y-107541000D03*
X178341000Y-107041000D03*
X178341000Y-106541000D03*
X178341000Y-106041000D03*
X178341000Y-105541000D03*
X178341000Y-105041000D03*
X178341000Y-104541000D03*
X178341000Y-104041000D03*
D11*
X178341000Y-103391000D03*
X178341000Y-102591000D03*
D13*
X178891000Y-110111000D03*
D14*
X183101000Y-110111000D03*
D13*
X178891000Y-101471000D03*
D14*
X183101000Y-101471000D03*
%TD*%
D15*
%TO.C,U1*%
X156912000Y-86254000D03*
X157312000Y-86254000D03*
X157712000Y-86254000D03*
X158112000Y-86254000D03*
X158512000Y-86254000D03*
X158912000Y-86254000D03*
X159312000Y-86254000D03*
X159712000Y-86254000D03*
X160112000Y-86254000D03*
X160512000Y-86254000D03*
X160912000Y-86254000D03*
X161312000Y-86254000D03*
X161712000Y-86254000D03*
X162112000Y-86254000D03*
D16*
X162962000Y-85404000D03*
X162962000Y-85004000D03*
X162962000Y-84604000D03*
X162962000Y-84204000D03*
X162962000Y-83804000D03*
X162962000Y-83404000D03*
X162962000Y-83004000D03*
X162962000Y-82604000D03*
X162962000Y-82204000D03*
X162962000Y-81804000D03*
X162962000Y-81404000D03*
X162962000Y-81004000D03*
X162962000Y-80604000D03*
X162962000Y-80204000D03*
D15*
X162112000Y-79354000D03*
X161712000Y-79354000D03*
X161312000Y-79354000D03*
X160912000Y-79354000D03*
X160512000Y-79354000D03*
X160112000Y-79354000D03*
X159712000Y-79354000D03*
X159312000Y-79354000D03*
X158912000Y-79354000D03*
X158512000Y-79354000D03*
X158112000Y-79354000D03*
X157712000Y-79354000D03*
X157312000Y-79354000D03*
X156912000Y-79354000D03*
D16*
X156062000Y-80204000D03*
X156062000Y-80604000D03*
X156062000Y-81004000D03*
X156062000Y-81404000D03*
X156062000Y-81804000D03*
X156062000Y-82204000D03*
X156062000Y-82604000D03*
X156062000Y-83004000D03*
X156062000Y-83404000D03*
X156062000Y-83804000D03*
X156062000Y-84204000D03*
X156062000Y-84604000D03*
X156062000Y-85004000D03*
X156062000Y-85404000D03*
D17*
X159512000Y-82804000D03*
%TD*%
D18*
%TO.C,SW5*%
X179204000Y-83538000D03*
X176904000Y-81788000D03*
X179204000Y-80038000D03*
%TD*%
D19*
%TO.C,U4*%
X171138092Y-61577090D03*
X169868092Y-61577090D03*
X168598092Y-61577090D03*
X167328092Y-61577090D03*
X167328092Y-69077090D03*
X168598092Y-69077090D03*
X169868092Y-69077090D03*
X171138092Y-69077090D03*
D20*
X169233092Y-65327090D03*
%TD*%
D21*
%TO.C,C17*%
X177361092Y-65060090D03*
X177361092Y-66610090D03*
%TD*%
D22*
%TO.C,R1*%
X176657000Y-108522000D03*
X176657000Y-110172000D03*
%TD*%
D23*
%TO.C,R13*%
X164475001Y-75501000D03*
X164475001Y-73851000D03*
%TD*%
%TO.C,R12*%
X162951001Y-75501000D03*
X162951001Y-73851000D03*
%TD*%
D21*
%TO.C,C1*%
X122174000Y-88125000D03*
X122174000Y-89675000D03*
%TD*%
D24*
%TO.C,R6*%
X164783000Y-97028000D03*
X166433000Y-97028000D03*
%TD*%
D25*
%TO.C,C8*%
X152794000Y-80010000D03*
X151244000Y-80010000D03*
%TD*%
D26*
%TO.C,L2*%
X141960500Y-92456000D03*
X143535500Y-92456000D03*
%TD*%
D27*
%TO.C,D5*%
X182905500Y-81788000D03*
X181330500Y-81788000D03*
%TD*%
D18*
%TO.C,SW2*%
X159646000Y-106398000D03*
X157346000Y-104648000D03*
X159646000Y-102898000D03*
%TD*%
D28*
%TO.C,D6*%
X176468000Y-105029000D03*
X175068000Y-105029000D03*
%TD*%
D29*
%TO.C,U5*%
X182822092Y-63360090D03*
X181552092Y-63360090D03*
X180282092Y-63360090D03*
X179012092Y-63360090D03*
X179012092Y-68310090D03*
X180282092Y-68310090D03*
X181552092Y-68310090D03*
X182822092Y-68310090D03*
%TD*%
D30*
%TO.C,J6*%
X154559000Y-56769000D03*
D31*
X157099000Y-56769000D03*
X159639000Y-56769000D03*
X162179000Y-56769000D03*
X164719000Y-56769000D03*
X167259000Y-56769000D03*
X169799000Y-56769000D03*
X172339000Y-56769000D03*
%TD*%
D27*
%TO.C,L1*%
X143535500Y-84328000D03*
X141960500Y-84328000D03*
%TD*%
D26*
%TO.C,D1*%
X158216500Y-109220000D03*
X159791500Y-109220000D03*
%TD*%
D22*
%TO.C,R16*%
X181864000Y-87567000D03*
X181864000Y-89217000D03*
%TD*%
D26*
%TO.C,D4*%
X181838500Y-77216000D03*
X183413500Y-77216000D03*
%TD*%
D23*
%TO.C,R3*%
X139700000Y-102933000D03*
X139700000Y-101283000D03*
%TD*%
%TO.C,R9*%
X158379001Y-75501000D03*
X158379001Y-73851000D03*
%TD*%
D30*
%TO.C,J1*%
X132080000Y-116840000D03*
D31*
X134620000Y-116840000D03*
X137160000Y-116840000D03*
%TD*%
D32*
%TO.C,C4*%
X119495500Y-96156000D03*
D33*
X119495500Y-114156000D03*
%TD*%
D34*
%TO.C,R20*%
X168094001Y-82990091D03*
X166444001Y-82990091D03*
%TD*%
D35*
%TO.C,C3*%
X118508000Y-66432500D03*
D33*
X136508000Y-66432500D03*
%TD*%
D26*
%TO.C,D3*%
X181838500Y-90932000D03*
X183413500Y-90932000D03*
%TD*%
D36*
%TO.C,C5*%
X164208001Y-77910091D03*
X165758001Y-77910091D03*
%TD*%
D37*
%TO.C,SW4*%
X176004000Y-74892000D03*
X180104000Y-74892000D03*
X176004000Y-76492000D03*
X180104000Y-76492000D03*
D38*
X178054000Y-74267000D03*
%TD*%
D24*
%TO.C,R18*%
X181293000Y-83820000D03*
X182943000Y-83820000D03*
%TD*%
D23*
%TO.C,R7*%
X168656000Y-99377000D03*
X168656000Y-97727000D03*
%TD*%
%TO.C,R14*%
X165999001Y-75501000D03*
X165999001Y-73851000D03*
%TD*%
D24*
%TO.C,R5*%
X164783000Y-98552000D03*
X166433000Y-98552000D03*
%TD*%
D21*
%TO.C,C9*%
X165999001Y-85517091D03*
X165999001Y-87067091D03*
%TD*%
%TO.C,C16*%
X165169092Y-64552090D03*
X165169092Y-66102090D03*
%TD*%
D37*
%TO.C,SW1*%
X141206000Y-103340000D03*
X145306000Y-103340000D03*
X141206000Y-104940000D03*
X145306000Y-104940000D03*
D38*
X143256000Y-102715000D03*
%TD*%
D39*
%TO.C,U3*%
X168922000Y-95658000D03*
X169422000Y-95658000D03*
X169922000Y-95658000D03*
X170422000Y-95658000D03*
D40*
X170592000Y-94988000D03*
X170592000Y-94488000D03*
X170592000Y-93988000D03*
D39*
X170422000Y-93318000D03*
X169922000Y-93318000D03*
X169422000Y-93318000D03*
X168922000Y-93318000D03*
D40*
X168752000Y-93988000D03*
X168752000Y-94488000D03*
X168752000Y-94988000D03*
%TD*%
D23*
%TO.C,R10*%
X159903001Y-75501000D03*
X159903001Y-73851000D03*
%TD*%
%TO.C,R8*%
X170180000Y-99377000D03*
X170180000Y-97727000D03*
%TD*%
D25*
%TO.C,C18*%
X140475000Y-84328000D03*
X138925000Y-84328000D03*
%TD*%
D21*
%TO.C,C11*%
X146812000Y-103365000D03*
X146812000Y-104915000D03*
%TD*%
%TO.C,C14*%
X140208000Y-92697000D03*
X140208000Y-94247000D03*
%TD*%
D41*
%TO.C,FB1*%
X145288000Y-70104000D03*
X140208000Y-70104000D03*
%TD*%
D36*
%TO.C,C19*%
X145021000Y-84328000D03*
X146571000Y-84328000D03*
%TD*%
D35*
%TO.C,C10*%
X118508000Y-72020500D03*
D33*
X136508000Y-72020500D03*
%TD*%
D21*
%TO.C,C6*%
X156972000Y-88125000D03*
X156972000Y-89675000D03*
%TD*%
D30*
%TO.C,J2*%
X173101000Y-116840000D03*
D31*
X175641000Y-116840000D03*
%TD*%
D34*
%TO.C,R19*%
X168094001Y-81466091D03*
X166444001Y-81466091D03*
%TD*%
D42*
%TO.C,C12*%
X172212000Y-95263000D03*
X172212000Y-93713000D03*
%TD*%
D24*
%TO.C,R17*%
X181801000Y-75184000D03*
X183451000Y-75184000D03*
%TD*%
D42*
%TO.C,C2*%
X118872000Y-89675000D03*
X118872000Y-88125000D03*
%TD*%
D25*
%TO.C,C13*%
X172479000Y-91948000D03*
X170929000Y-91948000D03*
%TD*%
D37*
%TO.C,SW3*%
X176004000Y-88100000D03*
X180104000Y-88100000D03*
X176004000Y-89700000D03*
X180104000Y-89700000D03*
D38*
X178054000Y-87475000D03*
%TD*%
D31*
%TO.C,Y1*%
X140248000Y-81788000D03*
X145248000Y-81788000D03*
%TD*%
D21*
%TO.C,C15*%
X145288000Y-92697000D03*
X145288000Y-94247000D03*
%TD*%
D24*
%TO.C,R15*%
X166444001Y-79942091D03*
X168094001Y-79942091D03*
%TD*%
D28*
%TO.C,D7*%
X176468000Y-106553000D03*
X175068000Y-106553000D03*
%TD*%
D30*
%TO.C,J5*%
X159766000Y-116840000D03*
D31*
X157226000Y-116840000D03*
X154686000Y-116840000D03*
X152146000Y-116840000D03*
X149606000Y-116840000D03*
X147066000Y-116840000D03*
X144526000Y-116840000D03*
X141986000Y-116840000D03*
%TD*%
D30*
%TO.C,J4*%
X149352000Y-56769000D03*
D31*
X146812000Y-56769000D03*
X144272000Y-56769000D03*
X141732000Y-56769000D03*
%TD*%
D23*
%TO.C,R2*%
X176657000Y-102806000D03*
X176657000Y-101156000D03*
%TD*%
D25*
%TO.C,C7*%
X154191000Y-86360000D03*
X152641000Y-86360000D03*
%TD*%
D23*
%TO.C,R11*%
X161427001Y-75501000D03*
X161427001Y-73851000D03*
%TD*%
D30*
%TO.C,J7*%
X167772000Y-116840000D03*
D31*
X165232000Y-116840000D03*
%TD*%
D43*
%TO.C,U2*%
X117588000Y-85954000D03*
X119888000Y-85954000D03*
D44*
X119888000Y-79654000D03*
D43*
X122188000Y-85954000D03*
%TD*%
D22*
%TO.C,R4*%
X161544000Y-106363000D03*
X161544000Y-108013000D03*
%TD*%
D30*
%TO.C,J3*%
X136149000Y-56896000D03*
D31*
X133609000Y-56896000D03*
%TD*%
M02*
